{
classes = (
{
automatic = 1;
code = "A Aacute Acircumflex Adieresis Agrave Aring Atilde AE B C Ccedilla D Eth E Eacute Ecircumflex Edieresis Egrave F G H I Iacute Icircumflex Idieresis Igrave J K L Lslash M N Ntilde O Oacute Ocircumflex Odieresis Ograve Oslash Otilde OE P Thorn Q R S Scaron T U Uacute Ucircumflex Udieresis Ugrave V W X Y Yacute Ydieresis Z Zcaron Omega";
name = Uppercase;
}
);
copyright = "Copyright (c) 2011-2015 by Omnibus-Type (www.omnibus-type.com omnibus.type@gmail.com)";
customParameters = (
{
name = openTypeNameLicenseURL;
value = "http://scripts.sil.org/OFL";
},
{
name = openTypeNameDescription;
value = "Chivo (Goat) is a new Omnibus-Type grotesque. The strength of Chivo Black make it ideal for highlights and headlines. Chivo Regular elegance makes it ideal for combining the strength of Chivo Black and to use in texts for continuous reading. Its design detail becomes an indispensable ally for any designer.";
},
{
name = trademark;
value = "Chivo is a trademark of Omnibus-Type.";
},
{
name = openTypeNameLicense;
value = "This Font Software is licensed under the SIL Open Font License, Version 1.1.";
},
{
name = openTypeOS2VendorID;
value = OMNI;
},
{
name = fsType;
value = (
);
},
{
name = "Family Alignment Zones";
value = (
"{686, 12}",
"{511, 12}",
"{0, -12}",
);
}
);
date = "2015-01-30 21:29:31 +0000";
designer = "Hector Gatti";
designerURL = "http://www.omnibus-type.com";
familyName = "Chivo";
featurePrefixes = (
{
automatic = 1;
code = "languagesystem DFLT dflt;\012languagesystem latn dflt;\012languagesystem grek dflt;\012";
name = Languagesystems;
}
);
features = (
{
automatic = 1;
code = "feature frac;\012feature ordn;\012feature sups;";
name = aalt;
},
{
automatic = 1;
code = "sub one by onesuperior;\012sub two by twosuperior;\012sub three by threesuperior;";
name = sups;
},
{
automatic = 1;
code = "sub one slash four by onequarter;\012sub one slash two by onehalf;\012sub three slash four by threequarters;";
name = frac;
},
{

glyphs = (
{
glyphname = A;
lastChange = "2014-09-05 18:58:58 +0000";
layers = (
{
anchors = (
{
name = ogonek;
position = "{627, 10}";
},
{
name = top;
position = "{326, 686}";
}
);
background = {
anchors = (
{
name = ogonek;
position = "{587, 10}";
},
{
name = top;
position = "{326, 686}";
}
);
paths = (
{
closed = 1;
nodes = (
"272 686 LINE",
"4 0 LINE",
"99 0 LINE",
"156 149 LINE",
"484 149 LINE",
"542 0 LINE",
"648 0 LINE",
"380 686 LINE"
);
},
{
closed = 1;
nodes = (
"450 238 LINE",
"191 238 LINE",
"318 568 LINE",
"324 568 LINE"
);
}
);
};
layerId = UUID0;
name = Regular;
paths = (
{
closed = 1;
nodes = (
"272 686 LINE",
"4 0 LINE",
"99 0 LINE",
"156 149 LINE",
"484 149 LINE",
"542 0 LINE",
"648 0 LINE",
"380 686 LINE"
);
},
{
closed = 1;
nodes = (
"450 238 LINE",
"191 238 LINE",
"318 568 LINE",
"324 568 LINE"
);
}
);
width = 652;
}
);
leftKerningGroup = A;
rightKerningGroup = A;
unicode = 0041;
},
{
glyphname = Aacute;
lastChange = "2014-09-05 18:36:08 +0000";
layers = (
{
background = {
paths = (
{
closed = 1;
nodes = (
"272 686 LINE",
"4 0 LINE",
"99 0 LINE",
"156 149 LINE",
"484 149 LINE",
"542 0 LINE",
"648 0 LINE",
"380 686 LINE"
);
},
{
closed = 1;
nodes = (
"450 238 LINE",
"191 238 LINE",
"318 568 LINE",
"324 568 LINE"
);
},
{
closed = 1;
nodes = (
"386 895 LINE",
"292 750 LINE",
"361 750 LINE",
"477 892 LINE",
"476 895 LINE"
);
}
);
};
layerId = UUID0;
name = Regular;
paths = (
{
closed = 1;
nodes = (
"272 686 LINE",
"4 0 LINE",
"99 0 LINE",
"156 149 LINE",
"484 149 LINE",
"542 0 LINE",
"648 0 LINE",
"380 686 LINE"
);
},
{
closed = 1;
nodes = (
"450 238 LINE",
"191 238 LINE",
"318 568 LINE",
"324 568 LINE"
);
},
{
closed = 1;
nodes = (
"386 895 LINE",
"292 750 LINE",
"361 750 LINE",
"477 892 LINE",
"476 895 LINE"
);
}
);
width = 652;
}
);
leftKerningGroup = A;
rightKerningGroup = A;
unicode = 00C1;
},
{
glyphname = Acircumflex;
lastChange = "2014-09-05 18:36:08 +0000";
layers = (
{
background = {
paths = (
{
closed = 1;
nodes = (
"272 686 LINE",
"4 0 LINE",
"99 0 LINE",
"156 149 LINE",
"484 149 LINE",
"542 0 LINE",
"648 0 LINE",
"380 686 LINE"
);
},
{
closed = 1;
nodes = (
"450 238 LINE",
"191 238 LINE",
"318 568 LINE",
"324 568 LINE"
);
},
{
closed = 1;
nodes = (
"285 895 LINE",
"149 750 LINE",
"229 750 LINE",
"324 839 LINE",
"418 750 LINE",
"498 750 LINE",
"363 895 LINE"
);
}
);
};
layerId = UUID0;
name = Regular;
paths = (
{
closed = 1;
nodes = (
"272 686 LINE",
"4 0 LINE",
"99 0 LINE",
"156 149 LINE",
"484 149 LINE",
"542 0 LINE",
"648 0 LINE",
"380 686 LINE"
);
},
{
closed = 1;
nodes = (
"450 238 LINE",
"191 238 LINE",
"318 568 LINE",
"324 568 LINE"
);
},
{
closed = 1;
nodes = (
"285 895 LINE",
"149 750 LINE",
"229 750 LINE",
"324 839 LINE",
"418 750 LINE",
"498 750 LINE",
"363 895 LINE"
);
}
);
width = 652;
}
);
leftKerningGroup = A;
rightKerningGroup = A;
unicode = 00C2;
},
{
glyphname = Adieresis;
lastChange = "2014-09-05 18:36:08 +0000";
layers = (
{
background = {
paths = (
{
closed = 1;
nodes = (
"272 686 LINE",
"4 0 LINE",
"99 0 LINE",
"156 149 LINE",
"484 149 LINE",
"542 0 LINE",
"648 0 LINE",
"380 686 LINE"
);
},
{
closed = 1;
nodes = (
"450 238 LINE",
"191 238 LINE",
"318 568 LINE",
"324 568 LINE"
);
},
{
closed = 1;
nodes = (
"184 847 LINE",
"184 749 LINE",
"274 749 LINE",
"274 847 LINE"
);
},
{
closed = 1;
nodes = (
"372 847 LINE",
"372 749 LINE",
"463 749 LINE",
"463 847 LINE"
);
}
);
};
layerId = UUID0;
name = Regular;
paths = (
{
closed = 1;
nodes = (
"272 686 LINE",
"4 0 LINE",
"99 0 LINE",
"156 149 LINE",
"484 149 LINE",
"542 0 LINE",
"648 0 LINE",
"380 686 LINE"
);
},
{
closed = 1;
nodes = (
"450 238 LINE",
"191 238 LINE",
"318 568 LINE",
"324 568 LINE"
);
},
{
closed = 1;
nodes = (
"184 847 LINE",
"184 749 LINE",
"274 749 LINE",
"274 847 LINE"
);
},
{
closed = 1;
nodes = (
"372 847 LINE",
"372 749 LINE",
"463 749 LINE",
"463 847 LINE"
);
}
);
width = 652;
}
);
leftKerningGroup = A;
rightKerningGroup = A;
unicode = 00C4;
},
{
glyphname = Agrave;
lastChange = "2014-09-05 18:36:08 +0000";
layers = (
{
background = {
paths = (
{
closed = 1;
nodes = (
"272 686 LINE",
"4 0 LINE",
"99 0 LINE",
"156 149 LINE",
"484 149 LINE",
"542 0 LINE",
"648 0 LINE",
"380 686 LINE"
);
},
{
closed = 1;
nodes = (
"450 238 LINE",
"191 238 LINE",
"318 568 LINE",
"324 568 LINE"
);
},
{
closed = 1;
nodes = (
"176 895 LINE",
"175 892 LINE",
"290 750 LINE",
"360 750 LINE",
"265 895 LINE"
);
}
);
};
layerId = UUID0;
name = Regular;
paths = (
{
closed = 1;
nodes = (
"272 686 LINE",
"4 0 LINE",
"99 0 LINE",
"156 149 LINE",
"484 149 LINE",
"542 0 LINE",
"648 0 LINE",
"380 686 LINE"
);
},
{
closed = 1;
nodes = (
"450 238 LINE",
"191 238 LINE",
"318 568 LINE",
"324 568 LINE"
);
},
{
closed = 1;
nodes = (
"176 895 LINE",
"175 892 LINE",
"290 750 LINE",
"360 750 LINE",
"265 895 LINE"
);
}
);
width = 652;
}
);
leftKerningGroup = A;
rightKerningGroup = A;
unicode = 00C0;
},
{
glyphname = Aring;
lastChange = "2014-09-05 18:36:08 +0000";
layers = (
{
background = {
paths = (
{
closed = 1;
nodes = (
"272 686 LINE",
"4 0 LINE",
"99 0 LINE",
"156 149 LINE",
"484 149 LINE",
"542 0 LINE",
"648 0 LINE",
"380 686 LINE"
);
},
{
closed = 1;
nodes = (
"450 238 LINE",
"191 238 LINE",
"318 568 LINE",
"324 568 LINE"
);
},
{
closed = 1;
nodes = (
"270 926 OFFCURVE",
"225 881 OFFCURVE",
"225 825 CURVE SMOOTH",
"225 768 OFFCURVE",
"273 725 OFFCURVE",
"326 725 CURVE SMOOTH",
"382 725 OFFCURVE",
"427 770 OFFCURVE",
"427 825 CURVE SMOOTH",
"427 883 OFFCURVE",
"376 926 OFFCURVE",
"326 926 CURVE SMOOTH"
);
},
{
closed = 1;
nodes = (
"357 879 OFFCURVE",
"382 855 OFFCURVE",
"382 826 CURVE SMOOTH",
"382 795 OFFCURVE",
"357 772 OFFCURVE",
"326 772 CURVE SMOOTH",
"295 772 OFFCURVE",
"270 794 OFFCURVE",
"270 825 CURVE SMOOTH",
"270 856 OFFCURVE",
"295 879 OFFCURVE",
"326 879 CURVE SMOOTH"
);
}
);
};
layerId = UUID0;
name = Regular;
paths = (
{
closed = 1;
nodes = (
"272 686 LINE",
"4 0 LINE",
"99 0 LINE",
"156 149 LINE",
"484 149 LINE",
"542 0 LINE",
"648 0 LINE",
"380 686 LINE"
);
},
{
closed = 1;
nodes = (
"450 238 LINE",
"191 238 LINE",
"318 568 LINE",
"324 568 LINE"
);
},
{
closed = 1;
nodes = (
"270 926 OFFCURVE",
"225 881 OFFCURVE",
"225 825 CURVE SMOOTH",
"225 768 OFFCURVE",
"273 725 OFFCURVE",
"326 725 CURVE SMOOTH",
"382 725 OFFCURVE",
"427 770 OFFCURVE",
"427 825 CURVE SMOOTH",
"427 883 OFFCURVE",
"376 926 OFFCURVE",
"326 926 CURVE SMOOTH"
);
},
{
closed = 1;
nodes = (
"357 879 OFFCURVE",
"382 855 OFFCURVE",
"382 826 CURVE SMOOTH",
"382 795 OFFCURVE",
"357 772 OFFCURVE",
"326 772 CURVE SMOOTH",
"295 772 OFFCURVE",
"270 794 OFFCURVE",
"270 825 CURVE SMOOTH",
"270 856 OFFCURVE",
"295 879 OFFCURVE",
"326 879 CURVE SMOOTH"
);
}
);
width = 652;
}
);
leftKerningGroup = A;
rightKerningGroup = A;
unicode = 00C5;
},
{
glyphname = Atilde;
lastChange = "2014-09-05 18:36:08 +0000";
layers = (
{
background = {
paths = (
{
closed = 1;
nodes = (
"272 686 LINE",
"4 0 LINE",
"99 0 LINE",
"156 149 LINE",
"484 149 LINE",
"542 0 LINE",
"648 0 LINE",
"380 686 LINE"
);
},
{
closed = 1;
nodes = (
"450 238 LINE",
"191 238 LINE",
"318 568 LINE",
"324 568 LINE"
);
},
{
closed = 1;
nodes = (
"467 854 LINE",
"460 831 OFFCURVE",
"441 819 OFFCURVE",
"412 819 CURVE SMOOTH",
"395 819 OFFCURVE",
"369 825 OFFCURVE",
"332 836 CURVE SMOOTH",
"304 845 OFFCURVE",
"277 854 OFFCURVE",
"242 854 CURVE SMOOTH",
"170 854 OFFCURVE",
"131 802 OFFCURVE",
"131 750 CURVE",
"181 750 LINE",
"188 773 OFFCURVE",
"206 784 OFFCURVE",
"236 784 CURVE SMOOTH",
"265 784 OFFCURVE",
"280 777 OFFCURVE",
"335 761 CURVE SMOOTH",
"361 753 OFFCURVE",
"385 750 OFFCURVE",
"405 750 CURVE SMOOTH",
"472 750 OFFCURVE",
"517 795 OFFCURVE",
"517 854 CURVE"
);
}
);
};
layerId = UUID0;
name = Regular;
paths = (
{
closed = 1;
nodes = (
"272 686 LINE",
"4 0 LINE",
"99 0 LINE",
"156 149 LINE",
"484 149 LINE",
"542 0 LINE",
"648 0 LINE",
"380 686 LINE"
);
},
{
closed = 1;
nodes = (
"450 238 LINE",
"191 238 LINE",
"318 568 LINE",
"324 568 LINE"
);
},
{
closed = 1;
nodes = (
"467 854 LINE",
"460 831 OFFCURVE",
"441 819 OFFCURVE",
"412 819 CURVE SMOOTH",
"395 819 OFFCURVE",
"369 825 OFFCURVE",
"332 836 CURVE SMOOTH",
"304 845 OFFCURVE",
"277 854 OFFCURVE",
"242 854 CURVE SMOOTH",
"170 854 OFFCURVE",
"131 802 OFFCURVE",
"131 750 CURVE",
"181 750 LINE",
"188 773 OFFCURVE",
"206 784 OFFCURVE",
"236 784 CURVE SMOOTH",
"265 784 OFFCURVE",
"280 777 OFFCURVE",
"335 761 CURVE SMOOTH",
"361 753 OFFCURVE",
"385 750 OFFCURVE",
"405 750 CURVE SMOOTH",
"472 750 OFFCURVE",
"517 795 OFFCURVE",
"517 854 CURVE"
);
}
);
width = 652;
}
);
leftKerningGroup = A;
rightKerningGroup = A;
unicode = 00C3;
},
{
glyphname = AE;
lastChange = "2014-09-05 18:36:08 +0000";
layers = (
{
anchors = (
{
name = top;
position = "{492, 686}";
}
);
background = {
anchors = (
{
name = top;
position = "{492, 686}";
}
);
paths = (
{
closed = 1;
nodes = (
"371 686 LINE",
"7 0 LINE",
"101 0 LINE",
"179 149 LINE",
"507 149 LINE",
"544 0 LINE",
"939 0 LINE",
"925 89 LINE",
"627 89 LINE",
"573 306 LINE",
"887 306 LINE",
"887 395 LINE",
"551 395 LINE",
"501 597 LINE",
"919 597 LINE",
"932 686 LINE"
);
},
{
closed = 1;
nodes = (
"486 238 LINE",
"227 238 LINE",
"400 568 LINE",
"406 568 LINE"
);
}
);
};
layerId = UUID0;
name = Regular;
paths = (
{
closed = 1;
nodes = (
"371 686 LINE",
"7 0 LINE",
"101 0 LINE",
"179 149 LINE",
"507 149 LINE",
"544 0 LINE",
"939 0 LINE",
"925 89 LINE",
"627 89 LINE",
"573 306 LINE",
"887 306 LINE",
"887 395 LINE",
"551 395 LINE",
"501 597 LINE",
"919 597 LINE",
"932 686 LINE"
);
},
{
closed = 1;
nodes = (
"486 238 LINE",
"227 238 LINE",
"400 568 LINE",
"406 568 LINE"
);
}
);
width = 983;
}
);
rightKerningGroup = E;
unicode = 00C6;
},
{
glyphname = B;
lastChange = "2014-09-05 18:36:08 +0000";
layers = (
{
background = {
paths = (
{
closed = 1;
nodes = (
"92 686 LINE",
"92 0 LINE",
"402 0 LINE SMOOTH",
"499 0 OFFCURVE",
"592 73 OFFCURVE",
"592 187 CURVE SMOOTH",
"592 283 OFFCURVE",
"531 341 OFFCURVE",
"456 353 CURVE",
"456 358 LINE",
"538 381 OFFCURVE",
"576 439 OFFCURVE",
"576 518 CURVE SMOOTH",
"576 612 OFFCURVE",
"495 686 OFFCURVE",
"396 686 CURVE SMOOTH"
);
},
{
closed = 1;
nodes = (
"446 305 OFFCURVE",
"494 257 OFFCURVE",
"494 197 CURVE SMOOTH",
"494 137 OFFCURVE",
"446 89 OFFCURVE",
"386 89 CURVE SMOOTH",
"190 89 LINE",
"190 305 LINE",
"386 305 LINE SMOOTH"
);
},
{
closed = 1;
nodes = (
"432 597 OFFCURVE",
"478 551 OFFCURVE",
"478 495 CURVE SMOOTH",
"478 436 OFFCURVE",
"427 394 OFFCURVE",
"376 394 CURVE SMOOTH",
"190 394 LINE",
"190 597 LINE",
"376 597 LINE SMOOTH"
);
}
);
};
layerId = UUID0;
name = Regular;
paths = (
{
closed = 1;
nodes = (
"92 686 LINE",
"92 0 LINE",
"402 0 LINE SMOOTH",
"499 0 OFFCURVE",
"592 73 OFFCURVE",
"592 187 CURVE SMOOTH",
"592 283 OFFCURVE",
"531 341 OFFCURVE",
"456 353 CURVE",
"456 358 LINE",
"538 381 OFFCURVE",
"576 439 OFFCURVE",
"576 518 CURVE SMOOTH",
"576 612 OFFCURVE",
"495 686 OFFCURVE",
"396 686 CURVE SMOOTH"
);
},
{
closed = 1;
nodes = (
"446 305 OFFCURVE",
"494 257 OFFCURVE",
"494 197 CURVE SMOOTH",
"494 137 OFFCURVE",
"446 89 OFFCURVE",
"386 89 CURVE SMOOTH",
"190 89 LINE",
"190 305 LINE",
"386 305 LINE SMOOTH"
);
},
{
closed = 1;
nodes = (
"432 597 OFFCURVE",
"478 551 OFFCURVE",
"478 495 CURVE SMOOTH",
"478 436 OFFCURVE",
"427 394 OFFCURVE",
"376 394 CURVE SMOOTH",
"190 394 LINE",
"190 597 LINE",
"376 597 LINE SMOOTH"
);
}
);
width = 651;
}
);
leftKerningGroup = B;
unicode = 0042;
},
{
glyphname = C;
lastChange = "2014-09-05 18:36:08 +0000";
layers = (
{
anchors = (
{
name = bottom;
position = "{332, 0}";
},
{
name = top;
position = "{332, 686}";
}
);
background = {
anchors = (
{
name = top;
position = "{332, 686}";
},
{
name = bottom;
position = "{332, 0}";
}
);
paths = (
{
closed = 1;
nodes = (
"167 696 OFFCURVE",
"62 580 OFFCURVE",
"62 388 CURVE SMOOTH",
"62 298 LINE SMOOTH",
"62 104 OFFCURVE",
"167 -10 OFFCURVE",
"344 -10 CURVE SMOOTH",
"506 -10 OFFCURVE",
"609 94 OFFCURVE",
"609 261 CURVE",
"515 261 LINE",
"515 148 OFFCURVE",
"456 79 OFFCURVE",
"342 79 CURVE SMOOTH",
"222 79 OFFCURVE",
"160 156 OFFCURVE",
"160 298 CURVE SMOOTH",
"160 388 LINE SMOOTH",
"160 532 OFFCURVE",
"225 607 OFFCURVE",
"344 607 CURVE SMOOTH",
"453 607 OFFCURVE",
"511 538 OFFCURVE",
"511 423 CURVE",
"609 423 LINE",
"609 593 OFFCURVE",
"505 696 OFFCURVE",
"344 696 CURVE SMOOTH"
);
}
);
};
layerId = UUID0;
name = Regular;
paths = (
{
closed = 1;
nodes = (
"167 696 OFFCURVE",
"62 580 OFFCURVE",
"62 388 CURVE SMOOTH",
"62 298 LINE SMOOTH",
"62 104 OFFCURVE",
"167 -10 OFFCURVE",
"344 -10 CURVE SMOOTH",
"506 -10 OFFCURVE",
"609 94 OFFCURVE",
"609 261 CURVE",
"515 261 LINE",
"515 148 OFFCURVE",
"456 79 OFFCURVE",
"342 79 CURVE SMOOTH",
"222 79 OFFCURVE",
"160 156 OFFCURVE",
"160 298 CURVE SMOOTH",
"160 388 LINE SMOOTH",
"160 532 OFFCURVE",
"225 607 OFFCURVE",
"344 607 CURVE SMOOTH",
"453 607 OFFCURVE",
"511 538 OFFCURVE",
"511 423 CURVE",
"609 423 LINE",
"609 593 OFFCURVE",
"505 696 OFFCURVE",
"344 696 CURVE SMOOTH"
);
}
);
width = 663;
}
);
leftKerningGroup = C;
unicode = 0043;
},
{
glyphname = Ccedilla;
lastChange = "2014-09-05 18:36:08 +0000";
layers = (
{
background = {
paths = (
{
closed = 1;
nodes = (
"167 696 OFFCURVE",
"62 580 OFFCURVE",
"62 388 CURVE SMOOTH",
"62 298 LINE SMOOTH",
"62 104 OFFCURVE",
"167 -10 OFFCURVE",
"344 -10 CURVE SMOOTH",
"506 -10 OFFCURVE",
"609 94 OFFCURVE",
"609 261 CURVE",
"515 261 LINE",
"515 148 OFFCURVE",
"456 79 OFFCURVE",
"342 79 CURVE SMOOTH",
"222 79 OFFCURVE",
"160 156 OFFCURVE",
"160 298 CURVE SMOOTH",
"160 388 LINE SMOOTH",
"160 532 OFFCURVE",
"225 607 OFFCURVE",
"344 607 CURVE SMOOTH",
"453 607 OFFCURVE",
"511 538 OFFCURVE",
"511 423 CURVE",
"609 423 LINE",
"609 593 OFFCURVE",
"505 696 OFFCURVE",
"344 696 CURVE SMOOTH"
);
},
{
closed = 1;
nodes = (
"314 -17 LINE",
"314 -60 LINE",
"335 -60 LINE SMOOTH",
"363 -60 OFFCURVE",
"387 -74 OFFCURVE",
"387 -101 CURVE SMOOTH",
"387 -131 OFFCURVE",
"365 -146 OFFCURVE",
"320 -146 CURVE SMOOTH",
"299 -146 OFFCURVE",
"275 -139 OFFCURVE",
"248 -126 CURVE",
"239 -175 LINE",
"266 -190 OFFCURVE",
"301 -197 OFFCURVE",
"344 -197 CURVE SMOOTH",
"396 -197 OFFCURVE",
"449 -164 OFFCURVE",
"449 -106 CURVE SMOOTH",
"449 -47 OFFCURVE",
"412 -17 OFFCURVE",
"338 -17 CURVE SMOOTH"
);
}
);
};
layerId = UUID0;
name = Regular;
paths = (
{
closed = 1;
nodes = (
"167 696 OFFCURVE",
"62 580 OFFCURVE",
"62 388 CURVE SMOOTH",
"62 298 LINE SMOOTH",
"62 104 OFFCURVE",
"167 -10 OFFCURVE",
"344 -10 CURVE SMOOTH",
"506 -10 OFFCURVE",
"609 94 OFFCURVE",
"609 261 CURVE",
"515 261 LINE",
"515 148 OFFCURVE",
"456 79 OFFCURVE",
"342 79 CURVE SMOOTH",
"222 79 OFFCURVE",
"160 156 OFFCURVE",
"160 298 CURVE SMOOTH",
"160 388 LINE SMOOTH",
"160 532 OFFCURVE",
"225 607 OFFCURVE",
"344 607 CURVE SMOOTH",
"453 607 OFFCURVE",
"511 538 OFFCURVE",
"511 423 CURVE",
"609 423 LINE",
"609 593 OFFCURVE",
"505 696 OFFCURVE",
"344 696 CURVE SMOOTH"
);
},
{
closed = 1;
nodes = (
"314 -17 LINE",
"314 -60 LINE",
"335 -60 LINE SMOOTH",
"363 -60 OFFCURVE",
"387 -74 OFFCURVE",
"387 -101 CURVE SMOOTH",
"387 -131 OFFCURVE",
"365 -146 OFFCURVE",
"320 -146 CURVE SMOOTH",
"299 -146 OFFCURVE",
"275 -139 OFFCURVE",
"248 -126 CURVE",
"239 -175 LINE",
"266 -190 OFFCURVE",
"301 -197 OFFCURVE",
"344 -197 CURVE SMOOTH",
"396 -197 OFFCURVE",
"449 -164 OFFCURVE",
"449 -106 CURVE SMOOTH",
"449 -47 OFFCURVE",
"412 -17 OFFCURVE",
"338 -17 CURVE SMOOTH"
);
}
);
width = 663;
}
);
leftKerningGroup = C;
unicode = 00C7;
},
{
glyphname = D;
lastChange = "2014-09-05 18:36:08 +0000";
layers = (
{
anchors = (
{
name = center;
position = "{338, 343}";
},
{
name = top;
position = "{338, 686}";
}
);
background = {
anchors = (
{
name = center;
position = "{338, 343}";
},
{
name = top;
position = "{338, 686}";
}
);
paths = (
{
closed = 1;
nodes = (
"92 686 LINE",
"92 0 LINE",
"330 0 LINE SMOOTH",
"503 0 OFFCURVE",
"614 119 OFFCURVE",
"614 308 CURVE SMOOTH",
"614 378 LINE SMOOTH",
"614 567 OFFCURVE",
"503 686 OFFCURVE",
"330 686 CURVE SMOOTH"
);
},
{
closed = 1;
nodes = (
"452 597 OFFCURVE",
"516 519 OFFCURVE",
"516 378 CURVE SMOOTH",
"516 308 LINE SMOOTH",
"516 162 OFFCURVE",
"447 89 OFFCURVE",
"330 89 CURVE SMOOTH",
"190 89 LINE",
"190 597 LINE",
"330 597 LINE SMOOTH"
);
}
);
};
layerId = UUID0;
name = Regular;
paths = (
{
closed = 1;
nodes = (
"92 686 LINE",
"92 0 LINE",
"330 0 LINE SMOOTH",
"503 0 OFFCURVE",
"614 119 OFFCURVE",
"614 308 CURVE SMOOTH",
"614 378 LINE SMOOTH",
"614 567 OFFCURVE",
"503 686 OFFCURVE",
"330 686 CURVE SMOOTH"
);
},
{
closed = 1;
nodes = (
"452 597 OFFCURVE",
"516 519 OFFCURVE",
"516 378 CURVE SMOOTH",
"516 308 LINE SMOOTH",
"516 162 OFFCURVE",
"447 89 OFFCURVE",
"330 89 CURVE SMOOTH",
"190 89 LINE",
"190 597 LINE",
"330 597 LINE SMOOTH"
);
}
);
width = 675;
}
);
leftKerningGroup = B;
rightKerningGroup = D;
unicode = 0044;
},
{
glyphname = Eth;
lastChange = "2014-09-05 18:36:08 +0000";
layers = (
{
background = {
paths = (
{
closed = 1;
nodes = (
"98 686 LINE",
"98 375 LINE",
"5 375 LINE",
"5 310 LINE",
"98 310 LINE",
"98 0 LINE",
"336 0 LINE SMOOTH",
"509 0 OFFCURVE",
"620 119 OFFCURVE",
"620 308 CURVE SMOOTH",
"620 378 LINE SMOOTH",
"620 567 OFFCURVE",
"509 686 OFFCURVE",
"336 686 CURVE SMOOTH"
);
},
{
closed = 1;
nodes = (
"458 597 OFFCURVE",
"522 519 OFFCURVE",
"522 378 CURVE SMOOTH",
"522 308 LINE SMOOTH",
"522 162 OFFCURVE",
"453 89 OFFCURVE",
"336 89 CURVE SMOOTH",
"196 89 LINE",
"196 310 LINE",
"341 310 LINE",
"341 375 LINE",
"196 375 LINE",
"196 597 LINE",
"336 597 LINE SMOOTH"
);
}
);
};
layerId = UUID0;
name = Regular;
paths = (
{
closed = 1;
nodes = (
"98 686 LINE",
"98 375 LINE",
"5 375 LINE",
"5 310 LINE",
"98 310 LINE",
"98 0 LINE",
"336 0 LINE SMOOTH",
"509 0 OFFCURVE",
"620 119 OFFCURVE",
"620 308 CURVE SMOOTH",
"620 378 LINE SMOOTH",
"620 567 OFFCURVE",
"509 686 OFFCURVE",
"336 686 CURVE SMOOTH"
);
},
{
closed = 1;
nodes = (
"458 597 OFFCURVE",
"522 519 OFFCURVE",
"522 378 CURVE SMOOTH",
"522 308 LINE SMOOTH",
"522 162 OFFCURVE",
"453 89 OFFCURVE",
"336 89 CURVE SMOOTH",
"196 89 LINE",
"196 310 LINE",
"341 310 LINE",
"341 375 LINE",
"196 375 LINE",
"196 597 LINE",
"336 597 LINE SMOOTH"
);
}
);
width = 681;
}
);
leftKerningGroup = B;
rightKerningGroup = D;
unicode = 00D0;
},
{
glyphname = E;
lastChange = "2014-09-05 18:59:09 +0000";
layers = (
{
anchors = (
{
name = bottom;
position = "{297, 0}";
},
{
name = ogonek;
position = "{524, 10}";
},
{
name = top;
position = "{297, 686}";
}
);
background = {
anchors = (
{
name = ogonek;
position = "{534, 10}";
},
{
name = bottom;
position = "{297, 0}";
},
{
name = top;
position = "{297, 686}";
}
);
paths = (
{
closed = 1;
nodes = (
"92 686 LINE",
"92 0 LINE",
"549 0 LINE",
"535 89 LINE",
"190 89 LINE",
"190 306 LINE",
"497 306 LINE",
"497 395 LINE",
"190 395 LINE",
"190 597 LINE",
"529 597 LINE",
"542 686 LINE"
);
}
);
};
layerId = UUID0;
name = Regular;
paths = (
{
closed = 1;
nodes = (
"92 686 LINE",
"92 0 LINE",
"549 0 LINE",
"535 89 LINE",
"190 89 LINE",
"190 306 LINE",
"497 306 LINE",
"497 395 LINE",
"190 395 LINE",
"190 597 LINE",
"529 597 LINE",
"542 686 LINE"
);
}
);
width = 593;
}
);
leftKerningGroup = B;
rightKerningGroup = E;
unicode = 0045;
},
{
glyphname = Eacute;
lastChange = "2014-09-05 18:36:08 +0000";
layers = (
{
background = {
paths = (
{
closed = 1;
nodes = (
"92 686 LINE",
"92 0 LINE",
"549 0 LINE",
"535 89 LINE",
"190 89 LINE",
"190 306 LINE",
"497 306 LINE",
"497 395 LINE",
"190 395 LINE",
"190 597 LINE",
"529 597 LINE",
"542 686 LINE"
);
},
{
closed = 1;
nodes = (
"378 895 LINE",
"284 750 LINE",
"353 750 LINE",
"469 892 LINE",
"468 895 LINE"
);
}
);
};
layerId = UUID0;
name = Regular;
paths = (
{
closed = 1;
nodes = (
"92 686 LINE",
"92 0 LINE",
"549 0 LINE",
"535 89 LINE",
"190 89 LINE",
"190 306 LINE",
"497 306 LINE",
"497 395 LINE",
"190 395 LINE",
"190 597 LINE",
"529 597 LINE",
"542 686 LINE"
);
},
{
closed = 1;
nodes = (
"378 895 LINE",
"284 750 LINE",
"353 750 LINE",
"469 892 LINE",
"468 895 LINE"
);
}
);
width = 593;
}
);
leftKerningGroup = B;
rightKerningGroup = E;
unicode = 00C9;
},
{
glyphname = Ecircumflex;
lastChange = "2014-09-05 18:36:08 +0000";
layers = (
{
background = {
paths = (
{
closed = 1;
nodes = (
"92 686 LINE",
"92 0 LINE",
"549 0 LINE",
"535 89 LINE",
"190 89 LINE",
"190 306 LINE",
"497 306 LINE",
"497 395 LINE",
"190 395 LINE",
"190 597 LINE",
"529 597 LINE",
"542 686 LINE"
);
},
{
closed = 1;
nodes = (
"276 895 LINE",
"140 750 LINE",
"220 750 LINE",
"315 839 LINE",
"409 750 LINE",
"489 750 LINE",
"354 895 LINE"
);
}
);
};
layerId = UUID0;
name = Regular;
paths = (
{
closed = 1;
nodes = (
"92 686 LINE",
"92 0 LINE",
"549 0 LINE",
"535 89 LINE",
"190 89 LINE",
"190 306 LINE",
"497 306 LINE",
"497 395 LINE",
"190 395 LINE",
"190 597 LINE",
"529 597 LINE",
"542 686 LINE"
);
},
{
closed = 1;
nodes = (
"276 895 LINE",
"140 750 LINE",
"220 750 LINE",
"315 839 LINE",
"409 750 LINE",
"489 750 LINE",
"354 895 LINE"
);
}
);
width = 593;
}
);
leftKerningGroup = B;
rightKerningGroup = E;
unicode = 00CA;
},
{
glyphname = Edieresis;
lastChange = "2014-09-05 18:36:08 +0000";
layers = (
{
background = {
paths = (
{
closed = 1;
nodes = (
"92 686 LINE",
"92 0 LINE",
"549 0 LINE",
"535 89 LINE",
"190 89 LINE",
"190 306 LINE",
"497 306 LINE",
"497 395 LINE",
"190 395 LINE",
"190 597 LINE",
"529 597 LINE",
"542 686 LINE"
);
},
{
closed = 1;
nodes = (
"178 848 LINE",
"178 750 LINE",
"268 750 LINE",
"268 848 LINE"
);
},
{
closed = 1;
nodes = (
"366 848 LINE",
"366 750 LINE",
"457 750 LINE",
"457 848 LINE"
);
}
);
};
layerId = UUID0;
name = Regular;
paths = (
{
closed = 1;
nodes = (
"92 686 LINE",
"92 0 LINE",
"549 0 LINE",
"535 89 LINE",
"190 89 LINE",
"190 306 LINE",
"497 306 LINE",
"497 395 LINE",
"190 395 LINE",
"190 597 LINE",
"529 597 LINE",
"542 686 LINE"
);
},
{
closed = 1;
nodes = (
"178 848 LINE",
"178 750 LINE",
"268 750 LINE",
"268 848 LINE"
);
},
{
closed = 1;
nodes = (
"366 848 LINE",
"366 750 LINE",
"457 750 LINE",
"457 848 LINE"
);
}
);
width = 593;
}
);
leftKerningGroup = B;
rightKerningGroup = E;
unicode = 00CB;
},
{
glyphname = Egrave;
lastChange = "2014-09-05 18:36:08 +0000";
layers = (
{
background = {
paths = (
{
closed = 1;
nodes = (
"92 686 LINE",
"92 0 LINE",
"549 0 LINE",
"535 89 LINE",
"190 89 LINE",
"190 306 LINE",
"497 306 LINE",
"497 395 LINE",
"190 395 LINE",
"190 597 LINE",
"529 597 LINE",
"542 686 LINE"
);
},
{
closed = 1;
nodes = (
"181 895 LINE",
"180 892 LINE",
"295 750 LINE",
"365 750 LINE",
"270 895 LINE"
);
}
);
};
layerId = UUID0;
name = Regular;
paths = (
{
closed = 1;
nodes = (
"92 686 LINE",
"92 0 LINE",
"549 0 LINE",
"535 89 LINE",
"190 89 LINE",
"190 306 LINE",
"497 306 LINE",
"497 395 LINE",
"190 395 LINE",
"190 597 LINE",
"529 597 LINE",
"542 686 LINE"
);
},
{
closed = 1;
nodes = (
"181 895 LINE",
"180 892 LINE",
"295 750 LINE",
"365 750 LINE",
"270 895 LINE"
);
}
);
width = 593;
}
);
leftKerningGroup = B;
rightKerningGroup = E;
unicode = 00C8;
},
{
glyphname = F;
lastChange = "2014-09-05 18:36:08 +0000";
layers = (
{
background = {
paths = (
{
closed = 1;
nodes = (
"92 686 LINE",
"92 0 LINE",
"190 0 LINE",
"190 299 LINE",
"470 299 LINE",
"470 388 LINE",
"190 388 LINE",
"190 597 LINE",
"511 597 LINE",
"524 686 LINE"
);
}
);
};
layerId = UUID0;
name = Regular;
paths = (
{
closed = 1;
nodes = (
"92 686 LINE",
"92 0 LINE",
"190 0 LINE",
"190 299 LINE",
"470 299 LINE",
"470 388 LINE",
"190 388 LINE",
"190 597 LINE",
"511 597 LINE",
"524 686 LINE"
);
}
);
width = 550;
}
);
leftKerningGroup = B;
unicode = 0046;
},
{
glyphname = G;
lastChange = "2014-09-05 18:36:08 +0000";
layers = (
{
anchors = (
{
name = bottom;
position = "{339, 0}";
},
{
name = top;
position = "{339, 686}";
}
);
background = {
anchors = (
{
name = top;
position = "{339, 686}";
},
{
name = bottom;
position = "{339, 0}";
}
);
paths = (
{
closed = 1;
nodes = (
"167 696 OFFCURVE",
"62 580 OFFCURVE",
"62 388 CURVE SMOOTH",
"62 298 LINE SMOOTH",
"62 104 OFFCURVE",
"167 -10 OFFCURVE",
"344 -10 CURVE SMOOTH",
"429 -10 OFFCURVE",
"492 21 OFFCURVE",
"535 82 CURVE",
"540 52 OFFCURVE",
"547 25 OFFCURVE",
"555 0 CURVE",
"613 0 LINE",
"609 30 OFFCURVE",
"607 73 OFFCURVE",
"607 128 CURVE SMOOTH",
"607 362 LINE",
"317 362 LINE",
"317 274 LINE",
"511 274 LINE",
"511 261 LINE SMOOTH",
"511 133 OFFCURVE",
"459 79 OFFCURVE",
"344 79 CURVE SMOOTH",
"222 79 OFFCURVE",
"160 155 OFFCURVE",
"160 298 CURVE SMOOTH",
"160 388 LINE SMOOTH",
"160 532 OFFCURVE",
"225 607 OFFCURVE",
"344 607 CURVE SMOOTH",
"452 607 OFFCURVE",
"509 547 OFFCURVE",
"509 445 CURVE",
"607 445 LINE",
"607 596 OFFCURVE",
"505 696 OFFCURVE",
"344 696 CURVE SMOOTH"
);
}
);
};
layerId = UUID0;
name = Regular;
paths = (
{
closed = 1;
nodes = (
"167 696 OFFCURVE",
"62 580 OFFCURVE",
"62 388 CURVE SMOOTH",
"62 298 LINE SMOOTH",
"62 104 OFFCURVE",
"167 -10 OFFCURVE",
"344 -10 CURVE SMOOTH",
"429 -10 OFFCURVE",
"492 21 OFFCURVE",
"535 82 CURVE",
"540 52 OFFCURVE",
"547 25 OFFCURVE",
"555 0 CURVE",
"613 0 LINE",
"609 30 OFFCURVE",
"607 73 OFFCURVE",
"607 128 CURVE SMOOTH",
"607 362 LINE",
"317 362 LINE",
"317 274 LINE",
"511 274 LINE",
"511 261 LINE SMOOTH",
"511 133 OFFCURVE",
"459 79 OFFCURVE",
"344 79 CURVE SMOOTH",
"222 79 OFFCURVE",
"160 155 OFFCURVE",
"160 298 CURVE SMOOTH",
"160 388 LINE SMOOTH",
"160 532 OFFCURVE",
"225 607 OFFCURVE",
"344 607 CURVE SMOOTH",
"452 607 OFFCURVE",
"509 547 OFFCURVE",
"509 445 CURVE",
"607 445 LINE",
"607 596 OFFCURVE",
"505 696 OFFCURVE",
"344 696 CURVE SMOOTH"
);
}
);
width = 677;
}
);
leftKerningGroup = C;
unicode = 0047;
},
{
glyphname = H;
lastChange = "2014-09-05 18:36:08 +0000";
layers = (
{
anchors = (
{
name = center;
position = "{347, 343}";
},
{
name = top;
position = "{347, 686}";
}
);
background = {
anchors = (
{
name = center;
position = "{347, 343}";
},
{
name = top;
position = "{347, 686}";
}
);
paths = (
{
closed = 1;
nodes = (
"503 686 LINE",
"503 395 LINE",
"190 395 LINE",
"190 686 LINE",
"92 686 LINE",
"92 0 LINE",
"190 0 LINE",
"190 306 LINE",
"503 306 LINE",
"503 0 LINE",
"601 0 LINE",
"601 686 LINE"
);
}
);
};
layerId = UUID0;
name = Regular;
paths = (
{
closed = 1;
nodes = (
"503 686 LINE",
"503 395 LINE",
"190 395 LINE",
"190 686 LINE",
"92 686 LINE",
"92 0 LINE",
"190 0 LINE",
"190 306 LINE",
"503 306 LINE",
"503 0 LINE",
"601 0 LINE",
"601 686 LINE"
);
}
);
width = 693;
}
);
leftKerningGroup = B;
rightKerningGroup = H;
unicode = 0048;
},
{
glyphname = I;
lastChange = "2014-09-05 18:59:17 +0000";
layers = (
{
anchors = (
{
name = ogonek;
position = "{288, 10}";
},
{
name = top;
position = "{182, 686}";
}
);
background = {
anchors = (
{
name = ogonek;
position = "{328, 10}";
},
{
name = top;
position = "{182, 686}";
}
);
paths = (
{
closed = 1;
nodes = (
"53 686 LINE",
"53 597 LINE",
"133 597 LINE",
"133 89 LINE",
"53 89 LINE",
"53 0 LINE",
"311 0 LINE",
"311 89 LINE",
"231 89 LINE",
"231 597 LINE",
"311 597 LINE",
"311 686 LINE"
);
}
);
};
layerId = UUID0;
name = Regular;
paths = (
{
closed = 1;
nodes = (
"53 686 LINE",
"53 597 LINE",
"133 597 LINE",
"133 89 LINE",
"53 89 LINE",
"53 0 LINE",
"311 0 LINE",
"311 89 LINE",
"231 89 LINE",
"231 597 LINE",
"311 597 LINE",
"311 686 LINE"
);
}
);
width = 364;
}
);
leftKerningGroup = I;
rightKerningGroup = I;
unicode = 0049;
},
{
glyphname = Iacute;
lastChange = "2014-09-05 18:36:08 +0000";
layers = (
{
background = {
paths = (
{
closed = 1;
nodes = (
"53 686 LINE",
"53 597 LINE",
"133 597 LINE",
"133 89 LINE",
"53 89 LINE",
"53 0 LINE",
"311 0 LINE",
"311 89 LINE",
"231 89 LINE",
"231 597 LINE",
"311 597 LINE",
"311 686 LINE"
);
},
{
closed = 1;
nodes = (
"238 895 LINE",
"144 750 LINE",
"213 750 LINE",
"329 892 LINE",
"328 895 LINE"
);
}
);
};
layerId = UUID0;
name = Regular;
paths = (
{
closed = 1;
nodes = (
"53 686 LINE",
"53 597 LINE",
"133 597 LINE",
"133 89 LINE",
"53 89 LINE",
"53 0 LINE",
"311 0 LINE",
"311 89 LINE",
"231 89 LINE",
"231 597 LINE",
"311 597 LINE",
"311 686 LINE"
);
},
{
closed = 1;
nodes = (
"238 895 LINE",
"144 750 LINE",
"213 750 LINE",
"329 892 LINE",
"328 895 LINE"
);
}
);
width = 364;
}
);
leftKerningGroup = I;
rightKerningGroup = I;
unicode = 00CD;
},
{
glyphname = Icircumflex;
lastChange = "2014-09-05 18:36:08 +0000";
layers = (
{
background = {
paths = (
{
closed = 1;
nodes = (
"53 686 LINE",
"53 597 LINE",
"133 597 LINE",
"133 89 LINE",
"53 89 LINE",
"53 0 LINE",
"311 0 LINE",
"311 89 LINE",
"231 89 LINE",
"231 597 LINE",
"311 597 LINE",
"311 686 LINE"
);
},
{
closed = 1;
nodes = (
"144 895 LINE",
"8 750 LINE",
"88 750 LINE",
"183 839 LINE",
"277 750 LINE",
"357 750 LINE",
"222 895 LINE"
);
}
);
};
layerId = UUID0;
name = Regular;
paths = (
{
closed = 1;
nodes = (
"53 686 LINE",
"53 597 LINE",
"133 597 LINE",
"133 89 LINE",
"53 89 LINE",
"53 0 LINE",
"311 0 LINE",
"311 89 LINE",
"231 89 LINE",
"231 597 LINE",
"311 597 LINE",
"311 686 LINE"
);
},
{
closed = 1;
nodes = (
"144 895 LINE",
"8 750 LINE",
"88 750 LINE",
"183 839 LINE",
"277 750 LINE",
"357 750 LINE",
"222 895 LINE"
);
}
);
width = 364;
}
);
leftKerningGroup = I;
rightKerningGroup = I;
unicode = 00CE;
},
{
glyphname = Idieresis;
lastChange = "2014-09-05 18:36:08 +0000";
layers = (
{
background = {
paths = (
{
closed = 1;
nodes = (
"53 686 LINE",
"53 597 LINE",
"133 597 LINE",
"133 89 LINE",
"53 89 LINE",
"53 0 LINE",
"311 0 LINE",
"311 89 LINE",
"231 89 LINE",
"231 597 LINE",
"311 597 LINE",
"311 686 LINE"
);
},
{
closed = 1;
nodes = (
"43 848 LINE",
"43 750 LINE",
"133 750 LINE",
"133 848 LINE"
);
},
{
closed = 1;
nodes = (
"231 848 LINE",
"231 750 LINE",
"322 750 LINE",
"322 848 LINE"
);
}
);
};
layerId = UUID0;
name = Regular;
paths = (
{
closed = 1;
nodes = (
"53 686 LINE",
"53 597 LINE",
"133 597 LINE",
"133 89 LINE",
"53 89 LINE",
"53 0 LINE",
"311 0 LINE",
"311 89 LINE",
"231 89 LINE",
"231 597 LINE",
"311 597 LINE",
"311 686 LINE"
);
},
{
closed = 1;
nodes = (
"43 848 LINE",
"43 750 LINE",
"133 750 LINE",
"133 848 LINE"
);
},
{
closed = 1;
nodes = (
"231 848 LINE",
"231 750 LINE",
"322 750 LINE",
"322 848 LINE"
);
}
);
width = 364;
}
);
leftKerningGroup = I;
rightKerningGroup = I;
unicode = 00CF;
},
{
glyphname = Igrave;
lastChange = "2014-09-05 18:36:08 +0000";
layers = (
{
background = {
paths = (
{
closed = 1;
nodes = (
"53 686 LINE",
"53 597 LINE",
"133 597 LINE",
"133 89 LINE",
"53 89 LINE",
"53 0 LINE",
"311 0 LINE",
"311 89 LINE",
"231 89 LINE",
"231 597 LINE",
"311 597 LINE",
"311 686 LINE"
);
},
{
closed = 1;
nodes = (
"33 895 LINE",
"32 892 LINE",
"147 750 LINE",
"217 750 LINE",
"122 895 LINE"
);
}
);
};
layerId = UUID0;
name = Regular;
paths = (
{
closed = 1;
nodes = (
"53 686 LINE",
"53 597 LINE",
"133 597 LINE",
"133 89 LINE",
"53 89 LINE",
"53 0 LINE",
"311 0 LINE",
"311 89 LINE",
"231 89 LINE",
"231 597 LINE",
"311 597 LINE",
"311 686 LINE"
);
},
{
closed = 1;
nodes = (
"33 895 LINE",
"32 892 LINE",
"147 750 LINE",
"217 750 LINE",
"122 895 LINE"
);
}
);
width = 364;
}
);
leftKerningGroup = I;
rightKerningGroup = I;
unicode = 00CC;
},
{
glyphname = J;
lastChange = "2014-09-05 18:59:21 +0000";
layers = (
{
anchors = (
{
name = top;
position = "{323, 686}";
}
);
background = {
anchors = (
{
name = top;
position = "{263, 686}";
}
);
paths = (
{
closed = 1;
nodes = (
"341 686 LINE",
"341 181 LINE SMOOTH",
"341 118 OFFCURVE",
"296 79 OFFCURVE",
"235 79 CURVE SMOOTH",
"172 79 OFFCURVE",
"127 121 OFFCURVE",
"127 181 CURVE SMOOTH",
"127 208 LINE",
"29 208 LINE",
"29 187 LINE SMOOTH",
"29 57 OFFCURVE",
"108 -10 OFFCURVE",
"227 -10 CURVE SMOOTH",
"236 -10 LINE SMOOTH",
"356 -10 OFFCURVE",
"439 65 OFFCURVE",
"439 187 CURVE SMOOTH",
"439 686 LINE"
);
}
);
};
layerId = UUID0;
name = Regular;
paths = (
{
closed = 1;
nodes = (
"341 686 LINE",
"341 181 LINE SMOOTH",
"341 118 OFFCURVE",
"296 79 OFFCURVE",
"235 79 CURVE SMOOTH",
"172 79 OFFCURVE",
"127 121 OFFCURVE",
"127 181 CURVE SMOOTH",
"127 208 LINE",
"29 208 LINE",
"29 187 LINE SMOOTH",
"29 57 OFFCURVE",
"108 -10 OFFCURVE",
"227 -10 CURVE SMOOTH",
"236 -10 LINE SMOOTH",
"356 -10 OFFCURVE",
"439 65 OFFCURVE",
"439 187 CURVE SMOOTH",
"439 686 LINE"
);
}
);
width = 526;
}
);
unicode = 004A;
},
{
glyphname = K;
lastChange = "2014-09-05 18:36:08 +0000";
layers = (
{
anchors = (
{
name = bottom;
position = "{312, 0}";
},
{
name = top;
position = "{312, 686}";
}
);
background = {
anchors = (
{
name = top;
position = "{312, 686}";
},
{
name = bottom;
position = "{312, 0}";
}
);
paths = (
{
closed = 1;
nodes = (
"488 686 LINE",
"190 329 LINE",
"190 686 LINE",
"92 686 LINE",
"92 0 LINE",
"190 0 LINE",
"190 206 LINE",
"287 308 LINE",
"495 0 LINE",
"609 0 LINE",
"349 383 LINE",
"601 686 LINE"
);
}
);
};
layerId = UUID0;
name = Regular;
paths = (
{
closed = 1;
nodes = (
"488 686 LINE",
"190 329 LINE",
"190 686 LINE",
"92 686 LINE",
"92 0 LINE",
"190 0 LINE",
"190 206 LINE",
"287 308 LINE",
"495 0 LINE",
"609 0 LINE",
"349 383 LINE",
"601 686 LINE"
);
}
);
width = 623;
}
);
leftKerningGroup = B;
unicode = 004B;
},
{
glyphname = L;
lastChange = "2014-09-09 18:20:16 +0000";
layers = (
{
anchors = (
{
name = bottom;
position = "{268, 0}";
},
{
name = top;
position = "{168, 686}";
},
{
name = topright;
position = "{476, 686}";
}
);
background = {
anchors = (
{
name = top;
position = "{268, 686}";
},
{
name = bottom;
position = "{268, 0}";
},
{
name = topright;
position = "{516, 686}";
}
);
paths = (
{
closed = 1;
nodes = (
"92 686 LINE",
"92 0 LINE",
"519 0 LINE",
"505 89 LINE",
"190 89 LINE",
"190 686 LINE"
);
}
);
};
layerId = UUID0;
name = Regular;
paths = (
{
closed = 1;
nodes = (
"92 686 LINE",
"92 0 LINE",
"519 0 LINE",
"505 89 LINE",
"190 89 LINE",
"190 686 LINE"
);
}
);
width = 536;
}
);
leftKerningGroup = B;
rightKerningGroup = L;
unicode = 004C;
},
{
glyphname = Lslash;
lastChange = "2014-09-05 18:36:08 +0000";
layers = (
{
background = {
paths = (
{
closed = 1;
nodes = (
"95 686 LINE",
"95 395 LINE",
"33 364 LINE",
"33 293 LINE",
"95 324 LINE",
"95 0 LINE",
"522 0 LINE",
"508 89 LINE",
"193 89 LINE",
"193 374 LINE",
"332 446 LINE",
"332 517 LINE",
"193 445 LINE",
"193 686 LINE"
);
}
);
};
layerId = UUID0;
name = Regular;
paths = (
{
closed = 1;
nodes = (
"95 686 LINE",
"95 395 LINE",
"33 364 LINE",
"33 293 LINE",
"95 324 LINE",
"95 0 LINE",
"522 0 LINE",
"508 89 LINE",
"193 89 LINE",
"193 374 LINE",
"332 446 LINE",
"332 517 LINE",
"193 445 LINE",
"193 686 LINE"
);
}
);
width = 539;
}
);
leftKerningGroup = B;
rightKerningGroup = L;
unicode = 0141;
},
{
glyphname = M;
lastChange = "2014-09-05 18:36:08 +0000";
layers = (
{
background = {
paths = (
{
closed = 1;
nodes = (
"693 686 LINE",
"471 146 LINE",
"467 146 LINE",
"246 686 LINE",
"92 686 LINE",
"92 0 LINE",
"181 0 LINE",
"181 571 LINE",
"186 571 LINE",
"422 0 LINE",
"505 0 LINE",
"742 571 LINE",
"748 571 LINE",
"748 0 LINE",
"846 0 LINE",
"846 686 LINE"
);
}
);
};
layerId = UUID0;
name = Regular;
paths = (
{
closed = 1;
nodes = (
"693 686 LINE",
"471 146 LINE",
"467 146 LINE",
"246 686 LINE",
"92 686 LINE",
"92 0 LINE",
"181 0 LINE",
"181 571 LINE",
"186 571 LINE",
"422 0 LINE",
"505 0 LINE",
"742 571 LINE",
"748 571 LINE",
"748 0 LINE",
"846 0 LINE",
"846 686 LINE"
);
}
);
width = 938;
}
);
leftKerningGroup = B;
rightKerningGroup = H;
unicode = 004D;
},
{
glyphname = N;
lastChange = "2014-09-05 18:36:08 +0000";
layers = (
{
anchors = (
{
name = bottom;
position = "{347, 0}";
},
{
name = top;
position = "{347, 686}";
}
);
background = {
anchors = (
{
name = top;
position = "{347, 686}";
},
{
name = bottom;
position = "{347, 0}";
}
);
paths = (
{
closed = 1;
nodes = (
"513 686 LINE",
"513 191 LINE",
"510 190 LINE",
"178 686 LINE",
"92 686 LINE",
"92 0 LINE",
"181 0 LINE",
"181 501 LINE",
"184 502 LINE",
"519 0 LINE",
"602 0 LINE",
"602 686 LINE"
);
}
);
};
layerId = UUID0;
name = Regular;
paths = (
{
closed = 1;
nodes = (
"513 686 LINE",
"513 191 LINE",
"510 190 LINE",
"178 686 LINE",
"92 686 LINE",
"92 0 LINE",
"181 0 LINE",
"181 501 LINE",
"184 502 LINE",
"519 0 LINE",
"602 0 LINE",
"602 686 LINE"
);
}
);
width = 694;
}
);
leftKerningGroup = B;
rightKerningGroup = H;
unicode = 004E;
},
{
glyphname = Ntilde;
lastChange = "2014-09-05 18:36:08 +0000";
layers = (
{
background = {
paths = (
{
closed = 1;
nodes = (
"513 686 LINE",
"513 191 LINE",
"510 190 LINE",
"178 686 LINE",
"92 686 LINE",
"92 0 LINE",
"181 0 LINE",
"181 501 LINE",
"184 502 LINE",
"519 0 LINE",
"602 0 LINE",
"602 686 LINE"
);
},
{
closed = 1;
nodes = (
"491 854 LINE",
"484 831 OFFCURVE",
"465 819 OFFCURVE",
"436 819 CURVE SMOOTH",
"419 819 OFFCURVE",
"393 825 OFFCURVE",
"356 836 CURVE SMOOTH",
"328 845 OFFCURVE",
"301 854 OFFCURVE",
"266 854 CURVE SMOOTH",
"194 854 OFFCURVE",
"155 802 OFFCURVE",
"155 750 CURVE",
"205 750 LINE",
"212 773 OFFCURVE",
"230 784 OFFCURVE",
"260 784 CURVE SMOOTH",
"289 784 OFFCURVE",
"304 777 OFFCURVE",
"359 761 CURVE SMOOTH",
"385 753 OFFCURVE",
"409 750 OFFCURVE",
"429 750 CURVE SMOOTH",
"496 750 OFFCURVE",
"541 795 OFFCURVE",
"541 854 CURVE"
);
}
);
};
layerId = UUID0;
name = Regular;
paths = (
{
closed = 1;
nodes = (
"513 686 LINE",
"513 191 LINE",
"510 190 LINE",
"178 686 LINE",
"92 686 LINE",
"92 0 LINE",
"181 0 LINE",
"181 501 LINE",
"184 502 LINE",
"519 0 LINE",
"602 0 LINE",
"602 686 LINE"
);
},
{
closed = 1;
nodes = (
"491 854 LINE",
"484 831 OFFCURVE",
"465 819 OFFCURVE",
"436 819 CURVE SMOOTH",
"419 819 OFFCURVE",
"393 825 OFFCURVE",
"356 836 CURVE SMOOTH",
"328 845 OFFCURVE",
"301 854 OFFCURVE",
"266 854 CURVE SMOOTH",
"194 854 OFFCURVE",
"155 802 OFFCURVE",
"155 750 CURVE",
"205 750 LINE",
"212 773 OFFCURVE",
"230 784 OFFCURVE",
"260 784 CURVE SMOOTH",
"289 784 OFFCURVE",
"304 777 OFFCURVE",
"359 761 CURVE SMOOTH",
"385 753 OFFCURVE",
"409 750 OFFCURVE",
"429 750 CURVE SMOOTH",
"496 750 OFFCURVE",
"541 795 OFFCURVE",
"541 854 CURVE"
);
}
);
width = 694;
}
);
leftKerningGroup = B;
rightKerningGroup = H;
unicode = 00D1;
},
{
glyphname = O;
lastChange = "2014-09-05 18:36:08 +0000";
layers = (
{
anchors = (
{
name = top;
position = "{345, 686}";
}
);
background = {
anchors = (
{
name = top;
position = "{345, 686}";
}
);
paths = (
{
closed = 1;
nodes = (
"175 696 OFFCURVE",
"61 581 OFFCURVE",
"61 388 CURVE SMOOTH",
"61 298 LINE SMOOTH",
"61 105 OFFCURVE",
"175 -10 OFFCURVE",
"345 -10 CURVE SMOOTH",
"515 -10 OFFCURVE",
"629 105 OFFCURVE",
"629 298 CURVE SMOOTH",
"629 388 LINE SMOOTH",
"629 581 OFFCURVE",
"515 696 OFFCURVE",
"345 696 CURVE SMOOTH"
);
},
{
closed = 1;
nodes = (
"467 607 OFFCURVE",
"531 530 OFFCURVE",
"531 388 CURVE SMOOTH",
"531 298 LINE SMOOTH",
"531 151 OFFCURVE",
"459 79 OFFCURVE",
"345 79 CURVE SMOOTH",
"223 79 OFFCURVE",
"159 156 OFFCURVE",
"159 298 CURVE SMOOTH",
"159 388 LINE SMOOTH",
"159 533 OFFCURVE",
"229 607 OFFCURVE",
"345 607 CURVE SMOOTH"
);
}
);
};
layerId = UUID0;
name = Regular;
paths = (
{
closed = 1;
nodes = (
"175 696 OFFCURVE",
"61 581 OFFCURVE",
"61 388 CURVE SMOOTH",
"61 298 LINE SMOOTH",
"61 105 OFFCURVE",
"175 -10 OFFCURVE",
"345 -10 CURVE SMOOTH",
"515 -10 OFFCURVE",
"629 105 OFFCURVE",
"629 298 CURVE SMOOTH",
"629 388 LINE SMOOTH",
"629 581 OFFCURVE",
"515 696 OFFCURVE",
"345 696 CURVE SMOOTH"
);
},
{
closed = 1;
nodes = (
"467 607 OFFCURVE",
"531 530 OFFCURVE",
"531 388 CURVE SMOOTH",
"531 298 LINE SMOOTH",
"531 151 OFFCURVE",
"459 79 OFFCURVE",
"345 79 CURVE SMOOTH",
"223 79 OFFCURVE",
"159 156 OFFCURVE",
"159 298 CURVE SMOOTH",
"159 388 LINE SMOOTH",
"159 533 OFFCURVE",
"229 607 OFFCURVE",
"345 607 CURVE SMOOTH"
);
}
);
width = 690;
}
);
leftKerningGroup = C;
rightKerningGroup = O;
unicode = 004F;
},
{
glyphname = Oacute;
lastChange = "2014-09-05 18:36:08 +0000";
layers = (
{
background = {
paths = (
{
closed = 1;
nodes = (
"175 696 OFFCURVE",
"61 581 OFFCURVE",
"61 388 CURVE SMOOTH",
"61 298 LINE SMOOTH",
"61 105 OFFCURVE",
"175 -10 OFFCURVE",
"345 -10 CURVE SMOOTH",
"515 -10 OFFCURVE",
"629 105 OFFCURVE",
"629 298 CURVE SMOOTH",
"629 388 LINE SMOOTH",
"629 581 OFFCURVE",
"515 696 OFFCURVE",
"345 696 CURVE SMOOTH"
);
},
{
closed = 1;
nodes = (
"467 607 OFFCURVE",
"531 530 OFFCURVE",
"531 388 CURVE SMOOTH",
"531 298 LINE SMOOTH",
"531 151 OFFCURVE",
"459 79 OFFCURVE",
"345 79 CURVE SMOOTH",
"223 79 OFFCURVE",
"159 156 OFFCURVE",
"159 298 CURVE SMOOTH",
"159 388 LINE SMOOTH",
"159 533 OFFCURVE",
"229 607 OFFCURVE",
"345 607 CURVE SMOOTH"
);
},
{
closed = 1;
nodes = (
"400 895 LINE",
"306 750 LINE",
"375 750 LINE",
"491 892 LINE",
"490 895 LINE"
);
}
);
};
layerId = UUID0;
name = Regular;
paths = (
{
closed = 1;
nodes = (
"175 696 OFFCURVE",
"61 581 OFFCURVE",
"61 388 CURVE SMOOTH",
"61 298 LINE SMOOTH",
"61 105 OFFCURVE",
"175 -10 OFFCURVE",
"345 -10 CURVE SMOOTH",
"515 -10 OFFCURVE",
"629 105 OFFCURVE",
"629 298 CURVE SMOOTH",
"629 388 LINE SMOOTH",
"629 581 OFFCURVE",
"515 696 OFFCURVE",
"345 696 CURVE SMOOTH"
);
},
{
closed = 1;
nodes = (
"467 607 OFFCURVE",
"531 530 OFFCURVE",
"531 388 CURVE SMOOTH",
"531 298 LINE SMOOTH",
"531 151 OFFCURVE",
"459 79 OFFCURVE",
"345 79 CURVE SMOOTH",
"223 79 OFFCURVE",
"159 156 OFFCURVE",
"159 298 CURVE SMOOTH",
"159 388 LINE SMOOTH",
"159 533 OFFCURVE",
"229 607 OFFCURVE",
"345 607 CURVE SMOOTH"
);
},
{
closed = 1;
nodes = (
"400 895 LINE",
"306 750 LINE",
"375 750 LINE",
"491 892 LINE",
"490 895 LINE"
);
}
);
width = 690;
}
);
leftKerningGroup = C;
rightKerningGroup = O;
unicode = 00D3;
},
{
glyphname = Ocircumflex;
lastChange = "2014-09-05 18:36:08 +0000";
layers = (
{
background = {
paths = (
{
closed = 1;
nodes = (
"175 696 OFFCURVE",
"61 581 OFFCURVE",
"61 388 CURVE SMOOTH",
"61 298 LINE SMOOTH",
"61 105 OFFCURVE",
"175 -10 OFFCURVE",
"345 -10 CURVE SMOOTH",
"515 -10 OFFCURVE",
"629 105 OFFCURVE",
"629 298 CURVE SMOOTH",
"629 388 LINE SMOOTH",
"629 581 OFFCURVE",
"515 696 OFFCURVE",
"345 696 CURVE SMOOTH"
);
},
{
closed = 1;
nodes = (
"467 607 OFFCURVE",
"531 530 OFFCURVE",
"531 388 CURVE SMOOTH",
"531 298 LINE SMOOTH",
"531 151 OFFCURVE",
"459 79 OFFCURVE",
"345 79 CURVE SMOOTH",
"223 79 OFFCURVE",
"159 156 OFFCURVE",
"159 298 CURVE SMOOTH",
"159 388 LINE SMOOTH",
"159 533 OFFCURVE",
"229 607 OFFCURVE",
"345 607 CURVE SMOOTH"
);
},
{
closed = 1;
nodes = (
"304 895 LINE",
"168 750 LINE",
"248 750 LINE",
"343 839 LINE",
"437 750 LINE",
"517 750 LINE",
"382 895 LINE"
);
}
);
};
layerId = UUID0;
name = Regular;
paths = (
{
closed = 1;
nodes = (
"175 696 OFFCURVE",
"61 581 OFFCURVE",
"61 388 CURVE SMOOTH",
"61 298 LINE SMOOTH",
"61 105 OFFCURVE",
"175 -10 OFFCURVE",
"345 -10 CURVE SMOOTH",
"515 -10 OFFCURVE",
"629 105 OFFCURVE",
"629 298 CURVE SMOOTH",
"629 388 LINE SMOOTH",
"629 581 OFFCURVE",
"515 696 OFFCURVE",
"345 696 CURVE SMOOTH"
);
},
{
closed = 1;
nodes = (
"467 607 OFFCURVE",
"531 530 OFFCURVE",
"531 388 CURVE SMOOTH",
"531 298 LINE SMOOTH",
"531 151 OFFCURVE",
"459 79 OFFCURVE",
"345 79 CURVE SMOOTH",
"223 79 OFFCURVE",
"159 156 OFFCURVE",
"159 298 CURVE SMOOTH",
"159 388 LINE SMOOTH",
"159 533 OFFCURVE",
"229 607 OFFCURVE",
"345 607 CURVE SMOOTH"
);
},
{
closed = 1;
nodes = (
"304 895 LINE",
"168 750 LINE",
"248 750 LINE",
"343 839 LINE",
"437 750 LINE",
"517 750 LINE",
"382 895 LINE"
);
}
);
width = 690;
}
);
leftKerningGroup = C;
rightKerningGroup = O;
unicode = 00D4;
},
{
glyphname = Odieresis;
lastChange = "2014-09-05 18:36:08 +0000";
layers = (
{
background = {
paths = (
{
closed = 1;
nodes = (
"175 696 OFFCURVE",
"61 581 OFFCURVE",
"61 388 CURVE SMOOTH",
"61 298 LINE SMOOTH",
"61 105 OFFCURVE",
"175 -10 OFFCURVE",
"345 -10 CURVE SMOOTH",
"515 -10 OFFCURVE",
"629 105 OFFCURVE",
"629 298 CURVE SMOOTH",
"629 388 LINE SMOOTH",
"629 581 OFFCURVE",
"515 696 OFFCURVE",
"345 696 CURVE SMOOTH"
);
},
{
closed = 1;
nodes = (
"467 607 OFFCURVE",
"531 530 OFFCURVE",
"531 388 CURVE SMOOTH",
"531 298 LINE SMOOTH",
"531 151 OFFCURVE",
"459 79 OFFCURVE",
"345 79 CURVE SMOOTH",
"223 79 OFFCURVE",
"159 156 OFFCURVE",
"159 298 CURVE SMOOTH",
"159 388 LINE SMOOTH",
"159 533 OFFCURVE",
"229 607 OFFCURVE",
"345 607 CURVE SMOOTH"
);
},
{
closed = 1;
nodes = (
"207 848 LINE",
"207 750 LINE",
"297 750 LINE",
"297 848 LINE"
);
},
{
closed = 1;
nodes = (
"395 848 LINE",
"395 750 LINE",
"486 750 LINE",
"486 848 LINE"
);
}
);
};
layerId = UUID0;
name = Regular;
paths = (
{
closed = 1;
nodes = (
"175 696 OFFCURVE",
"61 581 OFFCURVE",
"61 388 CURVE SMOOTH",
"61 298 LINE SMOOTH",
"61 105 OFFCURVE",
"175 -10 OFFCURVE",
"345 -10 CURVE SMOOTH",
"515 -10 OFFCURVE",
"629 105 OFFCURVE",
"629 298 CURVE SMOOTH",
"629 388 LINE SMOOTH",
"629 581 OFFCURVE",
"515 696 OFFCURVE",
"345 696 CURVE SMOOTH"
);
},
{
closed = 1;
nodes = (
"467 607 OFFCURVE",
"531 530 OFFCURVE",
"531 388 CURVE SMOOTH",
"531 298 LINE SMOOTH",
"531 151 OFFCURVE",
"459 79 OFFCURVE",
"345 79 CURVE SMOOTH",
"223 79 OFFCURVE",
"159 156 OFFCURVE",
"159 298 CURVE SMOOTH",
"159 388 LINE SMOOTH",
"159 533 OFFCURVE",
"229 607 OFFCURVE",
"345 607 CURVE SMOOTH"
);
},
{
closed = 1;
nodes = (
"207 848 LINE",
"207 750 LINE",
"297 750 LINE",
"297 848 LINE"
);
},
{
closed = 1;
nodes = (
"395 848 LINE",
"395 750 LINE",
"486 750 LINE",
"486 848 LINE"
);
}
);
width = 690;
}
);
leftKerningGroup = C;
rightKerningGroup = O;
unicode = 00D6;
},
{
glyphname = Ograve;
lastChange = "2014-09-05 18:36:08 +0000";
layers = (
{
background = {
paths = (
{
closed = 1;
nodes = (
"175 696 OFFCURVE",
"61 581 OFFCURVE",
"61 388 CURVE SMOOTH",
"61 298 LINE SMOOTH",
"61 105 OFFCURVE",
"175 -10 OFFCURVE",
"345 -10 CURVE SMOOTH",
"515 -10 OFFCURVE",
"629 105 OFFCURVE",
"629 298 CURVE SMOOTH",
"629 388 LINE SMOOTH",
"629 581 OFFCURVE",
"515 696 OFFCURVE",
"345 696 CURVE SMOOTH"
);
},
{
closed = 1;
nodes = (
"467 607 OFFCURVE",
"531 530 OFFCURVE",
"531 388 CURVE SMOOTH",
"531 298 LINE SMOOTH",
"531 151 OFFCURVE",
"459 79 OFFCURVE",
"345 79 CURVE SMOOTH",
"223 79 OFFCURVE",
"159 156 OFFCURVE",
"159 298 CURVE SMOOTH",
"159 388 LINE SMOOTH",
"159 533 OFFCURVE",
"229 607 OFFCURVE",
"345 607 CURVE SMOOTH"
);
},
{
closed = 1;
nodes = (
"199 895 LINE",
"198 892 LINE",
"313 750 LINE",
"383 750 LINE",
"288 895 LINE"
);
}
);
};
layerId = UUID0;
name = Regular;
paths = (
{
closed = 1;
nodes = (
"175 696 OFFCURVE",
"61 581 OFFCURVE",
"61 388 CURVE SMOOTH",
"61 298 LINE SMOOTH",
"61 105 OFFCURVE",
"175 -10 OFFCURVE",
"345 -10 CURVE SMOOTH",
"515 -10 OFFCURVE",
"629 105 OFFCURVE",
"629 298 CURVE SMOOTH",
"629 388 LINE SMOOTH",
"629 581 OFFCURVE",
"515 696 OFFCURVE",
"345 696 CURVE SMOOTH"
);
},
{
closed = 1;
nodes = (
"467 607 OFFCURVE",
"531 530 OFFCURVE",
"531 388 CURVE SMOOTH",
"531 298 LINE SMOOTH",
"531 151 OFFCURVE",
"459 79 OFFCURVE",
"345 79 CURVE SMOOTH",
"223 79 OFFCURVE",
"159 156 OFFCURVE",
"159 298 CURVE SMOOTH",
"159 388 LINE SMOOTH",
"159 533 OFFCURVE",
"229 607 OFFCURVE",
"345 607 CURVE SMOOTH"
);
},
{
closed = 1;
nodes = (
"199 895 LINE",
"198 892 LINE",
"313 750 LINE",
"383 750 LINE",
"288 895 LINE"
);
}
);
width = 690;
}
);
leftKerningGroup = C;
rightKerningGroup = O;
unicode = 00D2;
},
{
glyphname = Oslash;
lastChange = "2014-09-05 18:36:08 +0000";
layers = (
{
anchors = (
{
name = top;
position = "{345, 686}";
}
);
background = {
anchors = (
{
name = top;
position = "{345, 686}";
}
);
paths = (
{
closed = 1;
nodes = (
"560 754 LINE",
"501 655 LINE",
"457 682 OFFCURVE",
"405 696 OFFCURVE",
"345 696 CURVE SMOOTH",
"175 696 OFFCURVE",
"61 581 OFFCURVE",
"61 388 CURVE SMOOTH",
"61 298 LINE SMOOTH",
"61 196 OFFCURVE",
"90 118 OFFCURVE",
"147 63 CURVE",
"70 -65 LINE",
"134 -65 LINE",
"190 30 LINE",
"235 3 OFFCURVE",
"286 -10 OFFCURVE",
"345 -10 CURVE SMOOTH",
"515 -10 OFFCURVE",
"629 105 OFFCURVE",
"629 298 CURVE SMOOTH",
"629 388 LINE SMOOTH",
"629 489 OFFCURVE",
"601 567 OFFCURVE",
"544 621 CURVE",
"624 754 LINE"
);
},
{
closed = 1;
nodes = (
"392 607 OFFCURVE",
"424 597 OFFCURVE",
"454 577 CURVE",
"197 147 LINE",
"172 182 OFFCURVE",
"159 233 OFFCURVE",
"159 298 CURVE SMOOTH",
"159 388 LINE SMOOTH",
"159 527 OFFCURVE",
"216 607 OFFCURVE",
"357 607 CURVE SMOOTH"
);
},
{
closed = 1;
nodes = (
"519 499 OFFCURVE",
"531 449 OFFCURVE",
"531 388 CURVE SMOOTH",
"531 298 LINE SMOOTH",
"531 158 OFFCURVE",
"472 79 OFFCURVE",
"333 79 CURVE SMOOTH",
"298 79 OFFCURVE",
"266 89 OFFCURVE",
"237 108 CURVE",
"494 537 LINE"
);
}
);
};
layerId = UUID0;
name = Regular;
paths = (
{
closed = 1;
nodes = (
"560 754 LINE",
"501 655 LINE",
"457 682 OFFCURVE",
"405 696 OFFCURVE",
"345 696 CURVE SMOOTH",
"175 696 OFFCURVE",
"61 581 OFFCURVE",
"61 388 CURVE SMOOTH",
"61 298 LINE SMOOTH",
"61 196 OFFCURVE",
"90 118 OFFCURVE",
"147 63 CURVE",
"70 -65 LINE",
"134 -65 LINE",
"190 30 LINE",
"235 3 OFFCURVE",
"286 -10 OFFCURVE",
"345 -10 CURVE SMOOTH",
"515 -10 OFFCURVE",
"629 105 OFFCURVE",
"629 298 CURVE SMOOTH",
"629 388 LINE SMOOTH",
"629 489 OFFCURVE",
"601 567 OFFCURVE",
"544 621 CURVE",
"624 754 LINE"
);
},
{
closed = 1;
nodes = (
"392 607 OFFCURVE",
"424 597 OFFCURVE",
"454 577 CURVE",
"197 147 LINE",
"172 182 OFFCURVE",
"159 233 OFFCURVE",
"159 298 CURVE SMOOTH",
"159 388 LINE SMOOTH",
"159 527 OFFCURVE",
"216 607 OFFCURVE",
"357 607 CURVE SMOOTH"
);
},
{
closed = 1;
nodes = (
"519 499 OFFCURVE",
"531 449 OFFCURVE",
"531 388 CURVE SMOOTH",
"531 298 LINE SMOOTH",
"531 158 OFFCURVE",
"472 79 OFFCURVE",
"333 79 CURVE SMOOTH",
"298 79 OFFCURVE",
"266 89 OFFCURVE",
"237 108 CURVE",
"494 537 LINE"
);
}
);
width = 690;
}
);
leftKerningGroup = C;
rightKerningGroup = O;
unicode = 00D8;
},
{
glyphname = Otilde;
lastChange = "2014-09-05 18:36:08 +0000";
layers = (
{
background = {
paths = (
{
closed = 1;
nodes = (
"175 696 OFFCURVE",
"61 581 OFFCURVE",
"61 388 CURVE SMOOTH",
"61 298 LINE SMOOTH",
"61 105 OFFCURVE",
"175 -10 OFFCURVE",
"345 -10 CURVE SMOOTH",
"515 -10 OFFCURVE",
"629 105 OFFCURVE",
"629 298 CURVE SMOOTH",
"629 388 LINE SMOOTH",
"629 581 OFFCURVE",
"515 696 OFFCURVE",
"345 696 CURVE SMOOTH"
);
},
{
closed = 1;
nodes = (
"467 607 OFFCURVE",
"531 530 OFFCURVE",
"531 388 CURVE SMOOTH",
"531 298 LINE SMOOTH",
"531 151 OFFCURVE",
"459 79 OFFCURVE",
"345 79 CURVE SMOOTH",
"223 79 OFFCURVE",
"159 156 OFFCURVE",
"159 298 CURVE SMOOTH",
"159 388 LINE SMOOTH",
"159 533 OFFCURVE",
"229 607 OFFCURVE",
"345 607 CURVE SMOOTH"
);
},
{
closed = 1;
nodes = (
"488 854 LINE",
"481 831 OFFCURVE",
"462 819 OFFCURVE",
"433 819 CURVE SMOOTH",
"416 819 OFFCURVE",
"388 824 OFFCURVE",
"352 836 CURVE",
"324 844 OFFCURVE",
"298 854 OFFCURVE",
"263 854 CURVE SMOOTH",
"192 854 OFFCURVE",
"152 804 OFFCURVE",
"152 750 CURVE",
"202 750 LINE",
"209 773 OFFCURVE",
"227 784 OFFCURVE",
"257 784 CURVE SMOOTH",
"286 784 OFFCURVE",
"301 777 OFFCURVE",
"356 761 CURVE SMOOTH",
"382 753 OFFCURVE",
"406 750 OFFCURVE",
"426 750 CURVE SMOOTH",
"492 750 OFFCURVE",
"538 792 OFFCURVE",
"538 854 CURVE"
);
}
);
};
layerId = UUID0;
name = Regular;
paths = (
{
closed = 1;
nodes = (
"175 696 OFFCURVE",
"61 581 OFFCURVE",
"61 388 CURVE SMOOTH",
"61 298 LINE SMOOTH",
"61 105 OFFCURVE",
"175 -10 OFFCURVE",
"345 -10 CURVE SMOOTH",
"515 -10 OFFCURVE",
"629 105 OFFCURVE",
"629 298 CURVE SMOOTH",
"629 388 LINE SMOOTH",
"629 581 OFFCURVE",
"515 696 OFFCURVE",
"345 696 CURVE SMOOTH"
);
},
{
closed = 1;
nodes = (
"467 607 OFFCURVE",
"531 530 OFFCURVE",
"531 388 CURVE SMOOTH",
"531 298 LINE SMOOTH",
"531 151 OFFCURVE",
"459 79 OFFCURVE",
"345 79 CURVE SMOOTH",
"223 79 OFFCURVE",
"159 156 OFFCURVE",
"159 298 CURVE SMOOTH",
"159 388 LINE SMOOTH",
"159 533 OFFCURVE",
"229 607 OFFCURVE",
"345 607 CURVE SMOOTH"
);
},
{
closed = 1;
nodes = (
"488 854 LINE",
"481 831 OFFCURVE",
"462 819 OFFCURVE",
"433 819 CURVE SMOOTH",
"416 819 OFFCURVE",
"388 824 OFFCURVE",
"352 836 CURVE",
"324 844 OFFCURVE",
"298 854 OFFCURVE",
"263 854 CURVE SMOOTH",
"192 854 OFFCURVE",
"152 804 OFFCURVE",
"152 750 CURVE",
"202 750 LINE",
"209 773 OFFCURVE",
"227 784 OFFCURVE",
"257 784 CURVE SMOOTH",
"286 784 OFFCURVE",
"301 777 OFFCURVE",
"356 761 CURVE SMOOTH",
"382 753 OFFCURVE",
"406 750 OFFCURVE",
"426 750 CURVE SMOOTH",
"492 750 OFFCURVE",
"538 792 OFFCURVE",
"538 854 CURVE"
);
}
);
width = 690;
}
);
leftKerningGroup = C;
rightKerningGroup = O;
unicode = 00D5;
},
{
glyphname = OE;
lastChange = "2014-09-05 18:36:08 +0000";
layers = (
{
anchors = (
{
name = top;
position = "{516, 686}";
}
);
background = {
anchors = (
{
name = top;
position = "{516, 686}";
}
);
paths = (
{
closed = 1;
nodes = (
"176 696 OFFCURVE",
"61 581 OFFCURVE",
"61 388 CURVE SMOOTH",
"61 298 LINE SMOOTH",
"61 105 OFFCURVE",
"175 -10 OFFCURVE",
"345 -10 CURVE SMOOTH",
"422 -10 OFFCURVE",
"484 13 OFFCURVE",
"531 58 CURVE",
"531 0 LINE",
"988 0 LINE",
"974 89 LINE",
"629 89 LINE",
"629 306 LINE",
"936 306 LINE",
"936 395 LINE",
"629 395 LINE",
"629 597 LINE",
"968 597 LINE",
"981 686 LINE",
"531 686 LINE",
"531 628 LINE",
"482 673 OFFCURVE",
"419 696 OFFCURVE",
"340 696 CURVE SMOOTH"
);
},
{
closed = 1;
nodes = (
"467 607 OFFCURVE",
"531 530 OFFCURVE",
"531 388 CURVE SMOOTH",
"531 298 LINE SMOOTH",
"531 151 OFFCURVE",
"459 79 OFFCURVE",
"345 79 CURVE SMOOTH",
"223 79 OFFCURVE",
"159 156 OFFCURVE",
"159 298 CURVE SMOOTH",
"159 388 LINE SMOOTH",
"159 533 OFFCURVE",
"229 607 OFFCURVE",
"345 607 CURVE SMOOTH"
);
}
);
};
layerId = UUID0;
name = Regular;
paths = (
{
closed = 1;
nodes = (
"176 696 OFFCURVE",
"61 581 OFFCURVE",
"61 388 CURVE SMOOTH",
"61 298 LINE SMOOTH",
"61 105 OFFCURVE",
"175 -10 OFFCURVE",
"345 -10 CURVE SMOOTH",
"422 -10 OFFCURVE",
"484 13 OFFCURVE",
"531 58 CURVE",
"531 0 LINE",
"988 0 LINE",
"974 89 LINE",
"629 89 LINE",
"629 306 LINE",
"936 306 LINE",
"936 395 LINE",
"629 395 LINE",
"629 597 LINE",
"968 597 LINE",
"981 686 LINE",
"531 686 LINE",
"531 628 LINE",
"482 673 OFFCURVE",
"419 696 OFFCURVE",
"340 696 CURVE SMOOTH"
);
},
{
closed = 1;
nodes = (
"467 607 OFFCURVE",
"531 530 OFFCURVE",
"531 388 CURVE SMOOTH",
"531 298 LINE SMOOTH",
"531 151 OFFCURVE",
"459 79 OFFCURVE",
"345 79 CURVE SMOOTH",
"223 79 OFFCURVE",
"159 156 OFFCURVE",
"159 298 CURVE SMOOTH",
"159 388 LINE SMOOTH",
"159 533 OFFCURVE",
"229 607 OFFCURVE",
"345 607 CURVE SMOOTH"
);
}
);
width = 1032;
}
);
leftKerningGroup = C;
rightKerningGroup = E;
unicode = 0152;
},
{
glyphname = P;
lastChange = "2014-09-05 18:36:08 +0000";
layers = (
{
background = {
paths = (
{
closed = 1;
nodes = (
"92 686 LINE",
"92 0 LINE",
"190 0 LINE",
"190 286 LINE",
"388 286 LINE SMOOTH",
"506 286 OFFCURVE",
"593 370 OFFCURVE",
"593 486 CURVE SMOOTH",
"593 602 OFFCURVE",
"506 686 OFFCURVE",
"388 686 CURVE SMOOTH"
);
},
{
closed = 1;
nodes = (
"441 597 OFFCURVE",
"495 549 OFFCURVE",
"495 486 CURVE SMOOTH",
"495 423 OFFCURVE",
"440 375 OFFCURVE",
"379 375 CURVE SMOOTH",
"190 375 LINE",
"190 597 LINE",
"379 597 LINE SMOOTH"
);
}
);
};
layerId = UUID0;
name = Regular;
paths = (
{
closed = 1;
nodes = (
"92 686 LINE",
"92 0 LINE",
"190 0 LINE",
"190 286 LINE",
"388 286 LINE SMOOTH",
"506 286 OFFCURVE",
"593 370 OFFCURVE",
"593 486 CURVE SMOOTH",
"593 602 OFFCURVE",
"506 686 OFFCURVE",
"388 686 CURVE SMOOTH"
);
},
{
closed = 1;
nodes = (
"441 597 OFFCURVE",
"495 549 OFFCURVE",
"495 486 CURVE SMOOTH",
"495 423 OFFCURVE",
"440 375 OFFCURVE",
"379 375 CURVE SMOOTH",
"190 375 LINE",
"190 597 LINE",
"379 597 LINE SMOOTH"
);
}
);
width = 624;
}
);
leftKerningGroup = B;
unicode = 0050;
},
{
glyphname = Thorn;
lastChange = "2014-09-05 18:36:08 +0000";
layers = (
{
background = {
paths = (
{
closed = 1;
nodes = (
"92 686 LINE",
"92 0 LINE",
"190 0 LINE",
"190 162 LINE",
"388 162 LINE SMOOTH",
"506 162 OFFCURVE",
"593 246 OFFCURVE",
"593 362 CURVE SMOOTH",
"593 478 OFFCURVE",
"506 562 OFFCURVE",
"388 562 CURVE SMOOTH",
"190 562 LINE",
"190 686 LINE"
);
},
{
closed = 1;
nodes = (
"441 473 OFFCURVE",
"495 425 OFFCURVE",
"495 362 CURVE SMOOTH",
"495 299 OFFCURVE",
"440 251 OFFCURVE",
"379 251 CURVE SMOOTH",
"190 251 LINE",
"190 473 LINE",
"379 473 LINE SMOOTH"
);
}
);
};
layerId = UUID0;
name = Regular;
paths = (
{
closed = 1;
nodes = (
"92 686 LINE",
"92 0 LINE",
"190 0 LINE",
"190 162 LINE",
"388 162 LINE SMOOTH",
"506 162 OFFCURVE",
"593 246 OFFCURVE",
"593 362 CURVE SMOOTH",
"593 478 OFFCURVE",
"506 562 OFFCURVE",
"388 562 CURVE SMOOTH",
"190 562 LINE",
"190 686 LINE"
);
},
{
closed = 1;
nodes = (
"441 473 OFFCURVE",
"495 425 OFFCURVE",
"495 362 CURVE SMOOTH",
"495 299 OFFCURVE",
"440 251 OFFCURVE",
"379 251 CURVE SMOOTH",
"190 251 LINE",
"190 473 LINE",
"379 473 LINE SMOOTH"
);
}
);
width = 633;
}
);
leftKerningGroup = B;
unicode = 00DE;
},
{
glyphname = Q;
lastChange = "2014-09-05 18:36:08 +0000";
layers = (
{
background = {
paths = (
{
closed = 1;
nodes = (
"175 696 OFFCURVE",
"61 581 OFFCURVE",
"61 388 CURVE SMOOTH",
"61 298 LINE SMOOTH",
"61 123 OFFCURVE",
"151 11 OFFCURVE",
"305 -8 CURVE",
"318 -77 OFFCURVE",
"355 -145 OFFCURVE",
"499 -145 CURVE SMOOTH",
"539 -145 OFFCURVE",
"579 -134 OFFCURVE",
"618 -112 CURVE",
"618 -42 LINE",
"606 -46 LINE SMOOTH",
"566 -62 OFFCURVE",
"531 -70 OFFCURVE",
"501 -70 CURVE SMOOTH",
"457 -70 OFFCURVE",
"415 -54 OFFCURVE",
"402 -5 CURVE",
"545 18 OFFCURVE",
"629 131 OFFCURVE",
"629 298 CURVE SMOOTH",
"629 388 LINE SMOOTH",
"629 581 OFFCURVE",
"515 696 OFFCURVE",
"345 696 CURVE SMOOTH"
);
},
{
closed = 1;
nodes = (
"467 607 OFFCURVE",
"531 530 OFFCURVE",
"531 388 CURVE SMOOTH",
"531 298 LINE SMOOTH",
"531 151 OFFCURVE",
"459 79 OFFCURVE",
"345 79 CURVE SMOOTH",
"223 79 OFFCURVE",
"159 156 OFFCURVE",
"159 298 CURVE SMOOTH",
"159 388 LINE SMOOTH",
"159 533 OFFCURVE",
"229 607 OFFCURVE",
"345 607 CURVE SMOOTH"
);
}
);
};
layerId = UUID0;
name = Regular;
paths = (
{
closed = 1;
nodes = (
"175 696 OFFCURVE",
"61 581 OFFCURVE",
"61 388 CURVE SMOOTH",
"61 298 LINE SMOOTH",
"61 123 OFFCURVE",
"151 11 OFFCURVE",
"305 -8 CURVE",
"318 -77 OFFCURVE",
"355 -145 OFFCURVE",
"499 -145 CURVE SMOOTH",
"539 -145 OFFCURVE",
"579 -134 OFFCURVE",
"618 -112 CURVE",
"618 -42 LINE",
"606 -46 LINE SMOOTH",
"566 -62 OFFCURVE",
"531 -70 OFFCURVE",
"501 -70 CURVE SMOOTH",
"457 -70 OFFCURVE",
"415 -54 OFFCURVE",
"402 -5 CURVE",
"545 18 OFFCURVE",
"629 131 OFFCURVE",
"629 298 CURVE SMOOTH",
"629 388 LINE SMOOTH",
"629 581 OFFCURVE",
"515 696 OFFCURVE",
"345 696 CURVE SMOOTH"
);
},
{
closed = 1;
nodes = (
"467 607 OFFCURVE",
"531 530 OFFCURVE",
"531 388 CURVE SMOOTH",
"531 298 LINE SMOOTH",
"531 151 OFFCURVE",
"459 79 OFFCURVE",
"345 79 CURVE SMOOTH",
"223 79 OFFCURVE",
"159 156 OFFCURVE",
"159 298 CURVE SMOOTH",
"159 388 LINE SMOOTH",
"159 533 OFFCURVE",
"229 607 OFFCURVE",
"345 607 CURVE SMOOTH"
);
}
);
width = 690;
}
);
leftKerningGroup = C;
rightKerningGroup = O;
unicode = 0051;
},
{
glyphname = R;
lastChange = "2014-09-05 18:36:08 +0000";
layers = (
{
anchors = (
{
name = bottom;
position = "{335, 0}";
},
{
name = top;
position = "{335, 686}";
}
);
background = {
anchors = (
{
name = top;
position = "{335, 686}";
},
{
name = bottom;
position = "{335, 0}";
}
);
paths = (
{
closed = 1;
nodes = (
"92 686 LINE",
"92 0 LINE",
"190 0 LINE",
"190 302 LINE",
"364 302 LINE SMOOTH",
"427 302 OFFCURVE",
"481 243 OFFCURVE",
"481 130 CURVE SMOOTH",
"481 16 OFFCURVE",
"528 -6 OFFCURVE",
"583 -6 CURVE SMOOTH",
"599 -6 OFFCURVE",
"615 -3 OFFCURVE",
"630 3 CURVE",
"630 31 LINE",
"598 42 OFFCURVE",
"579 56 OFFCURVE",
"579 170 CURVE SMOOTH",
"579 261 OFFCURVE",
"530 325 OFFCURVE",
"469 349 CURVE",
"469 354 LINE",
"535 367 OFFCURVE",
"592 433 OFFCURVE",
"592 525 CURVE SMOOTH",
"592 628 OFFCURVE",
"501 686 OFFCURVE",
"384 686 CURVE SMOOTH"
);
},
{
closed = 1;
nodes = (
"452 597 OFFCURVE",
"494 553 OFFCURVE",
"494 496 CURVE SMOOTH",
"494 492 LINE SMOOTH",
"494 433 OFFCURVE",
"441 391 OFFCURVE",
"385 391 CURVE SMOOTH",
"190 391 LINE",
"190 597 LINE",
"385 597 LINE SMOOTH"
);
}
);
};
layerId = UUID0;
name = Regular;
paths = (
{
closed = 1;
nodes = (
"92 686 LINE",
"92 0 LINE",
"190 0 LINE",
"190 302 LINE",
"364 302 LINE SMOOTH",
"427 302 OFFCURVE",
"481 243 OFFCURVE",
"481 130 CURVE SMOOTH",
"481 16 OFFCURVE",
"528 -6 OFFCURVE",
"583 -6 CURVE SMOOTH",
"599 -6 OFFCURVE",
"615 -3 OFFCURVE",
"630 3 CURVE",
"630 31 LINE",
"598 42 OFFCURVE",
"579 56 OFFCURVE",
"579 170 CURVE SMOOTH",
"579 261 OFFCURVE",
"530 325 OFFCURVE",
"469 349 CURVE",
"469 354 LINE",
"535 367 OFFCURVE",
"592 433 OFFCURVE",
"592 525 CURVE SMOOTH",
"592 628 OFFCURVE",
"501 686 OFFCURVE",
"384 686 CURVE SMOOTH"
);
},
{
closed = 1;
nodes = (
"452 597 OFFCURVE",
"494 553 OFFCURVE",
"494 496 CURVE SMOOTH",
"494 492 LINE SMOOTH",
"494 433 OFFCURVE",
"441 391 OFFCURVE",
"385 391 CURVE SMOOTH",
"190 391 LINE",
"190 597 LINE",
"385 597 LINE SMOOTH"
);
}
);
width = 670;
}
);
leftKerningGroup = B;
unicode = 0052;
},
{
glyphname = S;
lastChange = "2014-09-05 18:36:08 +0000";
layers = (
{
anchors = (
{
name = bottom;
position = "{314, 0}";
},
{
name = top;
position = "{314, 686}";
}
);
background = {
anchors = (
{
name = top;
position = "{314, 686}";
},
{
name = bottom;
position = "{314, 0}";
}
);
paths = (
{
closed = 1;
nodes = (
"174 696 OFFCURVE",
"68 640 OFFCURVE",
"68 501 CURVE SMOOTH",
"68 257 OFFCURVE",
"476 358 OFFCURVE",
"476 182 CURVE SMOOTH",
"476 118 OFFCURVE",
"414 79 OFFCURVE",
"314 79 CURVE SMOOTH",
"214 79 OFFCURVE",
"150 115 OFFCURVE",
"150 194 CURVE",
"151 215 LINE",
"53 215 LINE",
"52 195 LINE",
"52 59 OFFCURVE",
"151 -10 OFFCURVE",
"313 -10 CURVE SMOOTH",
"470 -10 OFFCURVE",
"574 50 OFFCURVE",
"574 205 CURVE SMOOTH",
"574 449 OFFCURVE",
"166 359 OFFCURVE",
"166 516 CURVE SMOOTH",
"166 575 OFFCURVE",
"223 607 OFFCURVE",
"316 607 CURVE SMOOTH",
"399 607 OFFCURVE",
"458 572 OFFCURVE",
"458 507 CURVE SMOOTH",
"458 492 LINE",
"556 492 LINE",
"556 504 LINE SMOOTH",
"556 628 OFFCURVE",
"462 696 OFFCURVE",
"314 696 CURVE SMOOTH"
);
}
);
};
layerId = UUID0;
name = Regular;
paths = (
{
closed = 1;
nodes = (
"174 696 OFFCURVE",
"68 640 OFFCURVE",
"68 501 CURVE SMOOTH",
"68 257 OFFCURVE",
"476 358 OFFCURVE",
"476 182 CURVE SMOOTH",
"476 118 OFFCURVE",
"414 79 OFFCURVE",
"314 79 CURVE SMOOTH",
"214 79 OFFCURVE",
"150 115 OFFCURVE",
"150 194 CURVE",
"151 215 LINE",
"53 215 LINE",
"52 195 LINE",
"52 59 OFFCURVE",
"151 -10 OFFCURVE",
"313 -10 CURVE SMOOTH",
"470 -10 OFFCURVE",
"574 50 OFFCURVE",
"574 205 CURVE SMOOTH",
"574 449 OFFCURVE",
"166 359 OFFCURVE",
"166 516 CURVE SMOOTH",
"166 575 OFFCURVE",
"223 607 OFFCURVE",
"316 607 CURVE SMOOTH",
"399 607 OFFCURVE",
"458 572 OFFCURVE",
"458 507 CURVE SMOOTH",
"458 492 LINE",
"556 492 LINE",
"556 504 LINE SMOOTH",
"556 628 OFFCURVE",
"462 696 OFFCURVE",
"314 696 CURVE SMOOTH"
);
}
);
width = 627;
}
);
leftKerningGroup = S;
rightKerningGroup = S;
unicode = 0053;
},
{
glyphname = Scaron;
lastChange = "2014-09-05 18:36:08 +0000";
layers = (
{
background = {
paths = (
{
closed = 1;
nodes = (
"174 696 OFFCURVE",
"68 640 OFFCURVE",
"68 501 CURVE SMOOTH",
"68 257 OFFCURVE",
"476 358 OFFCURVE",
"476 182 CURVE SMOOTH",
"476 118 OFFCURVE",
"414 79 OFFCURVE",
"314 79 CURVE SMOOTH",
"214 79 OFFCURVE",
"150 115 OFFCURVE",
"150 194 CURVE",
"151 215 LINE",
"53 215 LINE",
"52 195 LINE",
"52 59 OFFCURVE",
"151 -10 OFFCURVE",
"313 -10 CURVE SMOOTH",
"470 -10 OFFCURVE",
"574 50 OFFCURVE",
"574 205 CURVE SMOOTH",
"574 449 OFFCURVE",
"166 359 OFFCURVE",
"166 516 CURVE SMOOTH",
"166 575 OFFCURVE",
"223 607 OFFCURVE",
"316 607 CURVE SMOOTH",
"399 607 OFFCURVE",
"458 572 OFFCURVE",
"458 507 CURVE SMOOTH",
"458 492 LINE",
"556 492 LINE",
"556 504 LINE SMOOTH",
"556 628 OFFCURVE",
"462 696 OFFCURVE",
"314 696 CURVE SMOOTH"
);
},
{
closed = 1;
nodes = (
"410 895 LINE",
"316 806 LINE",
"221 895 LINE",
"141 895 LINE",
"277 750 LINE",
"355 750 LINE",
"490 895 LINE"
);
}
);
};
layerId = UUID0;
name = Regular;
paths = (
{
closed = 1;
nodes = (
"174 696 OFFCURVE",
"68 640 OFFCURVE",
"68 501 CURVE SMOOTH",
"68 257 OFFCURVE",
"476 358 OFFCURVE",
"476 182 CURVE SMOOTH",
"476 118 OFFCURVE",
"414 79 OFFCURVE",
"314 79 CURVE SMOOTH",
"214 79 OFFCURVE",
"150 115 OFFCURVE",
"150 194 CURVE",
"151 215 LINE",
"53 215 LINE",
"52 195 LINE",
"52 59 OFFCURVE",
"151 -10 OFFCURVE",
"313 -10 CURVE SMOOTH",
"470 -10 OFFCURVE",
"574 50 OFFCURVE",
"574 205 CURVE SMOOTH",
"574 449 OFFCURVE",
"166 359 OFFCURVE",
"166 516 CURVE SMOOTH",
"166 575 OFFCURVE",
"223 607 OFFCURVE",
"316 607 CURVE SMOOTH",
"399 607 OFFCURVE",
"458 572 OFFCURVE",
"458 507 CURVE SMOOTH",
"458 492 LINE",
"556 492 LINE",
"556 504 LINE SMOOTH",
"556 628 OFFCURVE",
"462 696 OFFCURVE",
"314 696 CURVE SMOOTH"
);
},
{
closed = 1;
nodes = (
"410 895 LINE",
"316 806 LINE",
"221 895 LINE",
"141 895 LINE",
"277 750 LINE",
"355 750 LINE",
"490 895 LINE"
);
}
);
width = 627;
}
);
leftKerningGroup = S;
rightKerningGroup = S;
unicode = 0160;
},
{
glyphname = T;
lastChange = "2014-09-05 18:36:08 +0000";
layers = (
{
anchors = (
{
name = bottom;
position = "{289, 0}";
},
{
name = center;
position = "{289, 343}";
},
{
name = top;
position = "{289, 686}";
}
);
background = {
anchors = (
{
name = center;
position = "{289, 343}";
},
{
name = bottom;
position = "{289, 0}";
},
{
name = top;
position = "{289, 686}";
}
);
paths = (
{
closed = 1;
nodes = (
"25 686 LINE",
"25 597 LINE",
"240 597 LINE",
"240 0 LINE",
"338 0 LINE",
"338 597 LINE",
"553 597 LINE",
"553 686 LINE"
);
}
);
};
layerId = UUID0;
name = Regular;
paths = (
{
closed = 1;
nodes = (
"25 686 LINE",
"25 597 LINE",
"240 597 LINE",
"240 0 LINE",
"338 0 LINE",
"338 597 LINE",
"553 597 LINE",
"553 686 LINE"
);
}
);
width = 578;
}
);
unicode = 0054;
},
{
glyphname = U;
lastChange = "2014-09-05 18:59:41 +0000";
layers = (
{
anchors = (
{
name = ogonek;
position = "{432, 10}";
},
{
name = top;
position = "{340, 686}";
}
);
background = {
anchors = (
{
name = ogonek;
position = "{612, 10}";
},
{
name = top;
position = "{340, 686}";
}
);
paths = (
{
closed = 1;
nodes = (
"496 686 LINE",
"496 221 LINE SMOOTH",
"496 137 OFFCURVE",
"437 79 OFFCURVE",
"342 79 CURVE SMOOTH",
"251 79 OFFCURVE",
"184 135 OFFCURVE",
"184 221 CURVE SMOOTH",
"184 686 LINE",
"86 686 LINE",
"86 219 LINE SMOOTH",
"86 79 OFFCURVE",
"185 -10 OFFCURVE",
"333 -10 CURVE SMOOTH",
"346 -10 LINE SMOOTH",
"496 -10 OFFCURVE",
"594 81 OFFCURVE",
"594 219 CURVE SMOOTH",
"594 686 LINE"
);
}
);
};
layerId = UUID0;
name = Regular;
paths = (
{
closed = 1;
nodes = (
"496 686 LINE",
"496 221 LINE SMOOTH",
"496 137 OFFCURVE",
"437 79 OFFCURVE",
"342 79 CURVE SMOOTH",
"251 79 OFFCURVE",
"184 135 OFFCURVE",
"184 221 CURVE SMOOTH",
"184 686 LINE",
"86 686 LINE",
"86 219 LINE SMOOTH",
"86 79 OFFCURVE",
"185 -10 OFFCURVE",
"333 -10 CURVE SMOOTH",
"346 -10 LINE SMOOTH",
"496 -10 OFFCURVE",
"594 81 OFFCURVE",
"594 219 CURVE SMOOTH",
"594 686 LINE"
);
}
);
width = 680;
}
);
leftKerningGroup = U;
rightKerningGroup = U;
unicode = 0055;
},
{
glyphname = Uacute;
lastChange = "2014-09-05 18:36:08 +0000";
layers = (
{
background = {
paths = (
{
closed = 1;
nodes = (
"496 686 LINE",
"496 221 LINE SMOOTH",
"496 137 OFFCURVE",
"437 79 OFFCURVE",
"342 79 CURVE SMOOTH",
"251 79 OFFCURVE",
"184 135 OFFCURVE",
"184 221 CURVE SMOOTH",
"184 686 LINE",
"86 686 LINE",
"86 219 LINE SMOOTH",
"86 79 OFFCURVE",
"185 -10 OFFCURVE",
"333 -10 CURVE SMOOTH",
"346 -10 LINE SMOOTH",
"496 -10 OFFCURVE",
"594 81 OFFCURVE",
"594 219 CURVE SMOOTH",
"594 686 LINE"
);
},
{
closed = 1;
nodes = (
"398 895 LINE",
"304 750 LINE",
"373 750 LINE",
"489 892 LINE",
"488 895 LINE"
);
}
);
};
layerId = UUID0;
name = Regular;
paths = (
{
closed = 1;
nodes = (
"496 686 LINE",
"496 221 LINE SMOOTH",
"496 137 OFFCURVE",
"437 79 OFFCURVE",
"342 79 CURVE SMOOTH",
"251 79 OFFCURVE",
"184 135 OFFCURVE",
"184 221 CURVE SMOOTH",
"184 686 LINE",
"86 686 LINE",
"86 219 LINE SMOOTH",
"86 79 OFFCURVE",
"185 -10 OFFCURVE",
"333 -10 CURVE SMOOTH",
"346 -10 LINE SMOOTH",
"496 -10 OFFCURVE",
"594 81 OFFCURVE",
"594 219 CURVE SMOOTH",
"594 686 LINE"
);
},
{
closed = 1;
nodes = (
"398 895 LINE",
"304 750 LINE",
"373 750 LINE",
"489 892 LINE",
"488 895 LINE"
);
}
);
width = 680;
}
);
leftKerningGroup = U;
rightKerningGroup = U;
unicode = 00DA;
},
{
glyphname = Ucircumflex;
lastChange = "2014-09-05 18:36:08 +0000";
layers = (
{
background = {
paths = (
{
closed = 1;
nodes = (
"496 686 LINE",
"496 221 LINE SMOOTH",
"496 137 OFFCURVE",
"437 79 OFFCURVE",
"342 79 CURVE SMOOTH",
"251 79 OFFCURVE",
"184 135 OFFCURVE",
"184 221 CURVE SMOOTH",
"184 686 LINE",
"86 686 LINE",
"86 219 LINE SMOOTH",
"86 79 OFFCURVE",
"185 -10 OFFCURVE",
"333 -10 CURVE SMOOTH",
"346 -10 LINE SMOOTH",
"496 -10 OFFCURVE",
"594 81 OFFCURVE",
"594 219 CURVE SMOOTH",
"594 686 LINE"
);
},
{
closed = 1;
nodes = (
"301 895 LINE",
"165 750 LINE",
"245 750 LINE",
"340 839 LINE",
"434 750 LINE",
"514 750 LINE",
"379 895 LINE"
);
}
);
};
layerId = UUID0;
name = Regular;
paths = (
{
closed = 1;
nodes = (
"496 686 LINE",
"496 221 LINE SMOOTH",
"496 137 OFFCURVE",
"437 79 OFFCURVE",
"342 79 CURVE SMOOTH",
"251 79 OFFCURVE",
"184 135 OFFCURVE",
"184 221 CURVE SMOOTH",
"184 686 LINE",
"86 686 LINE",
"86 219 LINE SMOOTH",
"86 79 OFFCURVE",
"185 -10 OFFCURVE",
"333 -10 CURVE SMOOTH",
"346 -10 LINE SMOOTH",
"496 -10 OFFCURVE",
"594 81 OFFCURVE",
"594 219 CURVE SMOOTH",
"594 686 LINE"
);
},
{
closed = 1;
nodes = (
"301 895 LINE",
"165 750 LINE",
"245 750 LINE",
"340 839 LINE",
"434 750 LINE",
"514 750 LINE",
"379 895 LINE"
);
}
);
width = 680;
}
);
leftKerningGroup = U;
rightKerningGroup = U;
unicode = 00DB;
},
{
glyphname = Udieresis;
lastChange = "2014-09-05 18:36:08 +0000";
layers = (
{
background = {
paths = (
{
closed = 1;
nodes = (
"496 686 LINE",
"496 221 LINE SMOOTH",
"496 137 OFFCURVE",
"437 79 OFFCURVE",
"342 79 CURVE SMOOTH",
"251 79 OFFCURVE",
"184 135 OFFCURVE",
"184 221 CURVE SMOOTH",
"184 686 LINE",
"86 686 LINE",
"86 219 LINE SMOOTH",
"86 79 OFFCURVE",
"185 -10 OFFCURVE",
"333 -10 CURVE SMOOTH",
"346 -10 LINE SMOOTH",
"496 -10 OFFCURVE",
"594 81 OFFCURVE",
"594 219 CURVE SMOOTH",
"594 686 LINE"
);
},
{
closed = 1;
nodes = (
"201 848 LINE",
"201 750 LINE",
"291 750 LINE",
"291 848 LINE"
);
},
{
closed = 1;
nodes = (
"389 848 LINE",
"389 750 LINE",
"480 750 LINE",
"480 848 LINE"
);
}
);
};
layerId = UUID0;
name = Regular;
paths = (
{
closed = 1;
nodes = (
"496 686 LINE",
"496 221 LINE SMOOTH",
"496 137 OFFCURVE",
"437 79 OFFCURVE",
"342 79 CURVE SMOOTH",
"251 79 OFFCURVE",
"184 135 OFFCURVE",
"184 221 CURVE SMOOTH",
"184 686 LINE",
"86 686 LINE",
"86 219 LINE SMOOTH",
"86 79 OFFCURVE",
"185 -10 OFFCURVE",
"333 -10 CURVE SMOOTH",
"346 -10 LINE SMOOTH",
"496 -10 OFFCURVE",
"594 81 OFFCURVE",
"594 219 CURVE SMOOTH",
"594 686 LINE"
);
},
{
closed = 1;
nodes = (
"201 848 LINE",
"201 750 LINE",
"291 750 LINE",
"291 848 LINE"
);
},
{
closed = 1;
nodes = (
"389 848 LINE",
"389 750 LINE",
"480 750 LINE",
"480 848 LINE"
);
}
);
width = 680;
}
);
leftKerningGroup = U;
rightKerningGroup = U;
unicode = 00DC;
},
{
glyphname = Ugrave;
lastChange = "2014-09-05 18:36:08 +0000";
layers = (
{
background = {
paths = (
{
closed = 1;
nodes = (
"496 686 LINE",
"496 221 LINE SMOOTH",
"496 137 OFFCURVE",
"437 79 OFFCURVE",
"342 79 CURVE SMOOTH",
"251 79 OFFCURVE",
"184 135 OFFCURVE",
"184 221 CURVE SMOOTH",
"184 686 LINE",
"86 686 LINE",
"86 219 LINE SMOOTH",
"86 79 OFFCURVE",
"185 -10 OFFCURVE",
"333 -10 CURVE SMOOTH",
"346 -10 LINE SMOOTH",
"496 -10 OFFCURVE",
"594 81 OFFCURVE",
"594 219 CURVE SMOOTH",
"594 686 LINE"
);
},
{
closed = 1;
nodes = (
"199 895 LINE",
"198 892 LINE",
"313 750 LINE",
"383 750 LINE",
"288 895 LINE"
);
}
);
};
layerId = UUID0;
name = Regular;
paths = (
{
closed = 1;
nodes = (
"496 686 LINE",
"496 221 LINE SMOOTH",
"496 137 OFFCURVE",
"437 79 OFFCURVE",
"342 79 CURVE SMOOTH",
"251 79 OFFCURVE",
"184 135 OFFCURVE",
"184 221 CURVE SMOOTH",
"184 686 LINE",
"86 686 LINE",
"86 219 LINE SMOOTH",
"86 79 OFFCURVE",
"185 -10 OFFCURVE",
"333 -10 CURVE SMOOTH",
"346 -10 LINE SMOOTH",
"496 -10 OFFCURVE",
"594 81 OFFCURVE",
"594 219 CURVE SMOOTH",
"594 686 LINE"
);
},
{
closed = 1;
nodes = (
"199 895 LINE",
"198 892 LINE",
"313 750 LINE",
"383 750 LINE",
"288 895 LINE"
);
}
);
width = 680;
}
);
leftKerningGroup = U;
rightKerningGroup = U;
unicode = 00D9;
},
{
glyphname = V;
lastChange = "2014-09-05 18:36:08 +0000";
layers = (
{
background = {
paths = (
{
closed = 1;
nodes = (
"503 686 LINE",
"309 133 LINE",
"303 133 LINE",
"110 686 LINE",
"5 686 LINE",
"249 0 LINE",
"354 0 LINE",
"598 686 LINE"
);
}
);
};
layerId = UUID0;
name = Regular;
paths = (
{
closed = 1;
nodes = (
"503 686 LINE",
"309 133 LINE",
"303 133 LINE",
"110 686 LINE",
"5 686 LINE",
"249 0 LINE",
"354 0 LINE",
"598 686 LINE"
);
}
);
width = 603;
}
);
unicode = 0056;
},
{
glyphname = W;
lastChange = "2014-09-05 18:36:08 +0000";
layers = (
{
anchors = (
{
name = top;
position = "{458, 686}";
}
);
background = {
anchors = (
{
name = top;
position = "{458, 686}";
}
);
paths = (
{
closed = 1;
nodes = (
"808 686 LINE",
"662 169 LINE",
"656 169 LINE",
"511 686 LINE",
"416 686 LINE",
"270 169 LINE",
"264 169 LINE",
"119 686 LINE",
"14 686 LINE",
"210 0 LINE",
"310 0 LINE",
"455 496 LINE",
"462 496 LINE",
"602 0 LINE",
"702 0 LINE",
"903 686 LINE"
);
}
);
};
layerId = UUID0;
name = Regular;
paths = (
{
closed = 1;
nodes = (
"808 686 LINE",
"662 169 LINE",
"656 169 LINE",
"511 686 LINE",
"416 686 LINE",
"270 169 LINE",
"264 169 LINE",
"119 686 LINE",
"14 686 LINE",
"210 0 LINE",
"310 0 LINE",
"455 496 LINE",
"462 496 LINE",
"602 0 LINE",
"702 0 LINE",
"903 686 LINE"
);
}
);
width = 916;
}
);
unicode = 0057;
},
{
glyphname = X;
lastChange = "2014-09-05 18:36:08 +0000";
layers = (
{
background = {
paths = (
{
closed = 1;
nodes = (
"490 685 LINE",
"476 665 LINE SMOOTH",
"449 627 OFFCURVE",
"388 538 OFFCURVE",
"318 440 CURVE",
"150 685 LINE",
"32 685 LINE",
"259 355 LINE",
"9 0 LINE",
"118 0 LINE",
"313 276 LINE",
"503 0 LINE",
"621 0 LINE",
"372 361 LINE",
"580 658 LINE",
"599 685 LINE"
);
}
);
};
layerId = UUID0;
name = Regular;
paths = (
{
closed = 1;
nodes = (
"490 685 LINE",
"476 665 LINE SMOOTH",
"449 627 OFFCURVE",
"388 538 OFFCURVE",
"318 440 CURVE",
"150 685 LINE",
"32 685 LINE",
"259 355 LINE",
"9 0 LINE",
"118 0 LINE",
"313 276 LINE",
"503 0 LINE",
"621 0 LINE",
"372 361 LINE",
"580 658 LINE",
"599 685 LINE"
);
}
);
width = 631;
}
);
unicode = 0058;
},
{
glyphname = Y;
lastChange = "2014-09-05 18:36:08 +0000";
layers = (
{
anchors = (
{
name = top;
position = "{286, 686}";
}
);
background = {
anchors = (
{
name = top;
position = "{286, 686}";
}
);
paths = (
{
closed = 1;
nodes = (
"475 686 LINE",
"294 367 LINE",
"290 367 LINE",
"107 686 LINE",
"-5 686 LINE",
"237 265 LINE",
"237 0 LINE",
"335 0 LINE",
"335 265 LINE",
"576 686 LINE"
);
}
);
};
layerId = UUID0;
name = Regular;
paths = (
{
closed = 1;
nodes = (
"475 686 LINE",
"294 367 LINE",
"290 367 LINE",
"107 686 LINE",
"-5 686 LINE",
"237 265 LINE",
"237 0 LINE",
"335 0 LINE",
"335 265 LINE",
"576 686 LINE"
);
}
);
width = 572;
}
);
leftKerningGroup = Y;
rightKerningGroup = Y;
unicode = 0059;
},
{
glyphname = Yacute;
lastChange = "2014-09-05 18:36:08 +0000";
layers = (
{
background = {
paths = (
{
closed = 1;
nodes = (
"475 686 LINE",
"294 367 LINE",
"290 367 LINE",
"107 686 LINE",
"-5 686 LINE",
"237 265 LINE",
"237 0 LINE",
"335 0 LINE",
"335 265 LINE",
"576 686 LINE"
);
},
{
closed = 1;
nodes = (
"353 895 LINE",
"259 750 LINE",
"328 750 LINE",
"444 892 LINE",
"443 895 LINE"
);
}
);
};
layerId = UUID0;
name = Regular;
paths = (
{
closed = 1;
nodes = (
"475 686 LINE",
"294 367 LINE",
"290 367 LINE",
"107 686 LINE",
"-5 686 LINE",
"237 265 LINE",
"237 0 LINE",
"335 0 LINE",
"335 265 LINE",
"576 686 LINE"
);
},
{
closed = 1;
nodes = (
"353 895 LINE",
"259 750 LINE",
"328 750 LINE",
"444 892 LINE",
"443 895 LINE"
);
}
);
width = 572;
}
);
leftKerningGroup = Y;
rightKerningGroup = Y;
unicode = 00DD;
},
{
glyphname = Ydieresis;
lastChange = "2014-09-05 18:36:08 +0000";
layers = (
{
background = {
paths = (
{
closed = 1;
nodes = (
"475 686 LINE",
"294 367 LINE",
"290 367 LINE",
"107 686 LINE",
"-5 686 LINE",
"237 265 LINE",
"237 0 LINE",
"335 0 LINE",
"335 265 LINE",
"576 686 LINE"
);
},
{
closed = 1;
nodes = (
"158 847 LINE",
"158 749 LINE",
"248 749 LINE",
"248 847 LINE"
);
},
{
closed = 1;
nodes = (
"346 847 LINE",
"346 749 LINE",
"437 749 LINE",
"437 847 LINE"
);
}
);
};
layerId = UUID0;
name = Regular;
paths = (
{
closed = 1;
nodes = (
"475 686 LINE",
"294 367 LINE",
"290 367 LINE",
"107 686 LINE",
"-5 686 LINE",
"237 265 LINE",
"237 0 LINE",
"335 0 LINE",
"335 265 LINE",
"576 686 LINE"
);
},
{
closed = 1;
nodes = (
"158 847 LINE",
"158 749 LINE",
"248 749 LINE",
"248 847 LINE"
);
},
{
closed = 1;
nodes = (
"346 847 LINE",
"346 749 LINE",
"437 749 LINE",
"437 847 LINE"
);
}
);
width = 572;
}
);
leftKerningGroup = Y;
rightKerningGroup = Y;
unicode = 0178;
},
{
glyphname = Z;
lastChange = "2014-09-05 18:36:08 +0000";
layers = (
{
anchors = (
{
name = top;
position = "{298, 686}";
}
);
background = {
anchors = (
{
name = top;
position = "{298, 686}";
}
);
paths = (
{
closed = 1;
nodes = (
"56 686 LINE",
"56 597 LINE",
"397 597 LINE",
"32 38 LINE",
"32 0 LINE",
"555 0 LINE",
"555 89 LINE",
"181 89 LINE",
"547 648 LINE",
"547 686 LINE"
);
}
);
};
layerId = UUID0;
name = Regular;
paths = (
{
closed = 1;
nodes = (
"56 686 LINE",
"56 597 LINE",
"397 597 LINE",
"32 38 LINE",
"32 0 LINE",
"555 0 LINE",
"555 89 LINE",
"181 89 LINE",
"547 648 LINE",
"547 686 LINE"
);
}
);
width = 596;
}
);
leftKerningGroup = Z;
rightKerningGroup = Z;
unicode = 005A;
},
{
glyphname = Zcaron;
lastChange = "2014-09-05 18:36:08 +0000";
layers = (
{
background = {
paths = (
{
closed = 1;
nodes = (
"56 686 LINE",
"56 597 LINE",
"397 597 LINE",
"32 38 LINE",
"32 0 LINE",
"555 0 LINE",
"555 89 LINE",
"181 89 LINE",
"547 648 LINE",
"547 686 LINE"
);
},
{
closed = 1;
nodes = (
"394 895 LINE",
"300 806 LINE",
"205 895 LINE",
"125 895 LINE",
"261 750 LINE",
"339 750 LINE",
"474 895 LINE"
);
}
);
};
layerId = UUID0;
name = Regular;
paths = (
{
closed = 1;
nodes = (
"56 686 LINE",
"56 597 LINE",
"397 597 LINE",
"32 38 LINE",
"32 0 LINE",
"555 0 LINE",
"555 89 LINE",
"181 89 LINE",
"547 648 LINE",
"547 686 LINE"
);
},
{
closed = 1;
nodes = (
"394 895 LINE",
"300 806 LINE",
"205 895 LINE",
"125 895 LINE",
"261 750 LINE",
"339 750 LINE",
"474 895 LINE"
);
}
);
width = 596;
}
);
leftKerningGroup = Z;
rightKerningGroup = Z;
unicode = 017D;
},
{
glyphname = a;
lastChange = "2014-09-05 18:36:08 +0000";
layers = (
{
anchors = (
{
name = ogonek;
position = "{526, 10}";
},
{
name = top;
position = "{293, 511}";
}
);
background = {
anchors = (
{
name = ogonek;
position = "{526, 10}";
},
{
name = top;
position = "{293, 511}";
}
);
paths = (
{
closed = 1;
nodes = (
"275 521 LINE SMOOTH",
"156 521 OFFCURVE",
"65 458 OFFCURVE",
"65 387 CURVE SMOOTH",
"65 372 OFFCURVE",
"66 361 OFFCURVE",
"67 354 CURVE",
"159 354 LINE",
"159 366 LINE SMOOTH",
"159 417 OFFCURVE",
"201 446 OFFCURVE",
"273 446 CURVE SMOOTH",
"344 446 OFFCURVE",
"390 425 OFFCURVE",
"390 354 CURVE SMOOTH",
"390 307 LINE",
"133 307 OFFCURVE",
"48 263 OFFCURVE",
"48 142 CURVE SMOOTH",
"48 35 OFFCURVE",
"105 -10 OFFCURVE",
"215 -10 CURVE SMOOTH",
"294 -10 OFFCURVE",
"353 21 OFFCURVE",
"394 82 CURVE",
"397 29 OFFCURVE",
"421 -10 OFFCURVE",
"481 -10 CURVE SMOOTH",
"510 -10 OFFCURVE",
"536 -3 OFFCURVE",
"558 10 CURVE",
"558 79 LINE",
"543 70 OFFCURVE",
"528 65 OFFCURVE",
"512 65 CURVE SMOOTH",
"497 65 OFFCURVE",
"484 75 OFFCURVE",
"484 100 CURVE SMOOTH",
"484 365 LINE SMOOTH",
"484 465 OFFCURVE",
"420 521 OFFCURVE",
"284 521 CURVE SMOOTH"
);
},
{
closed = 1;
nodes = (
"390 214 LINE SMOOTH",
"390 122 OFFCURVE",
"321 65 OFFCURVE",
"247 65 CURVE SMOOTH",
"177 65 OFFCURVE",
"142 88 OFFCURVE",
"142 134 CURVE SMOOTH",
"142 202 OFFCURVE",
"175 234 OFFCURVE",
"390 234 CURVE"
);
}
);
};
layerId = UUID0;
name = Regular;
paths = (
{
closed = 1;
nodes = (
"275 521 LINE SMOOTH",
"156 521 OFFCURVE",
"65 458 OFFCURVE",
"65 387 CURVE SMOOTH",
"65 372 OFFCURVE",
"66 361 OFFCURVE",
"67 354 CURVE",
"159 354 LINE",
"159 366 LINE SMOOTH",
"159 417 OFFCURVE",
"201 446 OFFCURVE",
"273 446 CURVE SMOOTH",
"344 446 OFFCURVE",
"390 425 OFFCURVE",
"390 354 CURVE SMOOTH",
"390 307 LINE",
"133 307 OFFCURVE",
"48 263 OFFCURVE",
"48 142 CURVE SMOOTH",
"48 35 OFFCURVE",
"105 -10 OFFCURVE",
"215 -10 CURVE SMOOTH",
"294 -10 OFFCURVE",
"353 21 OFFCURVE",
"394 82 CURVE",
"397 29 OFFCURVE",
"421 -10 OFFCURVE",
"481 -10 CURVE SMOOTH",
"510 -10 OFFCURVE",
"536 -3 OFFCURVE",
"558 10 CURVE",
"558 79 LINE",
"543 70 OFFCURVE",
"528 65 OFFCURVE",
"512 65 CURVE SMOOTH",
"497 65 OFFCURVE",
"484 75 OFFCURVE",
"484 100 CURVE SMOOTH",
"484 365 LINE SMOOTH",
"484 465 OFFCURVE",
"420 521 OFFCURVE",
"284 521 CURVE SMOOTH"
);
},
{
closed = 1;
nodes = (
"390 214 LINE SMOOTH",
"390 122 OFFCURVE",
"321 65 OFFCURVE",
"247 65 CURVE SMOOTH",
"177 65 OFFCURVE",
"142 88 OFFCURVE",
"142 134 CURVE SMOOTH",
"142 202 OFFCURVE",
"175 234 OFFCURVE",
"390 234 CURVE"
);
}
);
width = 585;
}
);
leftKerningGroup = a;
rightKerningGroup = a;
unicode = 0061;
},
{
glyphname = aacute;
lastChange = "2014-09-05 18:36:08 +0000";
layers = (
{
background = {
paths = (
{
closed = 1;
nodes = (
"275 521 LINE SMOOTH",
"156 521 OFFCURVE",
"65 458 OFFCURVE",
"65 387 CURVE SMOOTH",
"65 372 OFFCURVE",
"66 361 OFFCURVE",
"67 354 CURVE",
"159 354 LINE",
"159 366 LINE SMOOTH",
"159 417 OFFCURVE",
"201 446 OFFCURVE",
"273 446 CURVE SMOOTH",
"344 446 OFFCURVE",
"390 425 OFFCURVE",
"390 354 CURVE SMOOTH",
"390 307 LINE",
"133 307 OFFCURVE",
"48 263 OFFCURVE",
"48 142 CURVE SMOOTH",
"48 35 OFFCURVE",
"105 -10 OFFCURVE",
"215 -10 CURVE SMOOTH",
"294 -10 OFFCURVE",
"353 21 OFFCURVE",
"394 82 CURVE",
"397 29 OFFCURVE",
"421 -10 OFFCURVE",
"481 -10 CURVE SMOOTH",
"510 -10 OFFCURVE",
"536 -3 OFFCURVE",
"558 10 CURVE",
"558 79 LINE",
"543 70 OFFCURVE",
"528 65 OFFCURVE",
"512 65 CURVE SMOOTH",
"497 65 OFFCURVE",
"484 75 OFFCURVE",
"484 100 CURVE SMOOTH",
"484 365 LINE SMOOTH",
"484 465 OFFCURVE",
"420 521 OFFCURVE",
"284 521 CURVE SMOOTH"
);
},
{
closed = 1;
nodes = (
"390 214 LINE SMOOTH",
"390 122 OFFCURVE",
"321 65 OFFCURVE",
"247 65 CURVE SMOOTH",
"177 65 OFFCURVE",
"142 88 OFFCURVE",
"142 134 CURVE SMOOTH",
"142 202 OFFCURVE",
"175 234 OFFCURVE",
"390 234 CURVE"
);
},
{
closed = 1;
nodes = (
"340 720 LINE",
"246 575 LINE",
"315 575 LINE",
"431 717 LINE",
"430 720 LINE"
);
}
);
};
layerId = UUID0;
name = Regular;
paths = (
{
closed = 1;
nodes = (
"275 521 LINE SMOOTH",
"156 521 OFFCURVE",
"65 458 OFFCURVE",
"65 387 CURVE SMOOTH",
"65 372 OFFCURVE",
"66 361 OFFCURVE",
"67 354 CURVE",
"159 354 LINE",
"159 366 LINE SMOOTH",
"159 417 OFFCURVE",
"201 446 OFFCURVE",
"273 446 CURVE SMOOTH",
"344 446 OFFCURVE",
"390 425 OFFCURVE",
"390 354 CURVE SMOOTH",
"390 307 LINE",
"133 307 OFFCURVE",
"48 263 OFFCURVE",
"48 142 CURVE SMOOTH",
"48 35 OFFCURVE",
"105 -10 OFFCURVE",
"215 -10 CURVE SMOOTH",
"294 -10 OFFCURVE",
"353 21 OFFCURVE",
"394 82 CURVE",
"397 29 OFFCURVE",
"421 -10 OFFCURVE",
"481 -10 CURVE SMOOTH",
"510 -10 OFFCURVE",
"536 -3 OFFCURVE",
"558 10 CURVE",
"558 79 LINE",
"543 70 OFFCURVE",
"528 65 OFFCURVE",
"512 65 CURVE SMOOTH",
"497 65 OFFCURVE",
"484 75 OFFCURVE",
"484 100 CURVE SMOOTH",
"484 365 LINE SMOOTH",
"484 465 OFFCURVE",
"420 521 OFFCURVE",
"284 521 CURVE SMOOTH"
);
},
{
closed = 1;
nodes = (
"390 214 LINE SMOOTH",
"390 122 OFFCURVE",
"321 65 OFFCURVE",
"247 65 CURVE SMOOTH",
"177 65 OFFCURVE",
"142 88 OFFCURVE",
"142 134 CURVE SMOOTH",
"142 202 OFFCURVE",
"175 234 OFFCURVE",
"390 234 CURVE"
);
},
{
closed = 1;
nodes = (
"340 720 LINE",
"246 575 LINE",
"315 575 LINE",
"431 717 LINE",
"430 720 LINE"
);
}
);
width = 585;
}
);
leftKerningGroup = a;
rightKerningGroup = a;
unicode = 00E1;
},
{
glyphname = acircumflex;
lastChange = "2014-09-05 18:36:08 +0000";
layers = (
{
background = {
paths = (
{
closed = 1;
nodes = (
"275 521 LINE SMOOTH",
"156 521 OFFCURVE",
"65 458 OFFCURVE",
"65 387 CURVE SMOOTH",
"65 372 OFFCURVE",
"66 361 OFFCURVE",
"67 354 CURVE",
"159 354 LINE",
"159 366 LINE SMOOTH",
"159 417 OFFCURVE",
"201 446 OFFCURVE",
"273 446 CURVE SMOOTH",
"344 446 OFFCURVE",
"390 425 OFFCURVE",
"390 354 CURVE SMOOTH",
"390 307 LINE",
"133 307 OFFCURVE",
"48 263 OFFCURVE",
"48 142 CURVE SMOOTH",
"48 35 OFFCURVE",
"105 -10 OFFCURVE",
"215 -10 CURVE SMOOTH",
"294 -10 OFFCURVE",
"353 21 OFFCURVE",
"394 82 CURVE",
"397 29 OFFCURVE",
"421 -10 OFFCURVE",
"481 -10 CURVE SMOOTH",
"510 -10 OFFCURVE",
"536 -3 OFFCURVE",
"558 10 CURVE",
"558 79 LINE",
"543 70 OFFCURVE",
"528 65 OFFCURVE",
"512 65 CURVE SMOOTH",
"497 65 OFFCURVE",
"484 75 OFFCURVE",
"484 100 CURVE SMOOTH",
"484 365 LINE SMOOTH",
"484 465 OFFCURVE",
"420 521 OFFCURVE",
"284 521 CURVE SMOOTH"
);
},
{
closed = 1;
nodes = (
"390 214 LINE SMOOTH",
"390 122 OFFCURVE",
"321 65 OFFCURVE",
"247 65 CURVE SMOOTH",
"177 65 OFFCURVE",
"142 88 OFFCURVE",
"142 134 CURVE SMOOTH",
"142 202 OFFCURVE",
"175 234 OFFCURVE",
"390 234 CURVE"
);
},
{
closed = 1;
nodes = (
"239 720 LINE",
"103 575 LINE",
"183 575 LINE",
"278 664 LINE",
"372 575 LINE",
"452 575 LINE",
"317 720 LINE"
);
}
);
};
layerId = UUID0;
name = Regular;
paths = (
{
closed = 1;
nodes = (
"275 521 LINE SMOOTH",
"156 521 OFFCURVE",
"65 458 OFFCURVE",
"65 387 CURVE SMOOTH",
"65 372 OFFCURVE",
"66 361 OFFCURVE",
"67 354 CURVE",
"159 354 LINE",
"159 366 LINE SMOOTH",
"159 417 OFFCURVE",
"201 446 OFFCURVE",
"273 446 CURVE SMOOTH",
"344 446 OFFCURVE",
"390 425 OFFCURVE",
"390 354 CURVE SMOOTH",
"390 307 LINE",
"133 307 OFFCURVE",
"48 263 OFFCURVE",
"48 142 CURVE SMOOTH",
"48 35 OFFCURVE",
"105 -10 OFFCURVE",
"215 -10 CURVE SMOOTH",
"294 -10 OFFCURVE",
"353 21 OFFCURVE",
"394 82 CURVE",
"397 29 OFFCURVE",
"421 -10 OFFCURVE",
"481 -10 CURVE SMOOTH",
"510 -10 OFFCURVE",
"536 -3 OFFCURVE",
"558 10 CURVE",
"558 79 LINE",
"543 70 OFFCURVE",
"528 65 OFFCURVE",
"512 65 CURVE SMOOTH",
"497 65 OFFCURVE",
"484 75 OFFCURVE",
"484 100 CURVE SMOOTH",
"484 365 LINE SMOOTH",
"484 465 OFFCURVE",
"420 521 OFFCURVE",
"284 521 CURVE SMOOTH"
);
},
{
closed = 1;
nodes = (
"390 214 LINE SMOOTH",
"390 122 OFFCURVE",
"321 65 OFFCURVE",
"247 65 CURVE SMOOTH",
"177 65 OFFCURVE",
"142 88 OFFCURVE",
"142 134 CURVE SMOOTH",
"142 202 OFFCURVE",
"175 234 OFFCURVE",
"390 234 CURVE"
);
},
{
closed = 1;
nodes = (
"239 720 LINE",
"103 575 LINE",
"183 575 LINE",
"278 664 LINE",
"372 575 LINE",
"452 575 LINE",
"317 720 LINE"
);
}
);
width = 585;
}
);
leftKerningGroup = a;
rightKerningGroup = a;
unicode = 00E2;
},
{
glyphname = adieresis;
lastChange = "2014-09-05 18:36:08 +0000";
layers = (
{
background = {
paths = (
{
closed = 1;
nodes = (
"275 521 LINE SMOOTH",
"156 521 OFFCURVE",
"65 458 OFFCURVE",
"65 387 CURVE SMOOTH",
"65 372 OFFCURVE",
"66 361 OFFCURVE",
"67 354 CURVE",
"159 354 LINE",
"159 366 LINE SMOOTH",
"159 417 OFFCURVE",
"201 446 OFFCURVE",
"273 446 CURVE SMOOTH",
"344 446 OFFCURVE",
"390 425 OFFCURVE",
"390 354 CURVE SMOOTH",
"390 307 LINE",
"133 307 OFFCURVE",
"48 263 OFFCURVE",
"48 142 CURVE SMOOTH",
"48 35 OFFCURVE",
"105 -10 OFFCURVE",
"215 -10 CURVE SMOOTH",
"294 -10 OFFCURVE",
"353 21 OFFCURVE",
"394 82 CURVE",
"397 29 OFFCURVE",
"421 -10 OFFCURVE",
"481 -10 CURVE SMOOTH",
"510 -10 OFFCURVE",
"536 -3 OFFCURVE",
"558 10 CURVE",
"558 79 LINE",
"543 70 OFFCURVE",
"528 65 OFFCURVE",
"512 65 CURVE SMOOTH",
"497 65 OFFCURVE",
"484 75 OFFCURVE",
"484 100 CURVE SMOOTH",
"484 365 LINE SMOOTH",
"484 465 OFFCURVE",
"420 521 OFFCURVE",
"284 521 CURVE SMOOTH"
);
},
{
closed = 1;
nodes = (
"390 214 LINE SMOOTH",
"390 122 OFFCURVE",
"321 65 OFFCURVE",
"247 65 CURVE SMOOTH",
"177 65 OFFCURVE",
"142 88 OFFCURVE",
"142 134 CURVE SMOOTH",
"142 202 OFFCURVE",
"175 234 OFFCURVE",
"390 234 CURVE"
);
},
{
closed = 1;
nodes = (
"136 720 LINE",
"136 622 LINE",
"226 622 LINE",
"226 720 LINE"
);
},
{
closed = 1;
nodes = (
"324 720 LINE",
"324 622 LINE",
"415 622 LINE",
"415 720 LINE"
);
}
);
};
layerId = UUID0;
name = Regular;
paths = (
{
closed = 1;
nodes = (
"275 521 LINE SMOOTH",
"156 521 OFFCURVE",
"65 458 OFFCURVE",
"65 387 CURVE SMOOTH",
"65 372 OFFCURVE",
"66 361 OFFCURVE",
"67 354 CURVE",
"159 354 LINE",
"159 366 LINE SMOOTH",
"159 417 OFFCURVE",
"201 446 OFFCURVE",
"273 446 CURVE SMOOTH",
"344 446 OFFCURVE",
"390 425 OFFCURVE",
"390 354 CURVE SMOOTH",
"390 307 LINE",
"133 307 OFFCURVE",
"48 263 OFFCURVE",
"48 142 CURVE SMOOTH",
"48 35 OFFCURVE",
"105 -10 OFFCURVE",
"215 -10 CURVE SMOOTH",
"294 -10 OFFCURVE",
"353 21 OFFCURVE",
"394 82 CURVE",
"397 29 OFFCURVE",
"421 -10 OFFCURVE",
"481 -10 CURVE SMOOTH",
"510 -10 OFFCURVE",
"536 -3 OFFCURVE",
"558 10 CURVE",
"558 79 LINE",
"543 70 OFFCURVE",
"528 65 OFFCURVE",
"512 65 CURVE SMOOTH",
"497 65 OFFCURVE",
"484 75 OFFCURVE",
"484 100 CURVE SMOOTH",
"484 365 LINE SMOOTH",
"484 465 OFFCURVE",
"420 521 OFFCURVE",
"284 521 CURVE SMOOTH"
);
},
{
closed = 1;
nodes = (
"390 214 LINE SMOOTH",
"390 122 OFFCURVE",
"321 65 OFFCURVE",
"247 65 CURVE SMOOTH",
"177 65 OFFCURVE",
"142 88 OFFCURVE",
"142 134 CURVE SMOOTH",
"142 202 OFFCURVE",
"175 234 OFFCURVE",
"390 234 CURVE"
);
},
{
closed = 1;
nodes = (
"136 720 LINE",
"136 622 LINE",
"226 622 LINE",
"226 720 LINE"
);
},
{
closed = 1;
nodes = (
"324 720 LINE",
"324 622 LINE",
"415 622 LINE",
"415 720 LINE"
);
}
);
width = 585;
}
);
leftKerningGroup = a;
rightKerningGroup = a;
unicode = 00E4;
},
{
glyphname = agrave;
lastChange = "2014-09-05 18:36:08 +0000";
layers = (
{
background = {
paths = (
{
closed = 1;
nodes = (
"275 521 LINE SMOOTH",
"156 521 OFFCURVE",
"65 458 OFFCURVE",
"65 387 CURVE SMOOTH",
"65 372 OFFCURVE",
"66 361 OFFCURVE",
"67 354 CURVE",
"159 354 LINE",
"159 366 LINE SMOOTH",
"159 417 OFFCURVE",
"201 446 OFFCURVE",
"273 446 CURVE SMOOTH",
"344 446 OFFCURVE",
"390 425 OFFCURVE",
"390 354 CURVE SMOOTH",
"390 307 LINE",
"133 307 OFFCURVE",
"48 263 OFFCURVE",
"48 142 CURVE SMOOTH",
"48 35 OFFCURVE",
"105 -10 OFFCURVE",
"215 -10 CURVE SMOOTH",
"294 -10 OFFCURVE",
"353 21 OFFCURVE",
"394 82 CURVE",
"397 29 OFFCURVE",
"421 -10 OFFCURVE",
"481 -10 CURVE SMOOTH",
"510 -10 OFFCURVE",
"536 -3 OFFCURVE",
"558 10 CURVE",
"558 79 LINE",
"543 70 OFFCURVE",
"528 65 OFFCURVE",
"512 65 CURVE SMOOTH",
"497 65 OFFCURVE",
"484 75 OFFCURVE",
"484 100 CURVE SMOOTH",
"484 365 LINE SMOOTH",
"484 465 OFFCURVE",
"420 521 OFFCURVE",
"284 521 CURVE SMOOTH"
);
},
{
closed = 1;
nodes = (
"390 214 LINE SMOOTH",
"390 122 OFFCURVE",
"321 65 OFFCURVE",
"247 65 CURVE SMOOTH",
"177 65 OFFCURVE",
"142 88 OFFCURVE",
"142 134 CURVE SMOOTH",
"142 202 OFFCURVE",
"175 234 OFFCURVE",
"390 234 CURVE"
);
},
{
closed = 1;
nodes = (
"130 720 LINE",
"129 717 LINE",
"244 575 LINE",
"314 575 LINE",
"219 720 LINE"
);
}
);
};
layerId = UUID0;
name = Regular;
paths = (
{
closed = 1;
nodes = (
"275 521 LINE SMOOTH",
"156 521 OFFCURVE",
"65 458 OFFCURVE",
"65 387 CURVE SMOOTH",
"65 372 OFFCURVE",
"66 361 OFFCURVE",
"67 354 CURVE",
"159 354 LINE",
"159 366 LINE SMOOTH",
"159 417 OFFCURVE",
"201 446 OFFCURVE",
"273 446 CURVE SMOOTH",
"344 446 OFFCURVE",
"390 425 OFFCURVE",
"390 354 CURVE SMOOTH",
"390 307 LINE",
"133 307 OFFCURVE",
"48 263 OFFCURVE",
"48 142 CURVE SMOOTH",
"48 35 OFFCURVE",
"105 -10 OFFCURVE",
"215 -10 CURVE SMOOTH",
"294 -10 OFFCURVE",
"353 21 OFFCURVE",
"394 82 CURVE",
"397 29 OFFCURVE",
"421 -10 OFFCURVE",
"481 -10 CURVE SMOOTH",
"510 -10 OFFCURVE",
"536 -3 OFFCURVE",
"558 10 CURVE",
"558 79 LINE",
"543 70 OFFCURVE",
"528 65 OFFCURVE",
"512 65 CURVE SMOOTH",
"497 65 OFFCURVE",
"484 75 OFFCURVE",
"484 100 CURVE SMOOTH",
"484 365 LINE SMOOTH",
"484 465 OFFCURVE",
"420 521 OFFCURVE",
"284 521 CURVE SMOOTH"
);
},
{
closed = 1;
nodes = (
"390 214 LINE SMOOTH",
"390 122 OFFCURVE",
"321 65 OFFCURVE",
"247 65 CURVE SMOOTH",
"177 65 OFFCURVE",
"142 88 OFFCURVE",
"142 134 CURVE SMOOTH",
"142 202 OFFCURVE",
"175 234 OFFCURVE",
"390 234 CURVE"
);
},
{
closed = 1;
nodes = (
"130 720 LINE",
"129 717 LINE",
"244 575 LINE",
"314 575 LINE",
"219 720 LINE"
);
}
);
width = 585;
}
);
leftKerningGroup = a;
rightKerningGroup = a;
unicode = 00E0;
},
{
glyphname = aring;
lastChange = "2014-09-05 18:36:08 +0000";
layers = (
{
background = {
paths = (
{
closed = 1;
nodes = (
"275 521 LINE SMOOTH",
"156 521 OFFCURVE",
"65 458 OFFCURVE",
"65 387 CURVE SMOOTH",
"65 372 OFFCURVE",
"66 361 OFFCURVE",
"67 354 CURVE",
"159 354 LINE",
"159 366 LINE SMOOTH",
"159 417 OFFCURVE",
"201 446 OFFCURVE",
"273 446 CURVE SMOOTH",
"344 446 OFFCURVE",
"390 425 OFFCURVE",
"390 354 CURVE SMOOTH",
"390 307 LINE",
"133 307 OFFCURVE",
"48 263 OFFCURVE",
"48 142 CURVE SMOOTH",
"48 35 OFFCURVE",
"105 -10 OFFCURVE",
"215 -10 CURVE SMOOTH",
"294 -10 OFFCURVE",
"353 21 OFFCURVE",
"394 82 CURVE",
"397 29 OFFCURVE",
"421 -10 OFFCURVE",
"481 -10 CURVE SMOOTH",
"510 -10 OFFCURVE",
"536 -3 OFFCURVE",
"558 10 CURVE",
"558 79 LINE",
"543 70 OFFCURVE",
"528 65 OFFCURVE",
"512 65 CURVE SMOOTH",
"497 65 OFFCURVE",
"484 75 OFFCURVE",
"484 100 CURVE SMOOTH",
"484 365 LINE SMOOTH",
"484 465 OFFCURVE",
"420 521 OFFCURVE",
"284 521 CURVE SMOOTH"
);
},
{
closed = 1;
nodes = (
"390 214 LINE SMOOTH",
"390 122 OFFCURVE",
"321 65 OFFCURVE",
"247 65 CURVE SMOOTH",
"177 65 OFFCURVE",
"142 88 OFFCURVE",
"142 134 CURVE SMOOTH",
"142 202 OFFCURVE",
"175 234 OFFCURVE",
"390 234 CURVE"
);
},
{
closed = 1;
nodes = (
"221 757 OFFCURVE",
"176 712 OFFCURVE",
"176 656 CURVE SMOOTH",
"176 598 OFFCURVE",
"223 556 OFFCURVE",
"277 556 CURVE SMOOTH",
"333 556 OFFCURVE",
"378 601 OFFCURVE",
"378 656 CURVE SMOOTH",
"378 715 OFFCURVE",
"329 757 OFFCURVE",
"277 757 CURVE SMOOTH"
);
},
{
closed = 1;
nodes = (
"308 710 OFFCURVE",
"333 686 OFFCURVE",
"333 657 CURVE SMOOTH",
"333 626 OFFCURVE",
"308 603 OFFCURVE",
"277 603 CURVE SMOOTH",
"246 603 OFFCURVE",
"221 625 OFFCURVE",
"221 656 CURVE SMOOTH",
"221 687 OFFCURVE",
"246 710 OFFCURVE",
"277 710 CURVE SMOOTH"
);
}
);
};
layerId = UUID0;
name = Regular;
paths = (
{
closed = 1;
nodes = (
"275 521 LINE SMOOTH",
"156 521 OFFCURVE",
"65 458 OFFCURVE",
"65 387 CURVE SMOOTH",
"65 372 OFFCURVE",
"66 361 OFFCURVE",
"67 354 CURVE",
"159 354 LINE",
"159 366 LINE SMOOTH",
"159 417 OFFCURVE",
"201 446 OFFCURVE",
"273 446 CURVE SMOOTH",
"344 446 OFFCURVE",
"390 425 OFFCURVE",
"390 354 CURVE SMOOTH",
"390 307 LINE",
"133 307 OFFCURVE",
"48 263 OFFCURVE",
"48 142 CURVE SMOOTH",
"48 35 OFFCURVE",
"105 -10 OFFCURVE",
"215 -10 CURVE SMOOTH",
"294 -10 OFFCURVE",
"353 21 OFFCURVE",
"394 82 CURVE",
"397 29 OFFCURVE",
"421 -10 OFFCURVE",
"481 -10 CURVE SMOOTH",
"510 -10 OFFCURVE",
"536 -3 OFFCURVE",
"558 10 CURVE",
"558 79 LINE",
"543 70 OFFCURVE",
"528 65 OFFCURVE",
"512 65 CURVE SMOOTH",
"497 65 OFFCURVE",
"484 75 OFFCURVE",
"484 100 CURVE SMOOTH",
"484 365 LINE SMOOTH",
"484 465 OFFCURVE",
"420 521 OFFCURVE",
"284 521 CURVE SMOOTH"
);
},
{
closed = 1;
nodes = (
"390 214 LINE SMOOTH",
"390 122 OFFCURVE",
"321 65 OFFCURVE",
"247 65 CURVE SMOOTH",
"177 65 OFFCURVE",
"142 88 OFFCURVE",
"142 134 CURVE SMOOTH",
"142 202 OFFCURVE",
"175 234 OFFCURVE",
"390 234 CURVE"
);
},
{
closed = 1;
nodes = (
"221 757 OFFCURVE",
"176 712 OFFCURVE",
"176 656 CURVE SMOOTH",
"176 598 OFFCURVE",
"223 556 OFFCURVE",
"277 556 CURVE SMOOTH",
"333 556 OFFCURVE",
"378 601 OFFCURVE",
"378 656 CURVE SMOOTH",
"378 715 OFFCURVE",
"329 757 OFFCURVE",
"277 757 CURVE SMOOTH"
);
},
{
closed = 1;
nodes = (
"308 710 OFFCURVE",
"333 686 OFFCURVE",
"333 657 CURVE SMOOTH",
"333 626 OFFCURVE",
"308 603 OFFCURVE",
"277 603 CURVE SMOOTH",
"246 603 OFFCURVE",
"221 625 OFFCURVE",
"221 656 CURVE SMOOTH",
"221 687 OFFCURVE",
"246 710 OFFCURVE",
"277 710 CURVE SMOOTH"
);
}
);
width = 585;
}
);
leftKerningGroup = a;
rightKerningGroup = a;
unicode = 00E5;
},
{
glyphname = atilde;
lastChange = "2014-09-05 18:36:08 +0000";
layers = (
{
background = {
paths = (
{
closed = 1;
nodes = (
"275 521 LINE SMOOTH",
"156 521 OFFCURVE",
"65 458 OFFCURVE",
"65 387 CURVE SMOOTH",
"65 372 OFFCURVE",
"66 361 OFFCURVE",
"67 354 CURVE",
"159 354 LINE",
"159 366 LINE SMOOTH",
"159 417 OFFCURVE",
"201 446 OFFCURVE",
"273 446 CURVE SMOOTH",
"344 446 OFFCURVE",
"390 425 OFFCURVE",
"390 354 CURVE SMOOTH",
"390 307 LINE",
"133 307 OFFCURVE",
"48 263 OFFCURVE",
"48 142 CURVE SMOOTH",
"48 35 OFFCURVE",
"105 -10 OFFCURVE",
"215 -10 CURVE SMOOTH",
"294 -10 OFFCURVE",
"353 21 OFFCURVE",
"394 82 CURVE",
"397 29 OFFCURVE",
"421 -10 OFFCURVE",
"481 -10 CURVE SMOOTH",
"510 -10 OFFCURVE",
"536 -3 OFFCURVE",
"558 10 CURVE",
"558 79 LINE",
"543 70 OFFCURVE",
"528 65 OFFCURVE",
"512 65 CURVE SMOOTH",
"497 65 OFFCURVE",
"484 75 OFFCURVE",
"484 100 CURVE SMOOTH",
"484 365 LINE SMOOTH",
"484 465 OFFCURVE",
"420 521 OFFCURVE",
"284 521 CURVE SMOOTH"
);
},
{
closed = 1;
nodes = (
"390 214 LINE SMOOTH",
"390 122 OFFCURVE",
"321 65 OFFCURVE",
"247 65 CURVE SMOOTH",
"177 65 OFFCURVE",
"142 88 OFFCURVE",
"142 134 CURVE SMOOTH",
"142 202 OFFCURVE",
"175 234 OFFCURVE",
"390 234 CURVE"
);
},
{
closed = 1;
nodes = (
"421 720 LINE",
"414 697 OFFCURVE",
"395 685 OFFCURVE",
"366 685 CURVE SMOOTH",
"349 685 OFFCURVE",
"323 691 OFFCURVE",
"286 702 CURVE SMOOTH",
"258 711 OFFCURVE",
"231 720 OFFCURVE",
"196 720 CURVE SMOOTH",
"124 720 OFFCURVE",
"85 668 OFFCURVE",
"85 616 CURVE",
"135 616 LINE",
"142 639 OFFCURVE",
"160 650 OFFCURVE",
"190 650 CURVE SMOOTH",
"219 650 OFFCURVE",
"234 643 OFFCURVE",
"289 627 CURVE SMOOTH",
"315 619 OFFCURVE",
"339 616 OFFCURVE",
"359 616 CURVE SMOOTH",
"426 616 OFFCURVE",
"471 661 OFFCURVE",
"471 720 CURVE"
);
}
);
};
layerId = UUID0;
name = Regular;
paths = (
{
closed = 1;
nodes = (
"275 521 LINE SMOOTH",
"156 521 OFFCURVE",
"65 458 OFFCURVE",
"65 387 CURVE SMOOTH",
"65 372 OFFCURVE",
"66 361 OFFCURVE",
"67 354 CURVE",
"159 354 LINE",
"159 366 LINE SMOOTH",
"159 417 OFFCURVE",
"201 446 OFFCURVE",
"273 446 CURVE SMOOTH",
"344 446 OFFCURVE",
"390 425 OFFCURVE",
"390 354 CURVE SMOOTH",
"390 307 LINE",
"133 307 OFFCURVE",
"48 263 OFFCURVE",
"48 142 CURVE SMOOTH",
"48 35 OFFCURVE",
"105 -10 OFFCURVE",
"215 -10 CURVE SMOOTH",
"294 -10 OFFCURVE",
"353 21 OFFCURVE",
"394 82 CURVE",
"397 29 OFFCURVE",
"421 -10 OFFCURVE",
"481 -10 CURVE SMOOTH",
"510 -10 OFFCURVE",
"536 -3 OFFCURVE",
"558 10 CURVE",
"558 79 LINE",
"543 70 OFFCURVE",
"528 65 OFFCURVE",
"512 65 CURVE SMOOTH",
"497 65 OFFCURVE",
"484 75 OFFCURVE",
"484 100 CURVE SMOOTH",
"484 365 LINE SMOOTH",
"484 465 OFFCURVE",
"420 521 OFFCURVE",
"284 521 CURVE SMOOTH"
);
},
{
closed = 1;
nodes = (
"390 214 LINE SMOOTH",
"390 122 OFFCURVE",
"321 65 OFFCURVE",
"247 65 CURVE SMOOTH",
"177 65 OFFCURVE",
"142 88 OFFCURVE",
"142 134 CURVE SMOOTH",
"142 202 OFFCURVE",
"175 234 OFFCURVE",
"390 234 CURVE"
);
},
{
closed = 1;
nodes = (
"421 720 LINE",
"414 697 OFFCURVE",
"395 685 OFFCURVE",
"366 685 CURVE SMOOTH",
"349 685 OFFCURVE",
"323 691 OFFCURVE",
"286 702 CURVE SMOOTH",
"258 711 OFFCURVE",
"231 720 OFFCURVE",
"196 720 CURVE SMOOTH",
"124 720 OFFCURVE",
"85 668 OFFCURVE",
"85 616 CURVE",
"135 616 LINE",
"142 639 OFFCURVE",
"160 650 OFFCURVE",
"190 650 CURVE SMOOTH",
"219 650 OFFCURVE",
"234 643 OFFCURVE",
"289 627 CURVE SMOOTH",
"315 619 OFFCURVE",
"339 616 OFFCURVE",
"359 616 CURVE SMOOTH",
"426 616 OFFCURVE",
"471 661 OFFCURVE",
"471 720 CURVE"
);
}
);
width = 585;
}
);
leftKerningGroup = a;
rightKerningGroup = a;
unicode = 00E3;
},
{
glyphname = ae;
lastChange = "2014-09-05 18:36:08 +0000";
layers = (
{
anchors = (
{
name = top;
position = "{448, 511}";
}
);
background = {
anchors = (
{
name = top;
position = "{448, 511}";
}
);
paths = (
{
closed = 1;
nodes = (
"620 521 LINE SMOOTH",
"551 521 OFFCURVE",
"497 500 OFFCURVE",
"457 457 CURVE",
"426 500 OFFCURVE",
"368 521 OFFCURVE",
"284 521 CURVE SMOOTH",
"275 521 LINE SMOOTH",
"156 521 OFFCURVE",
"65 458 OFFCURVE",
"65 387 CURVE SMOOTH",
"65 372 OFFCURVE",
"66 361 OFFCURVE",
"67 354 CURVE",
"159 354 LINE",
"159 366 LINE SMOOTH",
"159 417 OFFCURVE",
"201 446 OFFCURVE",
"273 446 CURVE SMOOTH",
"344 446 OFFCURVE",
"390 425 OFFCURVE",
"390 354 CURVE SMOOTH",
"390 307 LINE",
"133 307 OFFCURVE",
"48 263 OFFCURVE",
"48 142 CURVE SMOOTH",
"48 35 OFFCURVE",
"105 -10 OFFCURVE",
"215 -10 CURVE SMOOTH",
"295 -10 OFFCURVE",
"378 29 OFFCURVE",
"423 101 CURVE",
"463 29 OFFCURVE",
"534 -10 OFFCURVE",
"623 -10 CURVE SMOOTH",
"627 -10 LINE SMOOTH",
"754 -10 OFFCURVE",
"841 71 OFFCURVE",
"841 190 CURVE",
"752 190 LINE",
"752 130 OFFCURVE",
"720 65 OFFCURVE",
"629 65 CURVE SMOOTH",
"533 65 OFFCURVE",
"487 128 OFFCURVE",
"484 234 CURVE",
"841 234 LINE",
"841 305 LINE SMOOTH",
"841 439 OFFCURVE",
"752 521 OFFCURVE",
"627 521 CURVE SMOOTH"
);
},
{
closed = 1;
nodes = (
"390 214 LINE SMOOTH",
"390 122 OFFCURVE",
"321 65 OFFCURVE",
"247 65 CURVE SMOOTH",
"177 65 OFFCURVE",
"142 88 OFFCURVE",
"142 134 CURVE SMOOTH",
"142 202 OFFCURVE",
"175 234 OFFCURVE",
"390 234 CURVE"
);
},
{
closed = 1;
nodes = (
"698 446 OFFCURVE",
"748 395 OFFCURVE",
"748 319 CURVE SMOOTH",
"748 307 LINE",
"486 307 LINE",
"497 400 OFFCURVE",
"547 446 OFFCURVE",
"622 446 CURVE SMOOTH"
);
}
);
};
layerId = UUID0;
name = Regular;
paths = (
{
closed = 1;
nodes = (
"620 521 LINE SMOOTH",
"551 521 OFFCURVE",
"497 500 OFFCURVE",
"457 457 CURVE",
"426 500 OFFCURVE",
"368 521 OFFCURVE",
"284 521 CURVE SMOOTH",
"275 521 LINE SMOOTH",
"156 521 OFFCURVE",
"65 458 OFFCURVE",
"65 387 CURVE SMOOTH",
"65 372 OFFCURVE",
"66 361 OFFCURVE",
"67 354 CURVE",
"159 354 LINE",
"159 366 LINE SMOOTH",
"159 417 OFFCURVE",
"201 446 OFFCURVE",
"273 446 CURVE SMOOTH",
"344 446 OFFCURVE",
"390 425 OFFCURVE",
"390 354 CURVE SMOOTH",
"390 307 LINE",
"133 307 OFFCURVE",
"48 263 OFFCURVE",
"48 142 CURVE SMOOTH",
"48 35 OFFCURVE",
"105 -10 OFFCURVE",
"215 -10 CURVE SMOOTH",
"295 -10 OFFCURVE",
"378 29 OFFCURVE",
"423 101 CURVE",
"463 29 OFFCURVE",
"534 -10 OFFCURVE",
"623 -10 CURVE SMOOTH",
"627 -10 LINE SMOOTH",
"754 -10 OFFCURVE",
"841 71 OFFCURVE",
"841 190 CURVE",
"752 190 LINE",
"752 130 OFFCURVE",
"720 65 OFFCURVE",
"629 65 CURVE SMOOTH",
"533 65 OFFCURVE",
"487 128 OFFCURVE",
"484 234 CURVE",
"841 234 LINE",
"841 305 LINE SMOOTH",
"841 439 OFFCURVE",
"752 521 OFFCURVE",
"627 521 CURVE SMOOTH"
);
},
{
closed = 1;
nodes = (
"390 214 LINE SMOOTH",
"390 122 OFFCURVE",
"321 65 OFFCURVE",
"247 65 CURVE SMOOTH",
"177 65 OFFCURVE",
"142 88 OFFCURVE",
"142 134 CURVE SMOOTH",
"142 202 OFFCURVE",
"175 234 OFFCURVE",
"390 234 CURVE"
);
},
{
closed = 1;
nodes = (
"698 446 OFFCURVE",
"748 395 OFFCURVE",
"748 319 CURVE SMOOTH",
"748 307 LINE",
"486 307 LINE",
"497 400 OFFCURVE",
"547 446 OFFCURVE",
"622 446 CURVE SMOOTH"
);
}
);
width = 895;
}
);
leftKerningGroup = a;
rightKerningGroup = e;
unicode = 00E6;
},
{
glyphname = b;
lastChange = "2014-09-05 18:36:08 +0000";
layers = (
{
background = {
paths = (
{
closed = 1;
nodes = (
"83 720 LINE",
"83 0 LINE",
"119 0 LINE",
"152 81 LINE",
"191 20 OFFCURVE",
"248 -10 OFFCURVE",
"324 -10 CURVE SMOOTH",
"452 -10 OFFCURVE",
"531 90 OFFCURVE",
"531 256 CURVE SMOOTH",
"531 267 LINE SMOOTH",
"531 420 OFFCURVE",
"457 521 OFFCURVE",
"325 521 CURVE SMOOTH",
"261 521 OFFCURVE",
"206 487 OFFCURVE",
"177 446 CURVE",
"177 720 LINE"
);
},
{
closed = 1;
nodes = (
"392 446 OFFCURVE",
"437 387 OFFCURVE",
"437 255 CURVE SMOOTH",
"437 128 OFFCURVE",
"393 65 OFFCURVE",
"306 65 CURVE SMOOTH",
"219 65 OFFCURVE",
"176 123 OFFCURVE",
"176 255 CURVE SMOOTH",
"176 385 OFFCURVE",
"217 446 OFFCURVE",
"306 446 CURVE SMOOTH"
);
}
);
};
layerId = UUID0;
name = Regular;
paths = (
{
closed = 1;
nodes = (
"83 720 LINE",
"83 0 LINE",
"119 0 LINE",
"152 81 LINE",
"191 20 OFFCURVE",
"248 -10 OFFCURVE",
"324 -10 CURVE SMOOTH",
"452 -10 OFFCURVE",
"531 90 OFFCURVE",
"531 256 CURVE SMOOTH",
"531 267 LINE SMOOTH",
"531 420 OFFCURVE",
"457 521 OFFCURVE",
"325 521 CURVE SMOOTH",
"261 521 OFFCURVE",
"206 487 OFFCURVE",
"177 446 CURVE",
"177 720 LINE"
);
},
{
closed = 1;
nodes = (
"392 446 OFFCURVE",
"437 387 OFFCURVE",
"437 255 CURVE SMOOTH",
"437 128 OFFCURVE",
"393 65 OFFCURVE",
"306 65 CURVE SMOOTH",
"219 65 OFFCURVE",
"176 123 OFFCURVE",
"176 255 CURVE SMOOTH",
"176 385 OFFCURVE",
"217 446 OFFCURVE",
"306 446 CURVE SMOOTH"
);
}
);
width = 583;
}
);
rightKerningGroup = b;
unicode = 0062;
},
{
glyphname = c;
lastChange = "2014-09-05 18:36:08 +0000";
layers = (
{
anchors = (
{
name = bottom;
position = "{272, 0}";
},
{
name = top;
position = "{272, 511}";
}
);
background = {
anchors = (
{
name = top;
position = "{272, 511}";
},
{
name = bottom;
position = "{272, 0}";
}
);
paths = (
{
closed = 1;
nodes = (
"275 521 LINE SMOOTH",
"141 521 OFFCURVE",
"51 420 OFFCURVE",
"51 267 CURVE SMOOTH",
"51 243 LINE SMOOTH",
"51 91 OFFCURVE",
"138 -10 OFFCURVE",
"276 -10 CURVE SMOOTH",
"284 -10 LINE SMOOTH",
"411 -10 OFFCURVE",
"495 71 OFFCURVE",
"495 200 CURVE",
"405 200 LINE",
"405 121 OFFCURVE",
"367 65 OFFCURVE",
"283 65 CURVE SMOOTH",
"198 65 OFFCURVE",
"145 118 OFFCURVE",
"145 237 CURVE SMOOTH",
"145 291 LINE SMOOTH",
"145 388 OFFCURVE",
"198 446 OFFCURVE",
"280 446 CURVE SMOOTH",
"361 446 OFFCURVE",
"402 390 OFFCURVE",
"402 310 CURVE",
"495 310 LINE",
"495 437 OFFCURVE",
"406 521 OFFCURVE",
"283 521 CURVE SMOOTH"
);
}
);
};
layerId = UUID0;
name = Regular;
paths = (
{
closed = 1;
nodes = (
"275 521 LINE SMOOTH",
"141 521 OFFCURVE",
"51 420 OFFCURVE",
"51 267 CURVE SMOOTH",
"51 243 LINE SMOOTH",
"51 91 OFFCURVE",
"138 -10 OFFCURVE",
"276 -10 CURVE SMOOTH",
"284 -10 LINE SMOOTH",
"411 -10 OFFCURVE",
"495 71 OFFCURVE",
"495 200 CURVE",
"405 200 LINE",
"405 121 OFFCURVE",
"367 65 OFFCURVE",
"283 65 CURVE SMOOTH",
"198 65 OFFCURVE",
"145 118 OFFCURVE",
"145 237 CURVE SMOOTH",
"145 291 LINE SMOOTH",
"145 388 OFFCURVE",
"198 446 OFFCURVE",
"280 446 CURVE SMOOTH",
"361 446 OFFCURVE",
"402 390 OFFCURVE",
"402 310 CURVE",
"495 310 LINE",
"495 437 OFFCURVE",
"406 521 OFFCURVE",
"283 521 CURVE SMOOTH"
);
}
);
width = 544;
}
);
leftKerningGroup = c;
rightKerningGroup = c;
unicode = 0063;
},
{
glyphname = ccedilla;
lastChange = "2014-09-05 18:36:08 +0000";
layers = (
{
background = {
paths = (
{
closed = 1;
nodes = (
"275 521 LINE SMOOTH",
"141 521 OFFCURVE",
"51 420 OFFCURVE",
"51 267 CURVE SMOOTH",
"51 243 LINE SMOOTH",
"51 91 OFFCURVE",
"138 -10 OFFCURVE",
"276 -10 CURVE SMOOTH",
"284 -10 LINE SMOOTH",
"411 -10 OFFCURVE",
"495 71 OFFCURVE",
"495 200 CURVE",
"405 200 LINE",
"405 121 OFFCURVE",
"367 65 OFFCURVE",
"283 65 CURVE SMOOTH",
"198 65 OFFCURVE",
"145 118 OFFCURVE",
"145 237 CURVE SMOOTH",
"145 291 LINE SMOOTH",
"145 388 OFFCURVE",
"198 446 OFFCURVE",
"280 446 CURVE SMOOTH",
"361 446 OFFCURVE",
"402 390 OFFCURVE",
"402 310 CURVE",
"495 310 LINE",
"495 437 OFFCURVE",
"406 521 OFFCURVE",
"283 521 CURVE SMOOTH"
);
},
{
closed = 1;
nodes = (
"254 -17 LINE",
"254 -60 LINE",
"275 -60 LINE SMOOTH",
"303 -60 OFFCURVE",
"327 -74 OFFCURVE",
"327 -101 CURVE SMOOTH",
"327 -131 OFFCURVE",
"305 -146 OFFCURVE",
"260 -146 CURVE SMOOTH",
"239 -146 OFFCURVE",
"215 -139 OFFCURVE",
"188 -126 CURVE",
"179 -175 LINE",
"206 -190 OFFCURVE",
"241 -197 OFFCURVE",
"284 -197 CURVE SMOOTH",
"336 -197 OFFCURVE",
"389 -164 OFFCURVE",
"389 -106 CURVE SMOOTH",
"389 -47 OFFCURVE",
"352 -17 OFFCURVE",
"278 -17 CURVE SMOOTH"
);
}
);
};
layerId = UUID0;
name = Regular;
paths = (
{
closed = 1;
nodes = (
"275 521 LINE SMOOTH",
"141 521 OFFCURVE",
"51 420 OFFCURVE",
"51 267 CURVE SMOOTH",
"51 243 LINE SMOOTH",
"51 91 OFFCURVE",
"138 -10 OFFCURVE",
"276 -10 CURVE SMOOTH",
"284 -10 LINE SMOOTH",
"411 -10 OFFCURVE",
"495 71 OFFCURVE",
"495 200 CURVE",
"405 200 LINE",
"405 121 OFFCURVE",
"367 65 OFFCURVE",
"283 65 CURVE SMOOTH",
"198 65 OFFCURVE",
"145 118 OFFCURVE",
"145 237 CURVE SMOOTH",
"145 291 LINE SMOOTH",
"145 388 OFFCURVE",
"198 446 OFFCURVE",
"280 446 CURVE SMOOTH",
"361 446 OFFCURVE",
"402 390 OFFCURVE",
"402 310 CURVE",
"495 310 LINE",
"495 437 OFFCURVE",
"406 521 OFFCURVE",
"283 521 CURVE SMOOTH"
);
},
{
closed = 1;
nodes = (
"254 -17 LINE",
"254 -60 LINE",
"275 -60 LINE SMOOTH",
"303 -60 OFFCURVE",
"327 -74 OFFCURVE",
"327 -101 CURVE SMOOTH",
"327 -131 OFFCURVE",
"305 -146 OFFCURVE",
"260 -146 CURVE SMOOTH",
"239 -146 OFFCURVE",
"215 -139 OFFCURVE",
"188 -126 CURVE",
"179 -175 LINE",
"206 -190 OFFCURVE",
"241 -197 OFFCURVE",
"284 -197 CURVE SMOOTH",
"336 -197 OFFCURVE",
"389 -164 OFFCURVE",
"389 -106 CURVE SMOOTH",
"389 -47 OFFCURVE",
"352 -17 OFFCURVE",
"278 -17 CURVE SMOOTH"
);
}
);
width = 544;
}
);
leftKerningGroup = c;
rightKerningGroup = c;
unicode = 00E7;
},
{
glyphname = d;
lastChange = "2014-09-08 21:28:59 +0000";
layers = (
{
anchors = (
{
name = center;
position = "{292, 256}";
},
{
name = topright;
position = "{623, 686}";
}
);
background = {
anchors = (
{
name = center;
position = "{292, 256}";
},
{
name = topright;
position = "{563, 511}";
}
);
paths = (
{
closed = 1;
nodes = (
"406 720 LINE",
"406 446 LINE",
"371 496 OFFCURVE",
"322 521 OFFCURVE",
"259 521 CURVE SMOOTH",
"127 521 OFFCURVE",
"52 421 OFFCURVE",
"52 267 CURVE SMOOTH",
"52 256 LINE SMOOTH",
"52 90 OFFCURVE",
"131 -10 OFFCURVE",
"259 -10 CURVE SMOOTH",
"326 -10 OFFCURVE",
"379 17 OFFCURVE",
"417 70 CURVE",
"422 36 OFFCURVE",
"427 13 OFFCURVE",
"430 0 CURVE",
"500 0 LINE",
"500 720 LINE"
);
},
{
closed = 1;
nodes = (
"362 446 OFFCURVE",
"407 387 OFFCURVE",
"407 255 CURVE SMOOTH",
"407 128 OFFCURVE",
"363 65 OFFCURVE",
"276 65 CURVE SMOOTH",
"189 65 OFFCURVE",
"146 123 OFFCURVE",
"146 255 CURVE SMOOTH",
"146 385 OFFCURVE",
"187 446 OFFCURVE",
"276 446 CURVE SMOOTH"
);
}
);
};
layerId = UUID0;
name = Regular;
paths = (
{
closed = 1;
nodes = (
"406 720 LINE",
"406 446 LINE",
"371 496 OFFCURVE",
"322 521 OFFCURVE",
"259 521 CURVE SMOOTH",
"127 521 OFFCURVE",
"52 421 OFFCURVE",
"52 267 CURVE SMOOTH",
"52 256 LINE SMOOTH",
"52 90 OFFCURVE",
"131 -10 OFFCURVE",
"259 -10 CURVE SMOOTH",
"326 -10 OFFCURVE",
"379 17 OFFCURVE",
"417 70 CURVE",
"422 36 OFFCURVE",
"427 13 OFFCURVE",
"430 0 CURVE",
"500 0 LINE",
"500 720 LINE"
);
},
{
closed = 1;
nodes = (
"362 446 OFFCURVE",
"407 387 OFFCURVE",
"407 255 CURVE SMOOTH",
"407 128 OFFCURVE",
"363 65 OFFCURVE",
"276 65 CURVE SMOOTH",
"189 65 OFFCURVE",
"146 123 OFFCURVE",
"146 255 CURVE SMOOTH",
"146 385 OFFCURVE",
"187 446 OFFCURVE",
"276 446 CURVE SMOOTH"
);
}
);
width = 583;
}
);
leftKerningGroup = d;
unicode = 0064;
},
{
glyphname = eth;
lastChange = "2014-09-05 18:36:08 +0000";
layers = (
{
background = {
paths = (
{
closed = 1;
nodes = (
"114 700 LINE",
"135 685 OFFCURVE",
"172 666 OFFCURVE",
"203 639 CURVE",
"109 595 LINE",
"121 584 OFFCURVE",
"132 573 OFFCURVE",
"145 562 CURVE",
"236 605 LINE",
"267 576 OFFCURVE",
"295 547 OFFCURVE",
"319 518 CURVE",
"308 520 OFFCURVE",
"297 521 OFFCURVE",
"287 521 CURVE SMOOTH",
"145 521 OFFCURVE",
"52 429 OFFCURVE",
"52 274 CURVE SMOOTH",
"52 237 LINE SMOOTH",
"52 84 OFFCURVE",
"142 -10 OFFCURVE",
"287 -10 CURVE SMOOTH",
"432 -10 OFFCURVE",
"522 84 OFFCURVE",
"522 237 CURVE SMOOTH",
"522 274 LINE SMOOTH",
"522 408 OFFCURVE",
"443 531 OFFCURVE",
"307 643 CURVE",
"394 683 LINE",
"362 717 LINE",
"268 673 LINE",
"235 695 OFFCURVE",
"203 714 OFFCURVE",
"173 729 CURVE"
);
},
{
closed = 1;
nodes = (
"378 446 OFFCURVE",
"428 380 OFFCURVE",
"428 265 CURVE SMOOTH",
"428 246 LINE SMOOTH",
"428 126 OFFCURVE",
"374 65 OFFCURVE",
"287 65 CURVE SMOOTH",
"196 65 OFFCURVE",
"146 131 OFFCURVE",
"146 246 CURVE SMOOTH",
"146 265 LINE SMOOTH",
"146 385 OFFCURVE",
"199 446 OFFCURVE",
"287 446 CURVE SMOOTH"
);
}
);
};
layerId = UUID0;
name = Regular;
paths = (
{
closed = 1;
nodes = (
"114 700 LINE",
"135 685 OFFCURVE",
"172 666 OFFCURVE",
"203 639 CURVE",
"109 595 LINE",
"121 584 OFFCURVE",
"132 573 OFFCURVE",
"145 562 CURVE",
"236 605 LINE",
"267 576 OFFCURVE",
"295 547 OFFCURVE",
"319 518 CURVE",
"308 520 OFFCURVE",
"297 521 OFFCURVE",
"287 521 CURVE SMOOTH",
"145 521 OFFCURVE",
"52 429 OFFCURVE",
"52 274 CURVE SMOOTH",
"52 237 LINE SMOOTH",
"52 84 OFFCURVE",
"142 -10 OFFCURVE",
"287 -10 CURVE SMOOTH",
"432 -10 OFFCURVE",
"522 84 OFFCURVE",
"522 237 CURVE SMOOTH",
"522 274 LINE SMOOTH",
"522 408 OFFCURVE",
"443 531 OFFCURVE",
"307 643 CURVE",
"394 683 LINE",
"362 717 LINE",
"268 673 LINE",
"235 695 OFFCURVE",
"203 714 OFFCURVE",
"173 729 CURVE"
);
},
{
closed = 1;
nodes = (
"378 446 OFFCURVE",
"428 380 OFFCURVE",
"428 265 CURVE SMOOTH",
"428 246 LINE SMOOTH",
"428 126 OFFCURVE",
"374 65 OFFCURVE",
"287 65 CURVE SMOOTH",
"196 65 OFFCURVE",
"146 131 OFFCURVE",
"146 246 CURVE SMOOTH",
"146 265 LINE SMOOTH",
"146 385 OFFCURVE",
"199 446 OFFCURVE",
"287 446 CURVE SMOOTH"
);
}
);
width = 575;
}
);
leftKerningGroup = c;
unicode = 00F0;
},
{
glyphname = e;
lastChange = "2014-09-05 18:59:51 +0000";
layers = (
{
anchors = (
{
name = bottom;
position = "{278, 0}";
},
{
name = ogonek;
position = "{370, 10}";
},
{
name = top;
position = "{278, 511}";
}
);
background = {
anchors = (
{
name = ogonek;
position = "{500, 10}";
},
{
name = bottom;
position = "{278, 0}";
},
{
name = top;
position = "{278, 511}";
}
);
paths = (
{
closed = 1;
nodes = (
"281 521 LINE SMOOTH",
"139 521 OFFCURVE",
"51 417 OFFCURVE",
"51 265 CURVE SMOOTH",
"51 245 LINE SMOOTH",
"51 91 OFFCURVE",
"139 -10 OFFCURVE",
"284 -10 CURVE SMOOTH",
"288 -10 LINE SMOOTH",
"413 -10 OFFCURVE",
"502 69 OFFCURVE",
"502 190 CURVE",
"413 190 LINE",
"413 130 OFFCURVE",
"381 65 OFFCURVE",
"290 65 CURVE SMOOTH",
"194 65 OFFCURVE",
"148 128 OFFCURVE",
"145 234 CURVE",
"502 234 LINE",
"502 305 LINE SMOOTH",
"502 437 OFFCURVE",
"414 521 OFFCURVE",
"288 521 CURVE SMOOTH"
);
},
{
closed = 1;
nodes = (
"359 446 OFFCURVE",
"409 395 OFFCURVE",
"409 319 CURVE SMOOTH",
"409 307 LINE",
"147 307 LINE",
"158 400 OFFCURVE",
"208 446 OFFCURVE",
"283 446 CURVE SMOOTH"
);
}
);
};
layerId = UUID0;
name = Regular;
paths = (
{
closed = 1;
nodes = (
"281 521 LINE SMOOTH",
"139 521 OFFCURVE",
"51 417 OFFCURVE",
"51 265 CURVE SMOOTH",
"51 245 LINE SMOOTH",
"51 91 OFFCURVE",
"139 -10 OFFCURVE",
"284 -10 CURVE SMOOTH",
"288 -10 LINE SMOOTH",
"413 -10 OFFCURVE",
"502 69 OFFCURVE",
"502 190 CURVE",
"413 190 LINE",
"413 130 OFFCURVE",
"381 65 OFFCURVE",
"290 65 CURVE SMOOTH",
"194 65 OFFCURVE",
"148 128 OFFCURVE",
"145 234 CURVE",
"502 234 LINE",
"502 305 LINE SMOOTH",
"502 437 OFFCURVE",
"414 521 OFFCURVE",
"288 521 CURVE SMOOTH"
);
},
{
closed = 1;
nodes = (
"359 446 OFFCURVE",
"409 395 OFFCURVE",
"409 319 CURVE SMOOTH",
"409 307 LINE",
"147 307 LINE",
"158 400 OFFCURVE",
"208 446 OFFCURVE",
"283 446 CURVE SMOOTH"
);
}
);
width = 556;
}
);
leftKerningGroup = c;
rightKerningGroup = e;
unicode = 0065;
},
{
glyphname = eacute;
lastChange = "2014-09-05 18:36:08 +0000";
layers = (
{
background = {
paths = (
{
closed = 1;
nodes = (
"281 521 LINE SMOOTH",
"139 521 OFFCURVE",
"51 417 OFFCURVE",
"51 265 CURVE SMOOTH",
"51 245 LINE SMOOTH",
"51 91 OFFCURVE",
"139 -10 OFFCURVE",
"284 -10 CURVE SMOOTH",
"288 -10 LINE SMOOTH",
"413 -10 OFFCURVE",
"502 69 OFFCURVE",
"502 190 CURVE",
"413 190 LINE",
"413 130 OFFCURVE",
"381 65 OFFCURVE",
"290 65 CURVE SMOOTH",
"194 65 OFFCURVE",
"148 128 OFFCURVE",
"145 234 CURVE",
"502 234 LINE",
"502 305 LINE SMOOTH",
"502 437 OFFCURVE",
"414 521 OFFCURVE",
"288 521 CURVE SMOOTH"
);
},
{
closed = 1;
nodes = (
"359 446 OFFCURVE",
"409 395 OFFCURVE",
"409 319 CURVE SMOOTH",
"409 307 LINE",
"147 307 LINE",
"158 400 OFFCURVE",
"208 446 OFFCURVE",
"283 446 CURVE SMOOTH"
);
},
{
closed = 1;
nodes = (
"340 720 LINE",
"246 575 LINE",
"315 575 LINE",
"431 717 LINE",
"430 720 LINE"
);
}
);
};
layerId = UUID0;
name = Regular;
paths = (
{
closed = 1;
nodes = (
"281 521 LINE SMOOTH",
"139 521 OFFCURVE",
"51 417 OFFCURVE",
"51 265 CURVE SMOOTH",
"51 245 LINE SMOOTH",
"51 91 OFFCURVE",
"139 -10 OFFCURVE",
"284 -10 CURVE SMOOTH",
"288 -10 LINE SMOOTH",
"413 -10 OFFCURVE",
"502 69 OFFCURVE",
"502 190 CURVE",
"413 190 LINE",
"413 130 OFFCURVE",
"381 65 OFFCURVE",
"290 65 CURVE SMOOTH",
"194 65 OFFCURVE",
"148 128 OFFCURVE",
"145 234 CURVE",
"502 234 LINE",
"502 305 LINE SMOOTH",
"502 437 OFFCURVE",
"414 521 OFFCURVE",
"288 521 CURVE SMOOTH"
);
},
{
closed = 1;
nodes = (
"359 446 OFFCURVE",
"409 395 OFFCURVE",
"409 319 CURVE SMOOTH",
"409 307 LINE",
"147 307 LINE",
"158 400 OFFCURVE",
"208 446 OFFCURVE",
"283 446 CURVE SMOOTH"
);
},
{
closed = 1;
nodes = (
"340 720 LINE",
"246 575 LINE",
"315 575 LINE",
"431 717 LINE",
"430 720 LINE"
);
}
);
width = 556;
}
);
leftKerningGroup = c;
rightKerningGroup = e;
unicode = 00E9;
},
{
glyphname = ecircumflex;
lastChange = "2014-09-05 18:36:08 +0000";
layers = (
{
background = {
paths = (
{
closed = 1;
nodes = (
"281 521 LINE SMOOTH",
"139 521 OFFCURVE",
"51 417 OFFCURVE",
"51 265 CURVE SMOOTH",
"51 245 LINE SMOOTH",
"51 91 OFFCURVE",
"139 -10 OFFCURVE",
"284 -10 CURVE SMOOTH",
"288 -10 LINE SMOOTH",
"413 -10 OFFCURVE",
"502 69 OFFCURVE",
"502 190 CURVE",
"413 190 LINE",
"413 130 OFFCURVE",
"381 65 OFFCURVE",
"290 65 CURVE SMOOTH",
"194 65 OFFCURVE",
"148 128 OFFCURVE",
"145 234 CURVE",
"502 234 LINE",
"502 305 LINE SMOOTH",
"502 437 OFFCURVE",
"414 521 OFFCURVE",
"288 521 CURVE SMOOTH"
);
},
{
closed = 1;
nodes = (
"359 446 OFFCURVE",
"409 395 OFFCURVE",
"409 319 CURVE SMOOTH",
"409 307 LINE",
"147 307 LINE",
"158 400 OFFCURVE",
"208 446 OFFCURVE",
"283 446 CURVE SMOOTH"
);
},
{
closed = 1;
nodes = (
"244 720 LINE",
"108 575 LINE",
"188 575 LINE",
"283 664 LINE",
"377 575 LINE",
"457 575 LINE",
"322 720 LINE"
);
}
);
};
layerId = UUID0;
name = Regular;
paths = (
{
closed = 1;
nodes = (
"281 521 LINE SMOOTH",
"139 521 OFFCURVE",
"51 417 OFFCURVE",
"51 265 CURVE SMOOTH",
"51 245 LINE SMOOTH",
"51 91 OFFCURVE",
"139 -10 OFFCURVE",
"284 -10 CURVE SMOOTH",
"288 -10 LINE SMOOTH",
"413 -10 OFFCURVE",
"502 69 OFFCURVE",
"502 190 CURVE",
"413 190 LINE",
"413 130 OFFCURVE",
"381 65 OFFCURVE",
"290 65 CURVE SMOOTH",
"194 65 OFFCURVE",
"148 128 OFFCURVE",
"145 234 CURVE",
"502 234 LINE",
"502 305 LINE SMOOTH",
"502 437 OFFCURVE",
"414 521 OFFCURVE",
"288 521 CURVE SMOOTH"
);
},
{
closed = 1;
nodes = (
"359 446 OFFCURVE",
"409 395 OFFCURVE",
"409 319 CURVE SMOOTH",
"409 307 LINE",
"147 307 LINE",
"158 400 OFFCURVE",
"208 446 OFFCURVE",
"283 446 CURVE SMOOTH"
);
},
{
closed = 1;
nodes = (
"244 720 LINE",
"108 575 LINE",
"188 575 LINE",
"283 664 LINE",
"377 575 LINE",
"457 575 LINE",
"322 720 LINE"
);
}
);
width = 556;
}
);
leftKerningGroup = c;
rightKerningGroup = e;
unicode = 00EA;
},
{
glyphname = edieresis;
lastChange = "2014-09-05 18:36:08 +0000";
layers = (
{
background = {
paths = (
{
closed = 1;
nodes = (
"281 521 LINE SMOOTH",
"139 521 OFFCURVE",
"51 417 OFFCURVE",
"51 265 CURVE SMOOTH",
"51 245 LINE SMOOTH",
"51 91 OFFCURVE",
"139 -10 OFFCURVE",
"284 -10 CURVE SMOOTH",
"288 -10 LINE SMOOTH",
"413 -10 OFFCURVE",
"502 69 OFFCURVE",
"502 190 CURVE",
"413 190 LINE",
"413 130 OFFCURVE",
"381 65 OFFCURVE",
"290 65 CURVE SMOOTH",
"194 65 OFFCURVE",
"148 128 OFFCURVE",
"145 234 CURVE",
"502 234 LINE",
"502 305 LINE SMOOTH",
"502 437 OFFCURVE",
"414 521 OFFCURVE",
"288 521 CURVE SMOOTH"
);
},
{
closed = 1;
nodes = (
"359 446 OFFCURVE",
"409 395 OFFCURVE",
"409 319 CURVE SMOOTH",
"409 307 LINE",
"147 307 LINE",
"158 400 OFFCURVE",
"208 446 OFFCURVE",
"283 446 CURVE SMOOTH"
);
},
{
closed = 1;
nodes = (
"143 720 LINE",
"143 622 LINE",
"233 622 LINE",
"233 720 LINE"
);
},
{
closed = 1;
nodes = (
"331 720 LINE",
"331 622 LINE",
"422 622 LINE",
"422 720 LINE"
);
}
);
};
layerId = UUID0;
name = Regular;
paths = (
{
closed = 1;
nodes = (
"281 521 LINE SMOOTH",
"139 521 OFFCURVE",
"51 417 OFFCURVE",
"51 265 CURVE SMOOTH",
"51 245 LINE SMOOTH",
"51 91 OFFCURVE",
"139 -10 OFFCURVE",
"284 -10 CURVE SMOOTH",
"288 -10 LINE SMOOTH",
"413 -10 OFFCURVE",
"502 69 OFFCURVE",
"502 190 CURVE",
"413 190 LINE",
"413 130 OFFCURVE",
"381 65 OFFCURVE",
"290 65 CURVE SMOOTH",
"194 65 OFFCURVE",
"148 128 OFFCURVE",
"145 234 CURVE",
"502 234 LINE",
"502 305 LINE SMOOTH",
"502 437 OFFCURVE",
"414 521 OFFCURVE",
"288 521 CURVE SMOOTH"
);
},
{
closed = 1;
nodes = (
"359 446 OFFCURVE",
"409 395 OFFCURVE",
"409 319 CURVE SMOOTH",
"409 307 LINE",
"147 307 LINE",
"158 400 OFFCURVE",
"208 446 OFFCURVE",
"283 446 CURVE SMOOTH"
);
},
{
closed = 1;
nodes = (
"143 720 LINE",
"143 622 LINE",
"233 622 LINE",
"233 720 LINE"
);
},
{
closed = 1;
nodes = (
"331 720 LINE",
"331 622 LINE",
"422 622 LINE",
"422 720 LINE"
);
}
);
width = 556;
}
);
leftKerningGroup = c;
rightKerningGroup = e;
unicode = 00EB;
},
{
glyphname = egrave;
lastChange = "2014-09-05 18:36:08 +0000";
layers = (
{
background = {
paths = (
{
closed = 1;
nodes = (
"281 521 LINE SMOOTH",
"139 521 OFFCURVE",
"51 417 OFFCURVE",
"51 265 CURVE SMOOTH",
"51 245 LINE SMOOTH",
"51 91 OFFCURVE",
"139 -10 OFFCURVE",
"284 -10 CURVE SMOOTH",
"288 -10 LINE SMOOTH",
"413 -10 OFFCURVE",
"502 69 OFFCURVE",
"502 190 CURVE",
"413 190 LINE",
"413 130 OFFCURVE",
"381 65 OFFCURVE",
"290 65 CURVE SMOOTH",
"194 65 OFFCURVE",
"148 128 OFFCURVE",
"145 234 CURVE",
"502 234 LINE",
"502 305 LINE SMOOTH",
"502 437 OFFCURVE",
"414 521 OFFCURVE",
"288 521 CURVE SMOOTH"
);
},
{
closed = 1;
nodes = (
"359 446 OFFCURVE",
"409 395 OFFCURVE",
"409 319 CURVE SMOOTH",
"409 307 LINE",
"147 307 LINE",
"158 400 OFFCURVE",
"208 446 OFFCURVE",
"283 446 CURVE SMOOTH"
);
},
{
closed = 1;
nodes = (
"136 720 LINE",
"135 717 LINE",
"250 575 LINE",
"320 575 LINE",
"225 720 LINE"
);
}
);
};
layerId = UUID0;
name = Regular;
paths = (
{
closed = 1;
nodes = (
"281 521 LINE SMOOTH",
"139 521 OFFCURVE",
"51 417 OFFCURVE",
"51 265 CURVE SMOOTH",
"51 245 LINE SMOOTH",
"51 91 OFFCURVE",
"139 -10 OFFCURVE",
"284 -10 CURVE SMOOTH",
"288 -10 LINE SMOOTH",
"413 -10 OFFCURVE",
"502 69 OFFCURVE",
"502 190 CURVE",
"413 190 LINE",
"413 130 OFFCURVE",
"381 65 OFFCURVE",
"290 65 CURVE SMOOTH",
"194 65 OFFCURVE",
"148 128 OFFCURVE",
"145 234 CURVE",
"502 234 LINE",
"502 305 LINE SMOOTH",
"502 437 OFFCURVE",
"414 521 OFFCURVE",
"288 521 CURVE SMOOTH"
);
},
{
closed = 1;
nodes = (
"359 446 OFFCURVE",
"409 395 OFFCURVE",
"409 319 CURVE SMOOTH",
"409 307 LINE",
"147 307 LINE",
"158 400 OFFCURVE",
"208 446 OFFCURVE",
"283 446 CURVE SMOOTH"
);
},
{
closed = 1;
nodes = (
"136 720 LINE",
"135 717 LINE",
"250 575 LINE",
"320 575 LINE",
"225 720 LINE"
);
}
);
width = 556;
}
);
leftKerningGroup = c;
rightKerningGroup = e;
unicode = 00E8;
},
{
glyphname = f;
lastChange = "2014-09-05 18:36:08 +0000";
layers = (
{
background = {
paths = (
{
closed = 1;
nodes = (
"143 728 OFFCURVE",
"103 679 OFFCURVE",
"103 580 CURVE SMOOTH",
"103 511 LINE",
"47 511 LINE",
"47 436 LINE",
"103 436 LINE",
"103 0 LINE",
"197 0 LINE",
"197 436 LINE",
"316 436 LINE",
"316 511 LINE",
"197 511 LINE",
"197 590 LINE SMOOTH",
"197 634 OFFCURVE",
"210 653 OFFCURVE",
"265 653 CURVE SMOOTH",
"278 653 OFFCURVE",
"295 649 OFFCURVE",
"316 640 CURVE",
"316 709 LINE",
"291 722 OFFCURVE",
"259 728 OFFCURVE",
"222 728 CURVE SMOOTH"
);
}
);
};
layerId = UUID0;
name = Regular;
paths = (
{
closed = 1;
nodes = (
"143 728 OFFCURVE",
"103 679 OFFCURVE",
"103 580 CURVE SMOOTH",
"103 511 LINE",
"47 511 LINE",
"47 436 LINE",
"103 436 LINE",
"103 0 LINE",
"197 0 LINE",
"197 436 LINE",
"316 436 LINE",
"316 511 LINE",
"197 511 LINE",
"197 590 LINE SMOOTH",
"197 634 OFFCURVE",
"210 653 OFFCURVE",
"265 653 CURVE SMOOTH",
"278 653 OFFCURVE",
"295 649 OFFCURVE",
"316 640 CURVE",
"316 709 LINE",
"291 722 OFFCURVE",
"259 728 OFFCURVE",
"222 728 CURVE SMOOTH"
);
}
);
width = 338;
}
);
leftKerningGroup = f;
unicode = 0066;
},
{
glyphname = g;
lastChange = "2014-09-05 18:36:08 +0000";
layers = (
{
anchors = (
{
name = top;
position = "{284, 511}";
}
);
background = {
anchors = (
{
name = top;
position = "{284, 511}";
}
);
paths = (
{
closed = 1;
nodes = (
"471 603 LINE",
"464 560 OFFCURVE",
"437 527 OFFCURVE",
"390 504 CURVE",
"360 515 OFFCURVE",
"326 521 OFFCURVE",
"288 521 CURVE SMOOTH",
"284 521 LINE SMOOTH",
"154 521 OFFCURVE",
"78 458 OFFCURVE",
"78 360 CURVE SMOOTH",
"78 302 OFFCURVE",
"100 260 OFFCURVE",
"145 235 CURVE",
"96 218 OFFCURVE",
"65 183 OFFCURVE",
"65 134 CURVE SMOOTH",
"65 98 OFFCURVE",
"80 70 OFFCURVE",
"111 51 CURVE",
"67 32 OFFCURVE",
"36 -11 OFFCURVE",
"36 -68 CURVE SMOOTH",
"36 -125 OFFCURVE",
"90 -188 OFFCURVE",
"160 -188 CURVE SMOOTH",
"361 -188 LINE SMOOTH",
"477 -188 OFFCURVE",
"551 -129 OFFCURVE",
"551 -38 CURVE SMOOTH",
"551 37 OFFCURVE",
"501 93 OFFCURVE",
"421 93 CURVE SMOOTH",
"228 93 LINE SMOOTH",
"185 93 OFFCURVE",
"158 113 OFFCURVE",
"158 145 CURVE SMOOTH",
"158 177 OFFCURVE",
"188 200 OFFCURVE",
"228 200 CURVE SMOOTH",
"296 200 LINE SMOOTH",
"422 200 OFFCURVE",
"497 265 OFFCURVE",
"497 360 CURVE SMOOTH",
"497 405 OFFCURVE",
"480 441 OFFCURVE",
"447 470 CURVE",
"449 473 LINE",
"513 486 OFFCURVE",
"551 536 OFFCURVE",
"551 603 CURVE"
);
},
{
closed = 1;
nodes = (
"436 3 OFFCURVE",
"458 -20 OFFCURVE",
"458 -52 CURVE SMOOTH",
"458 -84 OFFCURVE",
"423 -113 OFFCURVE",
"380 -113 CURVE SMOOTH",
"187 -113 LINE SMOOTH",
"155 -113 OFFCURVE",
"129 -87 OFFCURVE",
"129 -55 CURVE SMOOTH",
"129 -23 OFFCURVE",
"155 3 OFFCURVE",
"187 3 CURVE SMOOTH",
"393 3 LINE SMOOTH"
);
},
{
closed = 1;
nodes = (
"352 446 OFFCURVE",
"404 423 OFFCURVE",
"404 360 CURVE SMOOTH",
"404 297 OFFCURVE",
"352 275 OFFCURVE",
"287 275 CURVE SMOOTH",
"222 275 OFFCURVE",
"171 297 OFFCURVE",
"171 360 CURVE SMOOTH",
"171 423 OFFCURVE",
"222 446 OFFCURVE",
"287 446 CURVE SMOOTH"
);
}
);
};
layerId = UUID0;
name = Regular;
paths = (
{
closed = 1;
nodes = (
"471 603 LINE",
"464 560 OFFCURVE",
"437 527 OFFCURVE",
"390 504 CURVE",
"360 515 OFFCURVE",
"326 521 OFFCURVE",
"288 521 CURVE SMOOTH",
"284 521 LINE SMOOTH",
"154 521 OFFCURVE",
"78 458 OFFCURVE",
"78 360 CURVE SMOOTH",
"78 302 OFFCURVE",
"100 260 OFFCURVE",
"145 235 CURVE",
"96 218 OFFCURVE",
"65 183 OFFCURVE",
"65 134 CURVE SMOOTH",
"65 98 OFFCURVE",
"80 70 OFFCURVE",
"111 51 CURVE",
"67 32 OFFCURVE",
"36 -11 OFFCURVE",
"36 -68 CURVE SMOOTH",
"36 -125 OFFCURVE",
"90 -188 OFFCURVE",
"160 -188 CURVE SMOOTH",
"361 -188 LINE SMOOTH",
"477 -188 OFFCURVE",
"551 -129 OFFCURVE",
"551 -38 CURVE SMOOTH",
"551 37 OFFCURVE",
"501 93 OFFCURVE",
"421 93 CURVE SMOOTH",
"228 93 LINE SMOOTH",
"185 93 OFFCURVE",
"158 113 OFFCURVE",
"158 145 CURVE SMOOTH",
"158 177 OFFCURVE",
"188 200 OFFCURVE",
"228 200 CURVE SMOOTH",
"296 200 LINE SMOOTH",
"422 200 OFFCURVE",
"497 265 OFFCURVE",
"497 360 CURVE SMOOTH",
"497 405 OFFCURVE",
"480 441 OFFCURVE",
"447 470 CURVE",
"449 473 LINE",
"513 486 OFFCURVE",
"551 536 OFFCURVE",
"551 603 CURVE"
);
},
{
closed = 1;
nodes = (
"436 3 OFFCURVE",
"458 -20 OFFCURVE",
"458 -52 CURVE SMOOTH",
"458 -84 OFFCURVE",
"423 -113 OFFCURVE",
"380 -113 CURVE SMOOTH",
"187 -113 LINE SMOOTH",
"155 -113 OFFCURVE",
"129 -87 OFFCURVE",
"129 -55 CURVE SMOOTH",
"129 -23 OFFCURVE",
"155 3 OFFCURVE",
"187 3 CURVE SMOOTH",
"393 3 LINE SMOOTH"
);
},
{
closed = 1;
nodes = (
"352 446 OFFCURVE",
"404 423 OFFCURVE",
"404 360 CURVE SMOOTH",
"404 297 OFFCURVE",
"352 275 OFFCURVE",
"287 275 CURVE SMOOTH",
"222 275 OFFCURVE",
"171 297 OFFCURVE",
"171 360 CURVE SMOOTH",
"171 423 OFFCURVE",
"222 446 OFFCURVE",
"287 446 CURVE SMOOTH"
);
}
);
width = 568;
}
);
unicode = 0067;
},
{
glyphname = h;
lastChange = "2014-09-05 18:59:59 +0000";
layers = (
{
anchors = (
{
name = center;
position = "{297, 256}";
},
{
name = top;
position = "{136, 686}";
}
);
background = {
anchors = (
{
name = center;
position = "{297, 256}";
},
{
name = top;
position = "{297, 511}";
}
);
paths = (
{
closed = 1;
nodes = (
"83 720 LINE",
"83 0 LINE",
"177 0 LINE",
"177 304 LINE SMOOTH",
"177 383 OFFCURVE",
"241 446 OFFCURVE",
"313 446 CURVE SMOOTH",
"377 446 OFFCURVE",
"421 414 OFFCURVE",
"421 327 CURVE SMOOTH",
"421 0 LINE",
"515 0 LINE",
"515 344 LINE SMOOTH",
"515 462 OFFCURVE",
"444 521 OFFCURVE",
"335 521 CURVE SMOOTH",
"272 521 OFFCURVE",
"219 496 OFFCURVE",
"177 447 CURVE",
"177 720 LINE"
);
}
);
};
layerId = UUID0;
name = Regular;
paths = (
{
closed = 1;
nodes = (
"83 720 LINE",
"83 0 LINE",
"177 0 LINE",
"177 304 LINE SMOOTH",
"177 383 OFFCURVE",
"241 446 OFFCURVE",
"313 446 CURVE SMOOTH",
"377 446 OFFCURVE",
"421 414 OFFCURVE",
"421 327 CURVE SMOOTH",
"421 0 LINE",
"515 0 LINE",
"515 344 LINE SMOOTH",
"515 462 OFFCURVE",
"444 521 OFFCURVE",
"335 521 CURVE SMOOTH",
"272 521 OFFCURVE",
"219 496 OFFCURVE",
"177 447 CURVE",
"177 720 LINE"
);
}
);
width = 593;
}
);
rightKerningGroup = h;
unicode = 0068;
},
{
glyphname = i;
lastChange = "2014-09-05 18:36:08 +0000";
layers = (
{
background = {
paths = (
{
closed = 1;
nodes = (
"83 511 LINE",
"83 0 LINE",
"177 0 LINE",
"177 511 LINE"
);
},
{
closed = 1;
nodes = (
"81 720 LINE",
"81 633 LINE",
"179 633 LINE",
"179 720 LINE"
);
}
);
};
layerId = UUID0;
name = Regular;
paths = (
{
closed = 1;
nodes = (
"83 511 LINE",
"83 0 LINE",
"177 0 LINE",
"177 511 LINE"
);
},
{
closed = 1;
nodes = (
"81 720 LINE",
"81 633 LINE",
"179 633 LINE",
"179 720 LINE"
);
}
);
width = 260;
}
);
leftKerningGroup = i;
rightKerningGroup = i;
unicode = 0069;
},
{
glyphname = dotlessi;
lastChange = "2014-09-05 19:00:04 +0000";
layers = (
{
anchors = (
{
name = ogonek;
position = "{174, 10}";
},
{
name = top;
position = "{130, 511}";
}
);
background = {
anchors = (
{
name = ogonek;
position = "{234, 10}";
},
{
name = top;
position = "{130, 511}";
}
);
paths = (
{
closed = 1;
nodes = (
"83 511 LINE",
"83 0 LINE",
"177 0 LINE",
"177 511 LINE"
);
}
);
};
layerId = UUID0;
name = Regular;
paths = (
{
closed = 1;
nodes = (
"83 511 LINE",
"83 0 LINE",
"177 0 LINE",
"177 511 LINE"
);
}
);
width = 260;
}
);
leftKerningGroup = i;
rightKerningGroup = i;
unicode = 0131;
},
{
glyphname = iacute;
lastChange = "2014-09-05 18:36:08 +0000";
layers = (
{
background = {
paths = (
{
closed = 1;
nodes = (
"83 511 LINE",
"83 0 LINE",
"177 0 LINE",
"177 511 LINE"
);
},
{
closed = 1;
nodes = (
"179 720 LINE",
"85 575 LINE",
"154 575 LINE",
"270 717 LINE",
"269 720 LINE"
);
}
);
};
layerId = UUID0;
name = Regular;
paths = (
{
closed = 1;
nodes = (
"83 511 LINE",
"83 0 LINE",
"177 0 LINE",
"177 511 LINE"
);
},
{
closed = 1;
nodes = (
"179 720 LINE",
"85 575 LINE",
"154 575 LINE",
"270 717 LINE",
"269 720 LINE"
);
}
);
width = 260;
}
);
leftKerningGroup = i;
rightKerningGroup = i;
unicode = 00ED;
},
{
glyphname = icircumflex;
lastChange = "2014-09-05 18:36:08 +0000";
layers = (
{
background = {
paths = (
{
closed = 1;
nodes = (
"92 720 LINE",
"-44 575 LINE",
"36 575 LINE",
"131 664 LINE",
"225 575 LINE",
"305 575 LINE",
"170 720 LINE"
);
},
{
closed = 1;
nodes = (
"83 511 LINE",
"83 0 LINE",
"177 0 LINE",
"177 511 LINE"
);
}
);
};
layerId = UUID0;
name = Regular;
paths = (
{
closed = 1;
nodes = (
"92 720 LINE",
"-44 575 LINE",
"36 575 LINE",
"131 664 LINE",
"225 575 LINE",
"305 575 LINE",
"170 720 LINE"
);
},
{
closed = 1;
nodes = (
"83 511 LINE",
"83 0 LINE",
"177 0 LINE",
"177 511 LINE"
);
}
);
width = 260;
}
);
leftKerningGroup = i;
rightKerningGroup = i;
unicode = 00EE;
},
{
glyphname = idieresis;
lastChange = "2014-09-05 18:36:08 +0000";
layers = (
{
background = {
paths = (
{
closed = 1;
nodes = (
"83 511 LINE",
"83 0 LINE",
"177 0 LINE",
"177 511 LINE"
);
},
{
closed = 1;
nodes = (
"-9 720 LINE",
"-9 622 LINE",
"83 622 LINE",
"83 720 LINE"
);
},
{
closed = 1;
nodes = (
"179 720 LINE",
"179 622 LINE",
"270 622 LINE",
"270 720 LINE"
);
}
);
};
layerId = UUID0;
name = Regular;
paths = (
{
closed = 1;
nodes = (
"83 511 LINE",
"83 0 LINE",
"177 0 LINE",
"177 511 LINE"
);
},
{
closed = 1;
nodes = (
"-9 720 LINE",
"-9 622 LINE",
"83 622 LINE",
"83 720 LINE"
);
},
{
closed = 1;
nodes = (
"179 720 LINE",
"179 622 LINE",
"270 622 LINE",
"270 720 LINE"
);
}
);
width = 260;
}
);
leftKerningGroup = i;
rightKerningGroup = i;
unicode = 00EF;
},
{
glyphname = igrave;
lastChange = "2014-09-05 18:36:08 +0000";
layers = (
{
background = {
paths = (
{
closed = 1;
nodes = (
"83 511 LINE",
"83 0 LINE",
"177 0 LINE",
"177 511 LINE"
);
},
{
closed = 1;
nodes = (
"-8 720 LINE",
"-9 717 LINE",
"106 575 LINE",
"176 575 LINE",
"83 720 LINE"
);
}
);
};
layerId = UUID0;
name = Regular;
paths = (
{
closed = 1;
nodes = (
"83 511 LINE",
"83 0 LINE",
"177 0 LINE",
"177 511 LINE"
);
},
{
closed = 1;
nodes = (
"-8 720 LINE",
"-9 717 LINE",
"106 575 LINE",
"176 575 LINE",
"83 720 LINE"
);
}
);
width = 260;
}
);
leftKerningGroup = i;
rightKerningGroup = i;
unicode = 00EC;
},
{
color = 3;
glyphname = iogonek;
lastChange = "2014-09-09 17:20:21 +0000";
layers = (
{
components = (
{
name = dotlessi;
transform = "{1, 0, 0, 1, 0, 0}";
},
{
name = ogonek;
transform = "{1, 0, 0, 1, -3, 0}";
}
);
layerId = UUID0;
name = Regular;
paths = (
{
closed = 1;
nodes = (
"81 720 LINE",
"81 633 LINE",
"179 633 LINE",
"179 720 LINE"
);
}
);
width = 260;
}
);
unicode = 012F;
},
{
glyphname = j;
lastChange = "2014-09-05 18:36:08 +0000";
layers = (
{
background = {
paths = (
{
closed = 1;
nodes = (
"83 511 LINE",
"83 -44 LINE SMOOTH",
"83 -93 OFFCURVE",
"68 -112 OFFCURVE",
"18 -112 CURVE SMOOTH",
"5 -112 OFFCURVE",
"-12 -107 OFFCURVE",
"-34 -97 CURVE",
"-34 -167 LINE",
"-11 -180 OFFCURVE",
"17 -186 OFFCURVE",
"52 -186 CURVE SMOOTH",
"145 -186 OFFCURVE",
"177 -134 OFFCURVE",
"177 -15 CURVE SMOOTH",
"177 511 LINE"
);
},
{
closed = 1;
nodes = (
"81 720 LINE",
"81 633 LINE",
"179 633 LINE",
"179 720 LINE"
);
}
);
};
layerId = UUID0;
name = Regular;
paths = (
{
closed = 1;
nodes = (
"83 511 LINE",
"83 -44 LINE SMOOTH",
"83 -93 OFFCURVE",
"68 -112 OFFCURVE",
"18 -112 CURVE SMOOTH",
"5 -112 OFFCURVE",
"-12 -107 OFFCURVE",
"-34 -97 CURVE",
"-34 -167 LINE",
"-11 -180 OFFCURVE",
"17 -186 OFFCURVE",
"52 -186 CURVE SMOOTH",
"145 -186 OFFCURVE",
"177 -134 OFFCURVE",
"177 -15 CURVE SMOOTH",
"177 511 LINE"
);
},
{
closed = 1;
nodes = (
"81 720 LINE",
"81 633 LINE",
"179 633 LINE",
"179 720 LINE"
);
}
);
width = 260;
}
);
leftKerningGroup = i;
rightKerningGroup = i;
unicode = 006A;
},
{
glyphname = k;
lastChange = "2014-09-05 18:36:08 +0000";
layers = (
{
anchors = (
{
name = bottom;
position = "{268, 0}";
}
);
background = {
anchors = (
{
name = bottom;
position = "{268, 0}";
}
);
paths = (
{
closed = 1;
nodes = (
"83 720 LINE",
"83 0 LINE",
"177 0 LINE",
"177 110 LINE",
"254 190 LINE",
"407 0 LINE",
"521 0 LINE",
"311 263 LINE",
"508 511 LINE",
"405 511 LINE",
"177 226 LINE",
"177 720 LINE"
);
}
);
};
layerId = UUID0;
name = Regular;
paths = (
{
closed = 1;
nodes = (
"83 720 LINE",
"83 0 LINE",
"177 0 LINE",
"177 110 LINE",
"254 190 LINE",
"407 0 LINE",
"521 0 LINE",
"311 263 LINE",
"508 511 LINE",
"405 511 LINE",
"177 226 LINE",
"177 720 LINE"
);
}
);
width = 535;
}
);
unicode = 006B;
},
{
glyphname = l;
lastChange = "2014-09-08 21:35:41 +0000";
layers = (
{
anchors = (
{
name = bottom;
position = "{134, 0}";
},
{
name = top;
position = "{134, 686}";
},
{
name = topright;
position = "{298, 686}";
}
);
background = {
anchors = (
{
name = top;
position = "{134, 511}";
},
{
name = bottom;
position = "{134, 0}";
},
{
name = topright;
position = "{248, 511}";
}
);
paths = (
{
closed = 1;
nodes = (
"87 720 LINE",
"87 0 LINE",
"181 0 LINE",
"181 720 LINE"
);
}
);
};
layerId = UUID0;
name = Regular;
paths = (
{
closed = 1;
nodes = (
"87 720 LINE",
"87 0 LINE",
"181 0 LINE",
"181 720 LINE"
);
}
);
width = 268;
}
);
unicode = 006C;
},
{
glyphname = lslash;
lastChange = "2014-09-05 18:36:08 +0000";
layers = (
{
background = {
paths = (
{
closed = 1;
nodes = (
"102 720 LINE",
"102 392 LINE",
"20 351 LINE",
"20 281 LINE",
"102 322 LINE",
"102 0 LINE",
"196 0 LINE",
"196 370 LINE",
"278 411 LINE",
"278 481 LINE",
"196 440 LINE",
"196 720 LINE"
);
}
);
};
layerId = UUID0;
name = Regular;
paths = (
{
closed = 1;
nodes = (
"102 720 LINE",
"102 392 LINE",
"20 351 LINE",
"20 281 LINE",
"102 322 LINE",
"102 0 LINE",
"196 0 LINE",
"196 370 LINE",
"278 411 LINE",
"278 481 LINE",
"196 440 LINE",
"196 720 LINE"
);
}
);
width = 298;
}
);
unicode = 0142;
},
{
glyphname = m;
lastChange = "2014-09-05 18:36:08 +0000";
layers = (
{
background = {
paths = (
{
closed = 1;
nodes = (
"570 521 OFFCURVE",
"514 505 OFFCURVE",
"465 436 CURVE",
"439 493 OFFCURVE",
"392 521 OFFCURVE",
"325 521 CURVE SMOOTH",
"257 521 OFFCURVE",
"203 493 OFFCURVE",
"164 436 CURVE",
"151 511 LINE",
"83 511 LINE",
"83 0 LINE",
"177 0 LINE",
"177 304 LINE SMOOTH",
"177 384 OFFCURVE",
"232 446 OFFCURVE",
"297 446 CURVE SMOOTH",
"358 446 OFFCURVE",
"389 406 OFFCURVE",
"389 327 CURVE SMOOTH",
"389 0 LINE",
"483 0 LINE",
"483 304 LINE SMOOTH",
"483 384 OFFCURVE",
"538 446 OFFCURVE",
"603 446 CURVE SMOOTH",
"664 446 OFFCURVE",
"695 406 OFFCURVE",
"695 327 CURVE SMOOTH",
"695 0 LINE",
"789 0 LINE",
"789 344 LINE SMOOTH",
"789 458 OFFCURVE",
"726 521 OFFCURVE",
"622 521 CURVE SMOOTH"
);
}
);
};
layerId = UUID0;
name = Regular;
paths = (
{
closed = 1;
nodes = (
"570 521 OFFCURVE",
"514 505 OFFCURVE",
"465 436 CURVE",
"439 493 OFFCURVE",
"392 521 OFFCURVE",
"325 521 CURVE SMOOTH",
"257 521 OFFCURVE",
"203 493 OFFCURVE",
"164 436 CURVE",
"151 511 LINE",
"83 511 LINE",
"83 0 LINE",
"177 0 LINE",
"177 304 LINE SMOOTH",
"177 384 OFFCURVE",
"232 446 OFFCURVE",
"297 446 CURVE SMOOTH",
"358 446 OFFCURVE",
"389 406 OFFCURVE",
"389 327 CURVE SMOOTH",
"389 0 LINE",
"483 0 LINE",
"483 304 LINE SMOOTH",
"483 384 OFFCURVE",
"538 446 OFFCURVE",
"603 446 CURVE SMOOTH",
"664 446 OFFCURVE",
"695 406 OFFCURVE",
"695 327 CURVE SMOOTH",
"695 0 LINE",
"789 0 LINE",
"789 344 LINE SMOOTH",
"789 458 OFFCURVE",
"726 521 OFFCURVE",
"622 521 CURVE SMOOTH"
);
}
);
width = 867;
}
);
leftKerningGroup = m;
rightKerningGroup = h;
unicode = 006D;
},
{
glyphname = n;
lastChange = "2014-09-05 18:36:08 +0000";
layers = (
{
anchors = (
{
name = bottom;
position = "{297, 0}";
},
{
name = top;
position = "{297, 511}";
}
);
background = {
anchors = (
{
name = top;
position = "{297, 511}";
},
{
name = bottom;
position = "{297, 0}";
}
);
paths = (
{
closed = 1;
nodes = (
"264 521 OFFCURVE",
"207 493 OFFCURVE",
"164 436 CURVE",
"151 511 LINE",
"83 511 LINE",
"83 0 LINE",
"177 0 LINE",
"177 304 LINE SMOOTH",
"177 383 OFFCURVE",
"241 446 OFFCURVE",
"313 446 CURVE SMOOTH",
"377 446 OFFCURVE",
"421 414 OFFCURVE",
"421 327 CURVE SMOOTH",
"421 0 LINE",
"515 0 LINE",
"515 344 LINE SMOOTH",
"515 462 OFFCURVE",
"444 521 OFFCURVE",
"335 521 CURVE SMOOTH"
);
}
);
};
layerId = UUID0;
name = Regular;
paths = (
{
closed = 1;
nodes = (
"264 521 OFFCURVE",
"207 493 OFFCURVE",
"164 436 CURVE",
"151 511 LINE",
"83 511 LINE",
"83 0 LINE",
"177 0 LINE",
"177 304 LINE SMOOTH",
"177 383 OFFCURVE",
"241 446 OFFCURVE",
"313 446 CURVE SMOOTH",
"377 446 OFFCURVE",
"421 414 OFFCURVE",
"421 327 CURVE SMOOTH",
"421 0 LINE",
"515 0 LINE",
"515 344 LINE SMOOTH",
"515 462 OFFCURVE",
"444 521 OFFCURVE",
"335 521 CURVE SMOOTH"
);
}
);
width = 593;
}
);
leftKerningGroup = m;
rightKerningGroup = h;
unicode = 006E;
},
{
glyphname = ntilde;
lastChange = "2014-09-05 18:36:08 +0000";
layers = (
{
background = {
paths = (
{
closed = 1;
nodes = (
"264 521 OFFCURVE",
"207 493 OFFCURVE",
"164 436 CURVE",
"151 511 LINE",
"83 511 LINE",
"83 0 LINE",
"177 0 LINE",
"177 304 LINE SMOOTH",
"177 383 OFFCURVE",
"241 446 OFFCURVE",
"313 446 CURVE SMOOTH",
"377 446 OFFCURVE",
"421 414 OFFCURVE",
"421 327 CURVE SMOOTH",
"421 0 LINE",
"515 0 LINE",
"515 344 LINE SMOOTH",
"515 462 OFFCURVE",
"444 521 OFFCURVE",
"335 521 CURVE SMOOTH"
);
},
{
closed = 1;
nodes = (
"447 720 LINE",
"440 697 OFFCURVE",
"421 685 OFFCURVE",
"392 685 CURVE SMOOTH",
"375 685 OFFCURVE",
"349 691 OFFCURVE",
"312 702 CURVE SMOOTH",
"284 711 OFFCURVE",
"257 720 OFFCURVE",
"222 720 CURVE SMOOTH",
"150 720 OFFCURVE",
"111 668 OFFCURVE",
"111 616 CURVE",
"161 616 LINE",
"168 639 OFFCURVE",
"186 650 OFFCURVE",
"216 650 CURVE SMOOTH",
"245 650 OFFCURVE",
"260 643 OFFCURVE",
"315 627 CURVE SMOOTH",
"341 619 OFFCURVE",
"365 616 OFFCURVE",
"385 616 CURVE SMOOTH",
"452 616 OFFCURVE",
"497 661 OFFCURVE",
"497 720 CURVE"
);
}
);
};
layerId = UUID0;
name = Regular;
paths = (
{
closed = 1;
nodes = (
"264 521 OFFCURVE",
"207 493 OFFCURVE",
"164 436 CURVE",
"151 511 LINE",
"83 511 LINE",
"83 0 LINE",
"177 0 LINE",
"177 304 LINE SMOOTH",
"177 383 OFFCURVE",
"241 446 OFFCURVE",
"313 446 CURVE SMOOTH",
"377 446 OFFCURVE",
"421 414 OFFCURVE",
"421 327 CURVE SMOOTH",
"421 0 LINE",
"515 0 LINE",
"515 344 LINE SMOOTH",
"515 462 OFFCURVE",
"444 521 OFFCURVE",
"335 521 CURVE SMOOTH"
);
},
{
closed = 1;
nodes = (
"447 720 LINE",
"440 697 OFFCURVE",
"421 685 OFFCURVE",
"392 685 CURVE SMOOTH",
"375 685 OFFCURVE",
"349 691 OFFCURVE",
"312 702 CURVE SMOOTH",
"284 711 OFFCURVE",
"257 720 OFFCURVE",
"222 720 CURVE SMOOTH",
"150 720 OFFCURVE",
"111 668 OFFCURVE",
"111 616 CURVE",
"161 616 LINE",
"168 639 OFFCURVE",
"186 650 OFFCURVE",
"216 650 CURVE SMOOTH",
"245 650 OFFCURVE",
"260 643 OFFCURVE",
"315 627 CURVE SMOOTH",
"341 619 OFFCURVE",
"365 616 OFFCURVE",
"385 616 CURVE SMOOTH",
"452 616 OFFCURVE",
"497 661 OFFCURVE",
"497 720 CURVE"
);
}
);
width = 593;
}
);
leftKerningGroup = m;
rightKerningGroup = h;
unicode = 00F1;
},
{
glyphname = o;
lastChange = "2014-09-05 18:36:08 +0000";
layers = (
{
anchors = (
{
name = top;
position = "{287, 511}";
}
);
background = {
anchors = (
{
name = top;
position = "{287, 511}";
}
);
paths = (
{
closed = 1;
nodes = (
"145 521 OFFCURVE",
"52 429 OFFCURVE",
"52 274 CURVE SMOOTH",
"52 237 LINE SMOOTH",
"52 84 OFFCURVE",
"142 -10 OFFCURVE",
"287 -10 CURVE SMOOTH",
"432 -10 OFFCURVE",
"522 84 OFFCURVE",
"522 237 CURVE SMOOTH",
"522 274 LINE SMOOTH",
"522 429 OFFCURVE",
"429 521 OFFCURVE",
"287 521 CURVE SMOOTH"
);
},
{
closed = 1;
nodes = (
"378 446 OFFCURVE",
"428 380 OFFCURVE",
"428 265 CURVE SMOOTH",
"428 246 LINE SMOOTH",
"428 126 OFFCURVE",
"374 65 OFFCURVE",
"287 65 CURVE SMOOTH",
"196 65 OFFCURVE",
"146 131 OFFCURVE",
"146 246 CURVE SMOOTH",
"146 265 LINE SMOOTH",
"146 385 OFFCURVE",
"199 446 OFFCURVE",
"287 446 CURVE SMOOTH"
);
}
);
};
layerId = UUID0;
name = Regular;
paths = (
{
closed = 1;
nodes = (
"145 521 OFFCURVE",
"52 429 OFFCURVE",
"52 274 CURVE SMOOTH",
"52 237 LINE SMOOTH",
"52 84 OFFCURVE",
"142 -10 OFFCURVE",
"287 -10 CURVE SMOOTH",
"432 -10 OFFCURVE",
"522 84 OFFCURVE",
"522 237 CURVE SMOOTH",
"522 274 LINE SMOOTH",
"522 429 OFFCURVE",
"429 521 OFFCURVE",
"287 521 CURVE SMOOTH"
);
},
{
closed = 1;
nodes = (
"378 446 OFFCURVE",
"428 380 OFFCURVE",
"428 265 CURVE SMOOTH",
"428 246 LINE SMOOTH",
"428 126 OFFCURVE",
"374 65 OFFCURVE",
"287 65 CURVE SMOOTH",
"196 65 OFFCURVE",
"146 131 OFFCURVE",
"146 246 CURVE SMOOTH",
"146 265 LINE SMOOTH",
"146 385 OFFCURVE",
"199 446 OFFCURVE",
"287 446 CURVE SMOOTH"
);
}
);
width = 574;
}
);
leftKerningGroup = c;
rightKerningGroup = o;
unicode = 006F;
},
{
glyphname = oacute;
lastChange = "2014-09-05 18:36:08 +0000";
layers = (
{
background = {
paths = (
{
closed = 1;
nodes = (
"145 521 OFFCURVE",
"52 429 OFFCURVE",
"52 274 CURVE SMOOTH",
"52 237 LINE SMOOTH",
"52 84 OFFCURVE",
"142 -10 OFFCURVE",
"287 -10 CURVE SMOOTH",
"432 -10 OFFCURVE",
"522 84 OFFCURVE",
"522 237 CURVE SMOOTH",
"522 274 LINE SMOOTH",
"522 429 OFFCURVE",
"429 521 OFFCURVE",
"287 521 CURVE SMOOTH"
);
},
{
closed = 1;
nodes = (
"378 446 OFFCURVE",
"428 380 OFFCURVE",
"428 265 CURVE SMOOTH",
"428 246 LINE SMOOTH",
"428 126 OFFCURVE",
"374 65 OFFCURVE",
"287 65 CURVE SMOOTH",
"196 65 OFFCURVE",
"146 131 OFFCURVE",
"146 246 CURVE SMOOTH",
"146 265 LINE SMOOTH",
"146 385 OFFCURVE",
"199 446 OFFCURVE",
"287 446 CURVE SMOOTH"
);
},
{
closed = 1;
nodes = (
"349 720 LINE",
"255 575 LINE",
"324 575 LINE",
"440 717 LINE",
"439 720 LINE"
);
}
);
};
layerId = UUID0;
name = Regular;
paths = (
{
closed = 1;
nodes = (
"145 521 OFFCURVE",
"52 429 OFFCURVE",
"52 274 CURVE SMOOTH",
"52 237 LINE SMOOTH",
"52 84 OFFCURVE",
"142 -10 OFFCURVE",
"287 -10 CURVE SMOOTH",
"432 -10 OFFCURVE",
"522 84 OFFCURVE",
"522 237 CURVE SMOOTH",
"522 274 LINE SMOOTH",
"522 429 OFFCURVE",
"429 521 OFFCURVE",
"287 521 CURVE SMOOTH"
);
},
{
closed = 1;
nodes = (
"378 446 OFFCURVE",
"428 380 OFFCURVE",
"428 265 CURVE SMOOTH",
"428 246 LINE SMOOTH",
"428 126 OFFCURVE",
"374 65 OFFCURVE",
"287 65 CURVE SMOOTH",
"196 65 OFFCURVE",
"146 131 OFFCURVE",
"146 246 CURVE SMOOTH",
"146 265 LINE SMOOTH",
"146 385 OFFCURVE",
"199 446 OFFCURVE",
"287 446 CURVE SMOOTH"
);
},
{
closed = 1;
nodes = (
"349 720 LINE",
"255 575 LINE",
"324 575 LINE",
"440 717 LINE",
"439 720 LINE"
);
}
);
width = 574;
}
);
leftKerningGroup = c;
rightKerningGroup = o;
unicode = 00F3;
},
{
glyphname = ocircumflex;
lastChange = "2014-09-05 18:36:08 +0000";
layers = (
{
background = {
paths = (
{
closed = 1;
nodes = (
"145 521 OFFCURVE",
"52 429 OFFCURVE",
"52 274 CURVE SMOOTH",
"52 237 LINE SMOOTH",
"52 84 OFFCURVE",
"142 -10 OFFCURVE",
"287 -10 CURVE SMOOTH",
"432 -10 OFFCURVE",
"522 84 OFFCURVE",
"522 237 CURVE SMOOTH",
"522 274 LINE SMOOTH",
"522 429 OFFCURVE",
"429 521 OFFCURVE",
"287 521 CURVE SMOOTH"
);
},
{
closed = 1;
nodes = (
"378 446 OFFCURVE",
"428 380 OFFCURVE",
"428 265 CURVE SMOOTH",
"428 246 LINE SMOOTH",
"428 126 OFFCURVE",
"374 65 OFFCURVE",
"287 65 CURVE SMOOTH",
"196 65 OFFCURVE",
"146 131 OFFCURVE",
"146 246 CURVE SMOOTH",
"146 265 LINE SMOOTH",
"146 385 OFFCURVE",
"199 446 OFFCURVE",
"287 446 CURVE SMOOTH"
);
},
{
closed = 1;
nodes = (
"247 720 LINE",
"111 575 LINE",
"191 575 LINE",
"286 664 LINE",
"380 575 LINE",
"460 575 LINE",
"325 720 LINE"
);
}
);
};
layerId = UUID0;
name = Regular;
paths = (
{
closed = 1;
nodes = (
"145 521 OFFCURVE",
"52 429 OFFCURVE",
"52 274 CURVE SMOOTH",
"52 237 LINE SMOOTH",
"52 84 OFFCURVE",
"142 -10 OFFCURVE",
"287 -10 CURVE SMOOTH",
"432 -10 OFFCURVE",
"522 84 OFFCURVE",
"522 237 CURVE SMOOTH",
"522 274 LINE SMOOTH",
"522 429 OFFCURVE",
"429 521 OFFCURVE",
"287 521 CURVE SMOOTH"
);
},
{
closed = 1;
nodes = (
"378 446 OFFCURVE",
"428 380 OFFCURVE",
"428 265 CURVE SMOOTH",
"428 246 LINE SMOOTH",
"428 126 OFFCURVE",
"374 65 OFFCURVE",
"287 65 CURVE SMOOTH",
"196 65 OFFCURVE",
"146 131 OFFCURVE",
"146 246 CURVE SMOOTH",
"146 265 LINE SMOOTH",
"146 385 OFFCURVE",
"199 446 OFFCURVE",
"287 446 CURVE SMOOTH"
);
},
{
closed = 1;
nodes = (
"247 720 LINE",
"111 575 LINE",
"191 575 LINE",
"286 664 LINE",
"380 575 LINE",
"460 575 LINE",
"325 720 LINE"
);
}
);
width = 574;
}
);
leftKerningGroup = c;
rightKerningGroup = o;
unicode = 00F4;
},
{
glyphname = odieresis;
lastChange = "2014-09-05 18:36:08 +0000";
layers = (
{
background = {
paths = (
{
closed = 1;
nodes = (
"145 521 OFFCURVE",
"52 429 OFFCURVE",
"52 274 CURVE SMOOTH",
"52 237 LINE SMOOTH",
"52 84 OFFCURVE",
"142 -10 OFFCURVE",
"287 -10 CURVE SMOOTH",
"432 -10 OFFCURVE",
"522 84 OFFCURVE",
"522 237 CURVE SMOOTH",
"522 274 LINE SMOOTH",
"522 429 OFFCURVE",
"429 521 OFFCURVE",
"287 521 CURVE SMOOTH"
);
},
{
closed = 1;
nodes = (
"378 446 OFFCURVE",
"428 380 OFFCURVE",
"428 265 CURVE SMOOTH",
"428 246 LINE SMOOTH",
"428 126 OFFCURVE",
"374 65 OFFCURVE",
"287 65 CURVE SMOOTH",
"196 65 OFFCURVE",
"146 131 OFFCURVE",
"146 246 CURVE SMOOTH",
"146 265 LINE SMOOTH",
"146 385 OFFCURVE",
"199 446 OFFCURVE",
"287 446 CURVE SMOOTH"
);
},
{
closed = 1;
nodes = (
"147 720 LINE",
"147 622 LINE",
"237 622 LINE",
"237 720 LINE"
);
},
{
closed = 1;
nodes = (
"335 720 LINE",
"335 622 LINE",
"426 622 LINE",
"426 720 LINE"
);
}
);
};
layerId = UUID0;
name = Regular;
paths = (
{
closed = 1;
nodes = (
"145 521 OFFCURVE",
"52 429 OFFCURVE",
"52 274 CURVE SMOOTH",
"52 237 LINE SMOOTH",
"52 84 OFFCURVE",
"142 -10 OFFCURVE",
"287 -10 CURVE SMOOTH",
"432 -10 OFFCURVE",
"522 84 OFFCURVE",
"522 237 CURVE SMOOTH",
"522 274 LINE SMOOTH",
"522 429 OFFCURVE",
"429 521 OFFCURVE",
"287 521 CURVE SMOOTH"
);
},
{
closed = 1;
nodes = (
"378 446 OFFCURVE",
"428 380 OFFCURVE",
"428 265 CURVE SMOOTH",
"428 246 LINE SMOOTH",
"428 126 OFFCURVE",
"374 65 OFFCURVE",
"287 65 CURVE SMOOTH",
"196 65 OFFCURVE",
"146 131 OFFCURVE",
"146 246 CURVE SMOOTH",
"146 265 LINE SMOOTH",
"146 385 OFFCURVE",
"199 446 OFFCURVE",
"287 446 CURVE SMOOTH"
);
},
{
closed = 1;
nodes = (
"147 720 LINE",
"147 622 LINE",
"237 622 LINE",
"237 720 LINE"
);
},
{
closed = 1;
nodes = (
"335 720 LINE",
"335 622 LINE",
"426 622 LINE",
"426 720 LINE"
);
}
);
width = 574;
}
);
leftKerningGroup = c;
rightKerningGroup = o;
unicode = 00F6;
},
{
glyphname = ograve;
lastChange = "2014-09-05 18:36:08 +0000";
layers = (
{
background = {
paths = (
{
closed = 1;
nodes = (
"145 521 OFFCURVE",
"52 429 OFFCURVE",
"52 274 CURVE SMOOTH",
"52 237 LINE SMOOTH",
"52 84 OFFCURVE",
"142 -10 OFFCURVE",
"287 -10 CURVE SMOOTH",
"432 -10 OFFCURVE",
"522 84 OFFCURVE",
"522 237 CURVE SMOOTH",
"522 274 LINE SMOOTH",
"522 429 OFFCURVE",
"429 521 OFFCURVE",
"287 521 CURVE SMOOTH"
);
},
{
closed = 1;
nodes = (
"378 446 OFFCURVE",
"428 380 OFFCURVE",
"428 265 CURVE SMOOTH",
"428 246 LINE SMOOTH",
"428 126 OFFCURVE",
"374 65 OFFCURVE",
"287 65 CURVE SMOOTH",
"196 65 OFFCURVE",
"146 131 OFFCURVE",
"146 246 CURVE SMOOTH",
"146 265 LINE SMOOTH",
"146 385 OFFCURVE",
"199 446 OFFCURVE",
"287 446 CURVE SMOOTH"
);
},
{
closed = 1;
nodes = (
"139 720 LINE",
"138 717 LINE",
"253 575 LINE",
"323 575 LINE",
"228 720 LINE"
);
}
);
};
layerId = UUID0;
name = Regular;
paths = (
{
closed = 1;
nodes = (
"145 521 OFFCURVE",
"52 429 OFFCURVE",
"52 274 CURVE SMOOTH",
"52 237 LINE SMOOTH",
"52 84 OFFCURVE",
"142 -10 OFFCURVE",
"287 -10 CURVE SMOOTH",
"432 -10 OFFCURVE",
"522 84 OFFCURVE",
"522 237 CURVE SMOOTH",
"522 274 LINE SMOOTH",
"522 429 OFFCURVE",
"429 521 OFFCURVE",
"287 521 CURVE SMOOTH"
);
},
{
closed = 1;
nodes = (
"378 446 OFFCURVE",
"428 380 OFFCURVE",
"428 265 CURVE SMOOTH",
"428 246 LINE SMOOTH",
"428 126 OFFCURVE",
"374 65 OFFCURVE",
"287 65 CURVE SMOOTH",
"196 65 OFFCURVE",
"146 131 OFFCURVE",
"146 246 CURVE SMOOTH",
"146 265 LINE SMOOTH",
"146 385 OFFCURVE",
"199 446 OFFCURVE",
"287 446 CURVE SMOOTH"
);
},
{
closed = 1;
nodes = (
"139 720 LINE",
"138 717 LINE",
"253 575 LINE",
"323 575 LINE",
"228 720 LINE"
);
}
);
width = 574;
}
);
leftKerningGroup = c;
rightKerningGroup = o;
unicode = 00F2;
},
{
glyphname = oslash;
lastChange = "2014-09-05 18:36:08 +0000";
layers = (
{
anchors = (
{
name = top;
position = "{287, 511}";
}
);
background = {
anchors = (
{
name = top;
position = "{287, 511}";
}
);
paths = (
{
closed = 1;
nodes = (
"452 568 LINE",
"406 494 LINE",
"371 512 OFFCURVE",
"331 521 OFFCURVE",
"287 521 CURVE SMOOTH",
"145 521 OFFCURVE",
"52 429 OFFCURVE",
"52 274 CURVE SMOOTH",
"52 237 LINE SMOOTH",
"52 153 OFFCURVE",
"77 89 OFFCURVE",
"126 45 CURVE",
"63 -55 LINE",
"122 -55 LINE",
"167 17 LINE",
"202 -1 OFFCURVE",
"242 -10 OFFCURVE",
"287 -10 CURVE SMOOTH",
"432 -10 OFFCURVE",
"522 84 OFFCURVE",
"522 237 CURVE SMOOTH",
"522 274 LINE SMOOTH",
"522 358 OFFCURVE",
"497 422 OFFCURVE",
"447 466 CURVE",
"511 568 LINE"
);
},
{
closed = 1;
nodes = (
"318 446 OFFCURVE",
"341 439 OFFCURVE",
"363 425 CURVE",
"175 124 LINE",
"156 155 OFFCURVE",
"146 195 OFFCURVE",
"146 246 CURVE SMOOTH",
"146 265 LINE SMOOTH",
"146 381 OFFCURVE",
"195 446 OFFCURVE",
"294 446 CURVE SMOOTH"
);
},
{
closed = 1;
nodes = (
"418 357 OFFCURVE",
"428 316 OFFCURVE",
"428 265 CURVE SMOOTH",
"428 246 LINE SMOOTH",
"428 130 OFFCURVE",
"380 65 OFFCURVE",
"279 65 CURVE SMOOTH",
"254 65 OFFCURVE",
"231 72 OFFCURVE",
"210 86 CURVE",
"398 388 LINE"
);
}
);
};
layerId = UUID0;
name = Regular;
paths = (
{
closed = 1;
nodes = (
"452 568 LINE",
"406 494 LINE",
"371 512 OFFCURVE",
"331 521 OFFCURVE",
"287 521 CURVE SMOOTH",
"145 521 OFFCURVE",
"52 429 OFFCURVE",
"52 274 CURVE SMOOTH",
"52 237 LINE SMOOTH",
"52 153 OFFCURVE",
"77 89 OFFCURVE",
"126 45 CURVE",
"63 -55 LINE",
"122 -55 LINE",
"167 17 LINE",
"202 -1 OFFCURVE",
"242 -10 OFFCURVE",
"287 -10 CURVE SMOOTH",
"432 -10 OFFCURVE",
"522 84 OFFCURVE",
"522 237 CURVE SMOOTH",
"522 274 LINE SMOOTH",
"522 358 OFFCURVE",
"497 422 OFFCURVE",
"447 466 CURVE",
"511 568 LINE"
);
},
{
closed = 1;
nodes = (
"318 446 OFFCURVE",
"341 439 OFFCURVE",
"363 425 CURVE",
"175 124 LINE",
"156 155 OFFCURVE",
"146 195 OFFCURVE",
"146 246 CURVE SMOOTH",
"146 265 LINE SMOOTH",
"146 381 OFFCURVE",
"195 446 OFFCURVE",
"294 446 CURVE SMOOTH"
);
},
{
closed = 1;
nodes = (
"418 357 OFFCURVE",
"428 316 OFFCURVE",
"428 265 CURVE SMOOTH",
"428 246 LINE SMOOTH",
"428 130 OFFCURVE",
"380 65 OFFCURVE",
"279 65 CURVE SMOOTH",
"254 65 OFFCURVE",
"231 72 OFFCURVE",
"210 86 CURVE",
"398 388 LINE"
);
}
);
width = 574;
}
);
leftKerningGroup = c;
rightKerningGroup = o;
unicode = 00F8;
},
{
glyphname = otilde;
lastChange = "2014-09-05 18:36:08 +0000";
layers = (
{
background = {
paths = (
{
closed = 1;
nodes = (
"145 521 OFFCURVE",
"52 429 OFFCURVE",
"52 274 CURVE SMOOTH",
"52 237 LINE SMOOTH",
"52 84 OFFCURVE",
"142 -10 OFFCURVE",
"287 -10 CURVE SMOOTH",
"432 -10 OFFCURVE",
"522 84 OFFCURVE",
"522 237 CURVE SMOOTH",
"522 274 LINE SMOOTH",
"522 429 OFFCURVE",
"429 521 OFFCURVE",
"287 521 CURVE SMOOTH"
);
},
{
closed = 1;
nodes = (
"378 446 OFFCURVE",
"428 380 OFFCURVE",
"428 265 CURVE SMOOTH",
"428 246 LINE SMOOTH",
"428 126 OFFCURVE",
"374 65 OFFCURVE",
"287 65 CURVE SMOOTH",
"196 65 OFFCURVE",
"146 131 OFFCURVE",
"146 246 CURVE SMOOTH",
"146 265 LINE SMOOTH",
"146 385 OFFCURVE",
"199 446 OFFCURVE",
"287 446 CURVE SMOOTH"
);
},
{
closed = 1;
nodes = (
"430 720 LINE",
"423 697 OFFCURVE",
"404 685 OFFCURVE",
"375 685 CURVE SMOOTH",
"358 685 OFFCURVE",
"330 690 OFFCURVE",
"294 702 CURVE",
"266 710 OFFCURVE",
"240 720 OFFCURVE",
"205 720 CURVE SMOOTH",
"134 720 OFFCURVE",
"94 670 OFFCURVE",
"94 616 CURVE",
"144 616 LINE",
"151 639 OFFCURVE",
"169 650 OFFCURVE",
"199 650 CURVE SMOOTH",
"228 650 OFFCURVE",
"243 643 OFFCURVE",
"298 627 CURVE SMOOTH",
"324 619 OFFCURVE",
"348 616 OFFCURVE",
"368 616 CURVE SMOOTH",
"434 616 OFFCURVE",
"480 658 OFFCURVE",
"480 720 CURVE"
);
}
);
};
layerId = UUID0;
name = Regular;
paths = (
{
closed = 1;
nodes = (
"145 521 OFFCURVE",
"52 429 OFFCURVE",
"52 274 CURVE SMOOTH",
"52 237 LINE SMOOTH",
"52 84 OFFCURVE",
"142 -10 OFFCURVE",
"287 -10 CURVE SMOOTH",
"432 -10 OFFCURVE",
"522 84 OFFCURVE",
"522 237 CURVE SMOOTH",
"522 274 LINE SMOOTH",
"522 429 OFFCURVE",
"429 521 OFFCURVE",
"287 521 CURVE SMOOTH"
);
},
{
closed = 1;
nodes = (
"378 446 OFFCURVE",
"428 380 OFFCURVE",
"428 265 CURVE SMOOTH",
"428 246 LINE SMOOTH",
"428 126 OFFCURVE",
"374 65 OFFCURVE",
"287 65 CURVE SMOOTH",
"196 65 OFFCURVE",
"146 131 OFFCURVE",
"146 246 CURVE SMOOTH",
"146 265 LINE SMOOTH",
"146 385 OFFCURVE",
"199 446 OFFCURVE",
"287 446 CURVE SMOOTH"
);
},
{
closed = 1;
nodes = (
"430 720 LINE",
"423 697 OFFCURVE",
"404 685 OFFCURVE",
"375 685 CURVE SMOOTH",
"358 685 OFFCURVE",
"330 690 OFFCURVE",
"294 702 CURVE",
"266 710 OFFCURVE",
"240 720 OFFCURVE",
"205 720 CURVE SMOOTH",
"134 720 OFFCURVE",
"94 670 OFFCURVE",
"94 616 CURVE",
"144 616 LINE",
"151 639 OFFCURVE",
"169 650 OFFCURVE",
"199 650 CURVE SMOOTH",
"228 650 OFFCURVE",
"243 643 OFFCURVE",
"298 627 CURVE SMOOTH",
"324 619 OFFCURVE",
"348 616 OFFCURVE",
"368 616 CURVE SMOOTH",
"434 616 OFFCURVE",
"480 658 OFFCURVE",
"480 720 CURVE"
);
}
);
width = 574;
}
);
leftKerningGroup = c;
rightKerningGroup = o;
unicode = 00F5;
},
{
glyphname = oe;
lastChange = "2014-09-05 18:36:08 +0000";
layers = (
{
anchors = (
{
name = top;
position = "{467, 511}";
}
);
background = {
anchors = (
{
name = top;
position = "{467, 511}";
}
);
paths = (
{
closed = 1;
nodes = (
"658 521 LINE SMOOTH",
"579 521 OFFCURVE",
"519 492 OFFCURVE",
"476 434 CURVE",
"435 492 OFFCURVE",
"372 521 OFFCURVE",
"287 521 CURVE SMOOTH",
"145 521 OFFCURVE",
"52 429 OFFCURVE",
"52 274 CURVE SMOOTH",
"52 237 LINE SMOOTH",
"52 84 OFFCURVE",
"142 -10 OFFCURVE",
"287 -10 CURVE SMOOTH",
"372 -10 OFFCURVE",
"435 19 OFFCURVE",
"476 77 CURVE",
"519 19 OFFCURVE",
"581 -10 OFFCURVE",
"661 -10 CURVE SMOOTH",
"665 -10 LINE SMOOTH",
"792 -10 OFFCURVE",
"879 71 OFFCURVE",
"879 190 CURVE",
"790 190 LINE",
"790 130 OFFCURVE",
"758 65 OFFCURVE",
"667 65 CURVE SMOOTH",
"571 65 OFFCURVE",
"525 128 OFFCURVE",
"522 234 CURVE",
"879 234 LINE",
"879 305 LINE SMOOTH",
"879 439 OFFCURVE",
"790 521 OFFCURVE",
"665 521 CURVE SMOOTH"
);
},
{
closed = 1;
nodes = (
"378 446 OFFCURVE",
"428 380 OFFCURVE",
"428 265 CURVE SMOOTH",
"428 246 LINE SMOOTH",
"428 126 OFFCURVE",
"374 65 OFFCURVE",
"287 65 CURVE SMOOTH",
"196 65 OFFCURVE",
"146 131 OFFCURVE",
"146 246 CURVE SMOOTH",
"146 265 LINE SMOOTH",
"146 385 OFFCURVE",
"199 446 OFFCURVE",
"287 446 CURVE SMOOTH"
);
},
{
closed = 1;
nodes = (
"736 446 OFFCURVE",
"786 395 OFFCURVE",
"786 319 CURVE SMOOTH",
"786 307 LINE",
"524 307 LINE",
"535 400 OFFCURVE",
"585 446 OFFCURVE",
"660 446 CURVE SMOOTH"
);
}
);
};
layerId = UUID0;
name = Regular;
paths = (
{
closed = 1;
nodes = (
"658 521 LINE SMOOTH",
"579 521 OFFCURVE",
"519 492 OFFCURVE",
"476 434 CURVE",
"435 492 OFFCURVE",
"372 521 OFFCURVE",
"287 521 CURVE SMOOTH",
"145 521 OFFCURVE",
"52 429 OFFCURVE",
"52 274 CURVE SMOOTH",
"52 237 LINE SMOOTH",
"52 84 OFFCURVE",
"142 -10 OFFCURVE",
"287 -10 CURVE SMOOTH",
"372 -10 OFFCURVE",
"435 19 OFFCURVE",
"476 77 CURVE",
"519 19 OFFCURVE",
"581 -10 OFFCURVE",
"661 -10 CURVE SMOOTH",
"665 -10 LINE SMOOTH",
"792 -10 OFFCURVE",
"879 71 OFFCURVE",
"879 190 CURVE",
"790 190 LINE",
"790 130 OFFCURVE",
"758 65 OFFCURVE",
"667 65 CURVE SMOOTH",
"571 65 OFFCURVE",
"525 128 OFFCURVE",
"522 234 CURVE",
"879 234 LINE",
"879 305 LINE SMOOTH",
"879 439 OFFCURVE",
"790 521 OFFCURVE",
"665 521 CURVE SMOOTH"
);
},
{
closed = 1;
nodes = (
"378 446 OFFCURVE",
"428 380 OFFCURVE",
"428 265 CURVE SMOOTH",
"428 246 LINE SMOOTH",
"428 126 OFFCURVE",
"374 65 OFFCURVE",
"287 65 CURVE SMOOTH",
"196 65 OFFCURVE",
"146 131 OFFCURVE",
"146 246 CURVE SMOOTH",
"146 265 LINE SMOOTH",
"146 385 OFFCURVE",
"199 446 OFFCURVE",
"287 446 CURVE SMOOTH"
);
},
{
closed = 1;
nodes = (
"736 446 OFFCURVE",
"786 395 OFFCURVE",
"786 319 CURVE SMOOTH",
"786 307 LINE",
"524 307 LINE",
"535 400 OFFCURVE",
"585 446 OFFCURVE",
"660 446 CURVE SMOOTH"
);
}
);
width = 933;
}
);
leftKerningGroup = c;
rightKerningGroup = e;
unicode = 0153;
},
{
glyphname = p;
lastChange = "2014-09-05 18:36:08 +0000";
layers = (
{
background = {
paths = (
{
closed = 1;
nodes = (
"257 521 OFFCURVE",
"204 494 OFFCURVE",
"166 441 CURVE",
"161 475 OFFCURVE",
"156 498 OFFCURVE",
"153 511 CURVE",
"83 511 LINE",
"83 -181 LINE",
"177 -181 LINE",
"177 65 LINE",
"212 15 OFFCURVE",
"261 -10 OFFCURVE",
"324 -10 CURVE SMOOTH",
"456 -10 OFFCURVE",
"531 89 OFFCURVE",
"531 244 CURVE SMOOTH",
"531 255 LINE SMOOTH",
"531 421 OFFCURVE",
"453 521 OFFCURVE",
"324 521 CURVE SMOOTH"
);
},
{
closed = 1;
nodes = (
"392 446 OFFCURVE",
"437 388 OFFCURVE",
"437 256 CURVE SMOOTH",
"437 126 OFFCURVE",
"395 65 OFFCURVE",
"307 65 CURVE SMOOTH",
"219 65 OFFCURVE",
"176 124 OFFCURVE",
"176 256 CURVE SMOOTH",
"176 383 OFFCURVE",
"216 446 OFFCURVE",
"307 446 CURVE SMOOTH"
);
}
);
};
layerId = UUID0;
name = Regular;
paths = (
{
closed = 1;
nodes = (
"257 521 OFFCURVE",
"204 494 OFFCURVE",
"166 441 CURVE",
"161 475 OFFCURVE",
"156 498 OFFCURVE",
"153 511 CURVE",
"83 511 LINE",
"83 -181 LINE",
"177 -181 LINE",
"177 65 LINE",
"212 15 OFFCURVE",
"261 -10 OFFCURVE",
"324 -10 CURVE SMOOTH",
"456 -10 OFFCURVE",
"531 89 OFFCURVE",
"531 244 CURVE SMOOTH",
"531 255 LINE SMOOTH",
"531 421 OFFCURVE",
"453 521 OFFCURVE",
"324 521 CURVE SMOOTH"
);
},
{
closed = 1;
nodes = (
"392 446 OFFCURVE",
"437 388 OFFCURVE",
"437 256 CURVE SMOOTH",
"437 126 OFFCURVE",
"395 65 OFFCURVE",
"307 65 CURVE SMOOTH",
"219 65 OFFCURVE",
"176 124 OFFCURVE",
"176 256 CURVE SMOOTH",
"176 383 OFFCURVE",
"216 446 OFFCURVE",
"307 446 CURVE SMOOTH"
);
}
);
width = 583;
}
);
leftKerningGroup = m;
rightKerningGroup = b;
unicode = 0070;
},
{
glyphname = thorn;
lastChange = "2014-09-05 18:36:08 +0000";
layers = (
{
background = {
paths = (
{
closed = 1;
nodes = (
"83 720 LINE",
"83 -181 LINE",
"177 -181 LINE",
"177 65 LINE",
"212 15 OFFCURVE",
"261 -10 OFFCURVE",
"324 -10 CURVE SMOOTH",
"456 -10 OFFCURVE",
"531 89 OFFCURVE",
"531 244 CURVE SMOOTH",
"531 255 LINE SMOOTH",
"531 421 OFFCURVE",
"453 521 OFFCURVE",
"324 521 CURVE SMOOTH",
"262 521 OFFCURVE",
"213 499 OFFCURVE",
"177 455 CURVE",
"177 720 LINE"
);
},
{
closed = 1;
nodes = (
"392 446 OFFCURVE",
"437 388 OFFCURVE",
"437 256 CURVE SMOOTH",
"437 126 OFFCURVE",
"395 65 OFFCURVE",
"307 65 CURVE SMOOTH",
"219 65 OFFCURVE",
"176 124 OFFCURVE",
"176 256 CURVE SMOOTH",
"176 383 OFFCURVE",
"216 446 OFFCURVE",
"307 446 CURVE SMOOTH"
);
}
);
};
layerId = UUID0;
name = Regular;
paths = (
{
closed = 1;
nodes = (
"83 720 LINE",
"83 -181 LINE",
"177 -181 LINE",
"177 65 LINE",
"212 15 OFFCURVE",
"261 -10 OFFCURVE",
"324 -10 CURVE SMOOTH",
"456 -10 OFFCURVE",
"531 89 OFFCURVE",
"531 244 CURVE SMOOTH",
"531 255 LINE SMOOTH",
"531 421 OFFCURVE",
"453 521 OFFCURVE",
"324 521 CURVE SMOOTH",
"262 521 OFFCURVE",
"213 499 OFFCURVE",
"177 455 CURVE",
"177 720 LINE"
);
},
{
closed = 1;
nodes = (
"392 446 OFFCURVE",
"437 388 OFFCURVE",
"437 256 CURVE SMOOTH",
"437 126 OFFCURVE",
"395 65 OFFCURVE",
"307 65 CURVE SMOOTH",
"219 65 OFFCURVE",
"176 124 OFFCURVE",
"176 256 CURVE SMOOTH",
"176 383 OFFCURVE",
"216 446 OFFCURVE",
"307 446 CURVE SMOOTH"
);
}
);
width = 583;
}
);
rightKerningGroup = b;
unicode = 00FE;
},
{
glyphname = q;
lastChange = "2014-09-05 18:36:08 +0000";
layers = (
{
background = {
paths = (
{
closed = 1;
nodes = (
"129 521 OFFCURVE",
"52 421 OFFCURVE",
"52 255 CURVE SMOOTH",
"52 244 LINE SMOOTH",
"52 91 OFFCURVE",
"126 -10 OFFCURVE",
"258 -10 CURVE SMOOTH",
"322 -10 OFFCURVE",
"377 24 OFFCURVE",
"406 65 CURVE",
"406 -180 LINE",
"500 -180 LINE",
"500 511 LINE",
"464 511 LINE",
"431 430 LINE",
"392 491 OFFCURVE",
"335 521 OFFCURVE",
"259 521 CURVE SMOOTH"
);
},
{
closed = 1;
nodes = (
"362 446 OFFCURVE",
"407 388 OFFCURVE",
"407 256 CURVE SMOOTH",
"407 126 OFFCURVE",
"365 65 OFFCURVE",
"277 65 CURVE SMOOTH",
"189 65 OFFCURVE",
"146 124 OFFCURVE",
"146 256 CURVE SMOOTH",
"146 383 OFFCURVE",
"186 446 OFFCURVE",
"277 446 CURVE SMOOTH"
);
}
);
};
layerId = UUID0;
name = Regular;
paths = (
{
closed = 1;
nodes = (
"129 521 OFFCURVE",
"52 421 OFFCURVE",
"52 255 CURVE SMOOTH",
"52 244 LINE SMOOTH",
"52 91 OFFCURVE",
"126 -10 OFFCURVE",
"258 -10 CURVE SMOOTH",
"322 -10 OFFCURVE",
"377 24 OFFCURVE",
"406 65 CURVE",
"406 -180 LINE",
"500 -180 LINE",
"500 511 LINE",
"464 511 LINE",
"431 430 LINE",
"392 491 OFFCURVE",
"335 521 OFFCURVE",
"259 521 CURVE SMOOTH"
);
},
{
closed = 1;
nodes = (
"362 446 OFFCURVE",
"407 388 OFFCURVE",
"407 256 CURVE SMOOTH",
"407 126 OFFCURVE",
"365 65 OFFCURVE",
"277 65 CURVE SMOOTH",
"189 65 OFFCURVE",
"146 124 OFFCURVE",
"146 256 CURVE SMOOTH",
"146 383 OFFCURVE",
"186 446 OFFCURVE",
"277 446 CURVE SMOOTH"
);
}
);
width = 583;
}
);
leftKerningGroup = d;
unicode = 0071;
},
{
glyphname = r;
lastChange = "2014-09-05 19:00:21 +0000";
layers = (
{
anchors = (
{
name = bottom;
position = "{130, 0}";
},
{
name = top;
position = "{130, 511}";
}
);
background = {
anchors = (
{
name = top;
position = "{245, 511}";
},
{
name = bottom;
position = "{245, 0}";
}
);
paths = (
{
closed = 1;
nodes = (
"233 521 OFFCURVE",
"176 473 OFFCURVE",
"164 435 CURVE",
"150 511 LINE",
"83 511 LINE",
"83 0 LINE",
"177 0 LINE",
"177 305 LINE SMOOTH",
"177 391 OFFCURVE",
"215 446 OFFCURVE",
"279 446 CURVE SMOOTH",
"323 446 OFFCURVE",
"378 409 OFFCURVE",
"378 345 CURVE SMOOTH",
"378 323 LINE",
"461 323 LINE",
"464 361 LINE",
"464 449 OFFCURVE",
"412 521 OFFCURVE",
"313 521 CURVE SMOOTH"
);
}
);
};
layerId = UUID0;
name = Regular;
paths = (
{
closed = 1;
nodes = (
"233 521 OFFCURVE",
"176 473 OFFCURVE",
"164 435 CURVE",
"150 511 LINE",
"83 511 LINE",
"83 0 LINE",
"177 0 LINE",
"177 305 LINE SMOOTH",
"177 391 OFFCURVE",
"215 446 OFFCURVE",
"279 446 CURVE SMOOTH",
"323 446 OFFCURVE",
"378 409 OFFCURVE",
"378 345 CURVE SMOOTH",
"378 323 LINE",
"461 323 LINE",
"464 361 LINE",
"464 449 OFFCURVE",
"412 521 OFFCURVE",
"313 521 CURVE SMOOTH"
);
}
);
width = 490;
}
);
leftKerningGroup = m;
unicode = 0072;
},
{
glyphname = s;
lastChange = "2014-09-05 18:36:08 +0000";
layers = (
{
anchors = (
{
name = bottom;
position = "{267, 0}";
},
{
name = top;
position = "{267, 511}";
}
);
background = {
anchors = (
{
name = top;
position = "{267, 511}";
},
{
name = bottom;
position = "{267, 0}";
}
);
paths = (
{
closed = 1;
nodes = (
"269 521 LINE SMOOTH",
"140 521 OFFCURVE",
"60 464 OFFCURVE",
"60 369 CURVE SMOOTH",
"60 165 OFFCURVE",
"391 268 OFFCURVE",
"391 136 CURVE SMOOTH",
"391 89 OFFCURVE",
"332 65 OFFCURVE",
"282 65 CURVE SMOOTH",
"186 65 OFFCURVE",
"139 93 OFFCURVE",
"139 150 CURVE SMOOTH",
"139 160 LINE",
"46 160 LINE",
"46 138 LINE SMOOTH",
"45 54 OFFCURVE",
"124 -10 OFFCURVE",
"253 -10 CURVE SMOOTH",
"268 -10 LINE SMOOTH",
"406 -10 OFFCURVE",
"485 43 OFFCURVE",
"485 154 CURVE SMOOTH",
"485 347 OFFCURVE",
"154 271 OFFCURVE",
"154 379 CURVE SMOOTH",
"154 423 OFFCURVE",
"191 446 OFFCURVE",
"266 446 CURVE SMOOTH",
"341 446 OFFCURVE",
"379 422 OFFCURVE",
"379 373 CURVE SMOOTH",
"379 364 LINE",
"472 364 LINE",
"473 382 LINE",
"473 461 OFFCURVE",
"394 521 OFFCURVE",
"278 521 CURVE SMOOTH"
);
}
);
};
layerId = UUID0;
name = Regular;
paths = (
{
closed = 1;
nodes = (
"269 521 LINE SMOOTH",
"140 521 OFFCURVE",
"60 464 OFFCURVE",
"60 369 CURVE SMOOTH",
"60 165 OFFCURVE",
"391 268 OFFCURVE",
"391 136 CURVE SMOOTH",
"391 89 OFFCURVE",
"332 65 OFFCURVE",
"282 65 CURVE SMOOTH",
"186 65 OFFCURVE",
"139 93 OFFCURVE",
"139 150 CURVE SMOOTH",
"139 160 LINE",
"46 160 LINE",
"46 138 LINE SMOOTH",
"45 54 OFFCURVE",
"124 -10 OFFCURVE",
"253 -10 CURVE SMOOTH",
"268 -10 LINE SMOOTH",
"406 -10 OFFCURVE",
"485 43 OFFCURVE",
"485 154 CURVE SMOOTH",
"485 347 OFFCURVE",
"154 271 OFFCURVE",
"154 379 CURVE SMOOTH",
"154 423 OFFCURVE",
"191 446 OFFCURVE",
"266 446 CURVE SMOOTH",
"341 446 OFFCURVE",
"379 422 OFFCURVE",
"379 373 CURVE SMOOTH",
"379 364 LINE",
"472 364 LINE",
"473 382 LINE",
"473 461 OFFCURVE",
"394 521 OFFCURVE",
"278 521 CURVE SMOOTH"
);
}
);
width = 534;
}
);
leftKerningGroup = s;
rightKerningGroup = s;
unicode = 0073;
},
{
glyphname = scaron;
lastChange = "2014-09-05 18:36:08 +0000";
layers = (
{
background = {
paths = (
{
closed = 1;
nodes = (
"269 521 LINE SMOOTH",
"140 521 OFFCURVE",
"60 464 OFFCURVE",
"60 369 CURVE SMOOTH",
"60 165 OFFCURVE",
"391 268 OFFCURVE",
"391 136 CURVE SMOOTH",
"391 89 OFFCURVE",
"332 65 OFFCURVE",
"282 65 CURVE SMOOTH",
"186 65 OFFCURVE",
"139 93 OFFCURVE",
"139 150 CURVE SMOOTH",
"139 160 LINE",
"46 160 LINE",
"45 138 LINE",
"45 54 OFFCURVE",
"124 -10 OFFCURVE",
"253 -10 CURVE SMOOTH",
"268 -10 LINE SMOOTH",
"406 -10 OFFCURVE",
"485 43 OFFCURVE",
"485 154 CURVE SMOOTH",
"485 347 OFFCURVE",
"154 271 OFFCURVE",
"154 379 CURVE SMOOTH",
"154 423 OFFCURVE",
"191 446 OFFCURVE",
"266 446 CURVE SMOOTH",
"341 446 OFFCURVE",
"379 422 OFFCURVE",
"379 373 CURVE SMOOTH",
"379 364 LINE",
"472 364 LINE",
"473 382 LINE",
"473 461 OFFCURVE",
"394 521 OFFCURVE",
"278 521 CURVE SMOOTH"
);
},
{
closed = 1;
nodes = (
"360 720 LINE",
"266 631 LINE",
"171 720 LINE",
"91 720 LINE",
"227 575 LINE",
"305 575 LINE",
"440 720 LINE"
);
}
);
};
layerId = UUID0;
name = Regular;
paths = (
{
closed = 1;
nodes = (
"269 521 LINE SMOOTH",
"140 521 OFFCURVE",
"60 464 OFFCURVE",
"60 369 CURVE SMOOTH",
"60 165 OFFCURVE",
"391 268 OFFCURVE",
"391 136 CURVE SMOOTH",
"391 89 OFFCURVE",
"332 65 OFFCURVE",
"282 65 CURVE SMOOTH",
"186 65 OFFCURVE",
"139 93 OFFCURVE",
"139 150 CURVE SMOOTH",
"139 160 LINE",
"46 160 LINE",
"45 138 LINE",
"45 54 OFFCURVE",
"124 -10 OFFCURVE",
"253 -10 CURVE SMOOTH",
"268 -10 LINE SMOOTH",
"406 -10 OFFCURVE",
"485 43 OFFCURVE",
"485 154 CURVE SMOOTH",
"485 347 OFFCURVE",
"154 271 OFFCURVE",
"154 379 CURVE SMOOTH",
"154 423 OFFCURVE",
"191 446 OFFCURVE",
"266 446 CURVE SMOOTH",
"341 446 OFFCURVE",
"379 422 OFFCURVE",
"379 373 CURVE SMOOTH",
"379 364 LINE",
"472 364 LINE",
"473 382 LINE",
"473 461 OFFCURVE",
"394 521 OFFCURVE",
"278 521 CURVE SMOOTH"
);
},
{
closed = 1;
nodes = (
"360 720 LINE",
"266 631 LINE",
"171 720 LINE",
"91 720 LINE",
"227 575 LINE",
"305 575 LINE",
"440 720 LINE"
);
}
);
width = 534;
}
);
leftKerningGroup = s;
rightKerningGroup = s;
unicode = 0161;
},
{
glyphname = germandbls;
lastChange = "2014-09-05 18:36:08 +0000";
layers = (
{
background = {
paths = (
{
closed = 1;
nodes = (
"204 728 OFFCURVE",
"106 644 OFFCURVE",
"104 511 CURVE",
"46 511 LINE",
"46 436 LINE",
"104 436 LINE",
"104 -66 LINE",
"198 -66 LINE",
"198 513 LINE SMOOTH",
"198 597 OFFCURVE",
"251 653 OFFCURVE",
"327 653 CURVE SMOOTH",
"403 653 OFFCURVE",
"448 607 OFFCURVE",
"448 540 CURVE SMOOTH",
"448 472 OFFCURVE",
"393 420 OFFCURVE",
"324 420 CURVE SMOOTH",
"259 420 LINE",
"259 346 LINE",
"332 346 LINE SMOOTH",
"408 346 OFFCURVE",
"471 285 OFFCURVE",
"471 214 CURVE SMOOTH",
"471 142 OFFCURVE",
"414 75 OFFCURVE",
"332 75 CURVE SMOOTH",
"259 75 LINE",
"259 0 LINE",
"342 0 LINE SMOOTH",
"465 0 OFFCURVE",
"565 89 OFFCURVE",
"565 200 CURVE SMOOTH",
"565 291 OFFCURVE",
"515 360 OFFCURVE",
"444 387 CURVE",
"442 391 LINE",
"501 414 OFFCURVE",
"542 476 OFFCURVE",
"542 543 CURVE SMOOTH",
"542 650 OFFCURVE",
"455 728 OFFCURVE",
"331 728 CURVE SMOOTH"
);
}
);
};
layerId = UUID0;
name = Regular;
paths = (
{
closed = 1;
nodes = (
"204 728 OFFCURVE",
"106 644 OFFCURVE",
"104 511 CURVE",
"46 511 LINE",
"46 436 LINE",
"104 436 LINE",
"104 -66 LINE",
"198 -66 LINE",
"198 513 LINE SMOOTH",
"198 597 OFFCURVE",
"251 653 OFFCURVE",
"327 653 CURVE SMOOTH",
"403 653 OFFCURVE",
"448 607 OFFCURVE",
"448 540 CURVE SMOOTH",
"448 472 OFFCURVE",
"393 420 OFFCURVE",
"324 420 CURVE SMOOTH",
"259 420 LINE",
"259 346 LINE",
"332 346 LINE SMOOTH",
"408 346 OFFCURVE",
"471 285 OFFCURVE",
"471 214 CURVE SMOOTH",
"471 142 OFFCURVE",
"414 75 OFFCURVE",
"332 75 CURVE SMOOTH",
"259 75 LINE",
"259 0 LINE",
"342 0 LINE SMOOTH",
"465 0 OFFCURVE",
"565 89 OFFCURVE",
"565 200 CURVE SMOOTH",
"565 291 OFFCURVE",
"515 360 OFFCURVE",
"444 387 CURVE",
"442 391 LINE",
"501 414 OFFCURVE",
"542 476 OFFCURVE",
"542 543 CURVE SMOOTH",
"542 650 OFFCURVE",
"455 728 OFFCURVE",
"331 728 CURVE SMOOTH"
);
}
);
width = 614;
}
);
leftKerningGroup = f;
unicode = 00DF;
},
{
glyphname = t;
lastChange = "2014-09-09 03:40:07 +0000";
layers = (
{
anchors = (
{
name = bottom;
position = "{173, 0}";
},
{
name = center;
position = "{146, 256}";
},
{
name = topright;
position = "{376, 686}";
}
);
background = {
anchors = (
{
name = center;
position = "{173, 256}";
},
{
name = bottom;
position = "{173, 0}";
},
{
name = topright;
position = "{326, 511}";
}
);
paths = (
{
closed = 1;
nodes = (
"134 674 LINE",
"102 511 LINE",
"43 511 LINE",
"43 436 LINE",
"99 436 LINE",
"99 136 LINE SMOOTH",
"99 32 OFFCURVE",
"142 -10 OFFCURVE",
"219 -10 CURVE SMOOTH",
"257 -10 OFFCURVE",
"288 -4 OFFCURVE",
"312 8 CURVE",
"312 78 LINE",
"288 68 OFFCURVE",
"267 63 OFFCURVE",
"250 63 CURVE SMOOTH",
"212 63 OFFCURVE",
"193 82 OFFCURVE",
"193 131 CURVE SMOOTH",
"193 436 LINE",
"312 436 LINE",
"312 511 LINE",
"193 511 LINE",
"193 674 LINE"
);
}
);
};
layerId = UUID0;
name = Regular;
paths = (
{
closed = 1;
nodes = (
"134 674 LINE",
"102 511 LINE",
"43 511 LINE",
"43 436 LINE",
"99 436 LINE",
"99 136 LINE SMOOTH",
"99 32 OFFCURVE",
"142 -10 OFFCURVE",
"219 -10 CURVE SMOOTH",
"257 -10 OFFCURVE",
"288 -4 OFFCURVE",
"312 8 CURVE",
"312 78 LINE",
"288 68 OFFCURVE",
"267 63 OFFCURVE",
"250 63 CURVE SMOOTH",
"212 63 OFFCURVE",
"193 82 OFFCURVE",
"193 131 CURVE SMOOTH",
"193 436 LINE",
"312 436 LINE",
"312 511 LINE",
"193 511 LINE",
"193 674 LINE"
);
}
);
width = 346;
}
);
unicode = 0074;
},
{
glyphname = u;
lastChange = "2014-09-05 18:36:08 +0000";
layers = (
{
anchors = (
{
name = ogonek;
position = "{556, 10}";
},
{
name = top;
position = "{309, 511}";
}
);
background = {
anchors = (
{
name = ogonek;
position = "{556, 10}";
},
{
name = top;
position = "{309, 511}";
}
);
paths = (
{
closed = 1;
nodes = (
"416 511 LINE",
"416 207 LINE SMOOTH",
"416 127 OFFCURVE",
"351 65 OFFCURVE",
"280 65 CURVE SMOOTH",
"216 65 OFFCURVE",
"172 97 OFFCURVE",
"172 184 CURVE SMOOTH",
"172 511 LINE",
"78 511 LINE",
"78 167 LINE SMOOTH",
"78 48 OFFCURVE",
"156 -10 OFFCURVE",
"254 -10 CURVE SMOOTH",
"329 -10 OFFCURVE",
"386 23 OFFCURVE",
"421 74 CURVE",
"423 27 OFFCURVE",
"442 -10 OFFCURVE",
"520 -10 CURVE SMOOTH",
"542 -10 OFFCURVE",
"563 -3 OFFCURVE",
"583 10 CURVE",
"583 79 LINE",
"568 70 OFFCURVE",
"553 65 OFFCURVE",
"538 65 CURVE SMOOTH",
"523 65 OFFCURVE",
"510 75 OFFCURVE",
"510 100 CURVE SMOOTH",
"510 511 LINE"
);
}
);
};
layerId = UUID0;
name = Regular;
paths = (
{
closed = 1;
nodes = (
"416 511 LINE",
"416 207 LINE SMOOTH",
"416 127 OFFCURVE",
"351 65 OFFCURVE",
"280 65 CURVE SMOOTH",
"216 65 OFFCURVE",
"172 97 OFFCURVE",
"172 184 CURVE SMOOTH",
"172 511 LINE",
"78 511 LINE",
"78 167 LINE SMOOTH",
"78 48 OFFCURVE",
"156 -10 OFFCURVE",
"254 -10 CURVE SMOOTH",
"329 -10 OFFCURVE",
"386 23 OFFCURVE",
"421 74 CURVE",
"423 27 OFFCURVE",
"442 -10 OFFCURVE",
"520 -10 CURVE SMOOTH",
"542 -10 OFFCURVE",
"563 -3 OFFCURVE",
"583 10 CURVE",
"583 79 LINE",
"568 70 OFFCURVE",
"553 65 OFFCURVE",
"538 65 CURVE SMOOTH",
"523 65 OFFCURVE",
"510 75 OFFCURVE",
"510 100 CURVE SMOOTH",
"510 511 LINE"
);
}
);
width = 618;
}
);
leftKerningGroup = u;
rightKerningGroup = u;
unicode = 0075;
},
{
glyphname = uacute;
lastChange = "2014-09-05 18:36:08 +0000";
layers = (
{
background = {
paths = (
{
closed = 1;
nodes = (
"416 511 LINE",
"416 207 LINE SMOOTH",
"416 127 OFFCURVE",
"351 65 OFFCURVE",
"280 65 CURVE SMOOTH",
"216 65 OFFCURVE",
"172 97 OFFCURVE",
"172 184 CURVE SMOOTH",
"172 511 LINE",
"78 511 LINE",
"78 167 LINE SMOOTH",
"78 48 OFFCURVE",
"156 -10 OFFCURVE",
"254 -10 CURVE SMOOTH",
"329 -10 OFFCURVE",
"386 23 OFFCURVE",
"421 74 CURVE",
"423 27 OFFCURVE",
"442 -10 OFFCURVE",
"520 -10 CURVE SMOOTH",
"542 -10 OFFCURVE",
"563 -3 OFFCURVE",
"583 10 CURVE",
"583 79 LINE",
"568 70 OFFCURVE",
"553 65 OFFCURVE",
"538 65 CURVE SMOOTH",
"523 65 OFFCURVE",
"510 75 OFFCURVE",
"510 100 CURVE SMOOTH",
"510 511 LINE"
);
},
{
closed = 1;
nodes = (
"353 720 LINE",
"259 575 LINE",
"328 575 LINE",
"444 717 LINE",
"443 720 LINE"
);
}
);
};
layerId = UUID0;
name = Regular;
paths = (
{
closed = 1;
nodes = (
"416 511 LINE",
"416 207 LINE SMOOTH",
"416 127 OFFCURVE",
"351 65 OFFCURVE",
"280 65 CURVE SMOOTH",
"216 65 OFFCURVE",
"172 97 OFFCURVE",
"172 184 CURVE SMOOTH",
"172 511 LINE",
"78 511 LINE",
"78 167 LINE SMOOTH",
"78 48 OFFCURVE",
"156 -10 OFFCURVE",
"254 -10 CURVE SMOOTH",
"329 -10 OFFCURVE",
"386 23 OFFCURVE",
"421 74 CURVE",
"423 27 OFFCURVE",
"442 -10 OFFCURVE",
"520 -10 CURVE SMOOTH",
"542 -10 OFFCURVE",
"563 -3 OFFCURVE",
"583 10 CURVE",
"583 79 LINE",
"568 70 OFFCURVE",
"553 65 OFFCURVE",
"538 65 CURVE SMOOTH",
"523 65 OFFCURVE",
"510 75 OFFCURVE",
"510 100 CURVE SMOOTH",
"510 511 LINE"
);
},
{
closed = 1;
nodes = (
"353 720 LINE",
"259 575 LINE",
"328 575 LINE",
"444 717 LINE",
"443 720 LINE"
);
}
);
width = 618;
}
);
leftKerningGroup = u;
rightKerningGroup = u;
unicode = 00FA;
},
{
glyphname = ucircumflex;
lastChange = "2014-09-05 18:36:08 +0000";
layers = (
{
background = {
paths = (
{
closed = 1;
nodes = (
"416 511 LINE",
"416 207 LINE SMOOTH",
"416 127 OFFCURVE",
"351 65 OFFCURVE",
"280 65 CURVE SMOOTH",
"216 65 OFFCURVE",
"172 97 OFFCURVE",
"172 184 CURVE SMOOTH",
"172 511 LINE",
"78 511 LINE",
"78 167 LINE SMOOTH",
"78 48 OFFCURVE",
"156 -10 OFFCURVE",
"254 -10 CURVE SMOOTH",
"329 -10 OFFCURVE",
"386 23 OFFCURVE",
"421 74 CURVE",
"423 27 OFFCURVE",
"442 -10 OFFCURVE",
"520 -10 CURVE SMOOTH",
"542 -10 OFFCURVE",
"563 -3 OFFCURVE",
"583 10 CURVE",
"583 79 LINE",
"568 70 OFFCURVE",
"553 65 OFFCURVE",
"538 65 CURVE SMOOTH",
"523 65 OFFCURVE",
"510 75 OFFCURVE",
"510 100 CURVE SMOOTH",
"510 511 LINE"
);
},
{
closed = 1;
nodes = (
"253 720 LINE",
"117 575 LINE",
"197 575 LINE",
"292 664 LINE",
"386 575 LINE",
"466 575 LINE",
"331 720 LINE"
);
}
);
};
layerId = UUID0;
name = Regular;
paths = (
{
closed = 1;
nodes = (
"416 511 LINE",
"416 207 LINE SMOOTH",
"416 127 OFFCURVE",
"351 65 OFFCURVE",
"280 65 CURVE SMOOTH",
"216 65 OFFCURVE",
"172 97 OFFCURVE",
"172 184 CURVE SMOOTH",
"172 511 LINE",
"78 511 LINE",
"78 167 LINE SMOOTH",
"78 48 OFFCURVE",
"156 -10 OFFCURVE",
"254 -10 CURVE SMOOTH",
"329 -10 OFFCURVE",
"386 23 OFFCURVE",
"421 74 CURVE",
"423 27 OFFCURVE",
"442 -10 OFFCURVE",
"520 -10 CURVE SMOOTH",
"542 -10 OFFCURVE",
"563 -3 OFFCURVE",
"583 10 CURVE",
"583 79 LINE",
"568 70 OFFCURVE",
"553 65 OFFCURVE",
"538 65 CURVE SMOOTH",
"523 65 OFFCURVE",
"510 75 OFFCURVE",
"510 100 CURVE SMOOTH",
"510 511 LINE"
);
},
{
closed = 1;
nodes = (
"253 720 LINE",
"117 575 LINE",
"197 575 LINE",
"292 664 LINE",
"386 575 LINE",
"466 575 LINE",
"331 720 LINE"
);
}
);
width = 618;
}
);
leftKerningGroup = u;
rightKerningGroup = u;
unicode = 00FB;
},
{
glyphname = udieresis;
lastChange = "2014-09-05 18:36:08 +0000";
layers = (
{
background = {
paths = (
{
closed = 1;
nodes = (
"416 511 LINE",
"416 207 LINE SMOOTH",
"416 127 OFFCURVE",
"351 65 OFFCURVE",
"280 65 CURVE SMOOTH",
"216 65 OFFCURVE",
"172 97 OFFCURVE",
"172 184 CURVE SMOOTH",
"172 511 LINE",
"78 511 LINE",
"78 167 LINE SMOOTH",
"78 48 OFFCURVE",
"156 -10 OFFCURVE",
"254 -10 CURVE SMOOTH",
"329 -10 OFFCURVE",
"386 23 OFFCURVE",
"421 74 CURVE",
"423 27 OFFCURVE",
"442 -10 OFFCURVE",
"520 -10 CURVE SMOOTH",
"542 -10 OFFCURVE",
"563 -3 OFFCURVE",
"583 10 CURVE",
"583 79 LINE",
"568 70 OFFCURVE",
"553 65 OFFCURVE",
"538 65 CURVE SMOOTH",
"523 65 OFFCURVE",
"510 75 OFFCURVE",
"510 100 CURVE SMOOTH",
"510 511 LINE"
);
},
{
closed = 1;
nodes = (
"155 720 LINE",
"155 622 LINE",
"245 622 LINE",
"245 720 LINE"
);
},
{
closed = 1;
nodes = (
"343 720 LINE",
"343 622 LINE",
"434 622 LINE",
"434 720 LINE"
);
}
);
};
layerId = UUID0;
name = Regular;
paths = (
{
closed = 1;
nodes = (
"416 511 LINE",
"416 207 LINE SMOOTH",
"416 127 OFFCURVE",
"351 65 OFFCURVE",
"280 65 CURVE SMOOTH",
"216 65 OFFCURVE",
"172 97 OFFCURVE",
"172 184 CURVE SMOOTH",
"172 511 LINE",
"78 511 LINE",
"78 167 LINE SMOOTH",
"78 48 OFFCURVE",
"156 -10 OFFCURVE",
"254 -10 CURVE SMOOTH",
"329 -10 OFFCURVE",
"386 23 OFFCURVE",
"421 74 CURVE",
"423 27 OFFCURVE",
"442 -10 OFFCURVE",
"520 -10 CURVE SMOOTH",
"542 -10 OFFCURVE",
"563 -3 OFFCURVE",
"583 10 CURVE",
"583 79 LINE",
"568 70 OFFCURVE",
"553 65 OFFCURVE",
"538 65 CURVE SMOOTH",
"523 65 OFFCURVE",
"510 75 OFFCURVE",
"510 100 CURVE SMOOTH",
"510 511 LINE"
);
},
{
closed = 1;
nodes = (
"155 720 LINE",
"155 622 LINE",
"245 622 LINE",
"245 720 LINE"
);
},
{
closed = 1;
nodes = (
"343 720 LINE",
"343 622 LINE",
"434 622 LINE",
"434 720 LINE"
);
}
);
width = 618;
}
);
leftKerningGroup = u;
rightKerningGroup = u;
unicode = 00FC;
},
{
glyphname = ugrave;
lastChange = "2014-09-05 18:36:08 +0000";
layers = (
{
background = {
paths = (
{
closed = 1;
nodes = (
"416 511 LINE",
"416 207 LINE SMOOTH",
"416 127 OFFCURVE",
"351 65 OFFCURVE",
"280 65 CURVE SMOOTH",
"216 65 OFFCURVE",
"172 97 OFFCURVE",
"172 184 CURVE SMOOTH",
"172 511 LINE",
"78 511 LINE",
"78 167 LINE SMOOTH",
"78 48 OFFCURVE",
"156 -10 OFFCURVE",
"254 -10 CURVE SMOOTH",
"329 -10 OFFCURVE",
"386 23 OFFCURVE",
"421 74 CURVE",
"423 27 OFFCURVE",
"442 -10 OFFCURVE",
"520 -10 CURVE SMOOTH",
"542 -10 OFFCURVE",
"563 -3 OFFCURVE",
"583 10 CURVE",
"583 79 LINE",
"568 70 OFFCURVE",
"553 65 OFFCURVE",
"538 65 CURVE SMOOTH",
"523 65 OFFCURVE",
"510 75 OFFCURVE",
"510 100 CURVE SMOOTH",
"510 511 LINE"
);
},
{
closed = 1;
nodes = (
"154 720 LINE",
"153 717 LINE",
"268 575 LINE",
"338 575 LINE",
"243 720 LINE"
);
}
);
};
layerId = UUID0;
name = Regular;
paths = (
{
closed = 1;
nodes = (
"416 511 LINE",
"416 207 LINE SMOOTH",
"416 127 OFFCURVE",
"351 65 OFFCURVE",
"280 65 CURVE SMOOTH",
"216 65 OFFCURVE",
"172 97 OFFCURVE",
"172 184 CURVE SMOOTH",
"172 511 LINE",
"78 511 LINE",
"78 167 LINE SMOOTH",
"78 48 OFFCURVE",
"156 -10 OFFCURVE",
"254 -10 CURVE SMOOTH",
"329 -10 OFFCURVE",
"386 23 OFFCURVE",
"421 74 CURVE",
"423 27 OFFCURVE",
"442 -10 OFFCURVE",
"520 -10 CURVE SMOOTH",
"542 -10 OFFCURVE",
"563 -3 OFFCURVE",
"583 10 CURVE",
"583 79 LINE",
"568 70 OFFCURVE",
"553 65 OFFCURVE",
"538 65 CURVE SMOOTH",
"523 65 OFFCURVE",
"510 75 OFFCURVE",
"510 100 CURVE SMOOTH",
"510 511 LINE"
);
},
{
closed = 1;
nodes = (
"154 720 LINE",
"153 717 LINE",
"268 575 LINE",
"338 575 LINE",
"243 720 LINE"
);
}
);
width = 618;
}
);
leftKerningGroup = u;
rightKerningGroup = u;
unicode = 00F9;
},
{
glyphname = v;
lastChange = "2014-09-05 18:36:08 +0000";
layers = (
{
background = {
paths = (
{
closed = 1;
nodes = (
"408 511 LINE",
"262 120 LINE",
"258 120 LINE",
"112 511 LINE",
"12 511 LINE",
"206 0 LINE",
"306 0 LINE",
"500 511 LINE"
);
}
);
};
layerId = UUID0;
name = Regular;
paths = (
{
closed = 1;
nodes = (
"408 511 LINE",
"262 120 LINE",
"258 120 LINE",
"112 511 LINE",
"12 511 LINE",
"206 0 LINE",
"306 0 LINE",
"500 511 LINE"
);
}
);
width = 512;
}
);
unicode = 0076;
},
{
glyphname = w;
lastChange = "2014-09-05 18:36:08 +0000";
layers = (
{
anchors = (
{
name = top;
position = "{406, 511}";
}
);
background = {
anchors = (
{
name = top;
position = "{406, 511}";
}
);
paths = (
{
closed = 1;
nodes = (
"697 511 LINE",
"576 137 LINE",
"572 137 LINE",
"453 511 LINE",
"361 511 LINE",
"240 137 LINE",
"236 137 LINE",
"117 511 LINE",
"20 511 LINE",
"188 0 LINE",
"286 0 LINE",
"402 357 LINE",
"406 357 LINE",
"524 0 LINE",
"622 0 LINE",
"789 511 LINE"
);
}
);
};
layerId = UUID0;
name = Regular;
paths = (
{
closed = 1;
nodes = (
"697 511 LINE",
"576 137 LINE",
"572 137 LINE",
"453 511 LINE",
"361 511 LINE",
"240 137 LINE",
"236 137 LINE",
"117 511 LINE",
"20 511 LINE",
"188 0 LINE",
"286 0 LINE",
"402 357 LINE",
"406 357 LINE",
"524 0 LINE",
"622 0 LINE",
"789 511 LINE"
);
}
);
width = 811;
}
);
unicode = 0077;
},
{
glyphname = x;
lastChange = "2014-09-05 18:36:08 +0000";
layers = (
{
background = {
paths = (
{
closed = 1;
nodes = (
"389 511 LINE",
"263 337 LINE",
"140 511 LINE",
"28 511 LINE",
"206 259 LINE",
"18 0 LINE",
"121 0 LINE",
"256 187 LINE",
"389 0 LINE",
"501 0 LINE",
"313 265 LINE",
"492 511 LINE"
);
}
);
};
layerId = UUID0;
name = Regular;
paths = (
{
closed = 1;
nodes = (
"389 511 LINE",
"263 337 LINE",
"140 511 LINE",
"28 511 LINE",
"206 259 LINE",
"18 0 LINE",
"121 0 LINE",
"256 187 LINE",
"389 0 LINE",
"501 0 LINE",
"313 265 LINE",
"492 511 LINE"
);
}
);
width = 519;
}
);
unicode = 0078;
},
{
glyphname = y;
lastChange = "2014-09-05 18:36:08 +0000";
layers = (
{
anchors = (
{
name = top;
position = "{256, 511}";
}
);
background = {
anchors = (
{
name = top;
position = "{256, 511}";
}
);
paths = (
{
closed = 1;
nodes = (
"408 511 LINE",
"263 134 LINE",
"259 134 LINE",
"112 511 LINE",
"12 511 LINE",
"211 5 LINE",
"187 -72 OFFCURVE",
"153 -109 OFFCURVE",
"97 -109 CURVE SMOOTH",
"84 -109 OFFCURVE",
"68 -104 OFFCURVE",
"47 -95 CURVE",
"47 -172 LINE",
"68 -181 OFFCURVE",
"91 -186 OFFCURVE",
"117 -186 CURVE SMOOTH",
"193 -186 OFFCURVE",
"240 -151 OFFCURVE",
"309 20 CURVE",
"500 511 LINE"
);
}
);
};
layerId = UUID0;
name = Regular;
paths = (
{
closed = 1;
nodes = (
"408 511 LINE",
"263 134 LINE",
"259 134 LINE",
"112 511 LINE",
"12 511 LINE",
"211 5 LINE",
"187 -72 OFFCURVE",
"153 -109 OFFCURVE",
"97 -109 CURVE SMOOTH",
"84 -109 OFFCURVE",
"68 -104 OFFCURVE",
"47 -95 CURVE",
"47 -172 LINE",
"68 -181 OFFCURVE",
"91 -186 OFFCURVE",
"117 -186 CURVE SMOOTH",
"193 -186 OFFCURVE",
"240 -151 OFFCURVE",
"309 20 CURVE",
"500 511 LINE"
);
}
);
width = 512;
}
);
leftKerningGroup = y;
rightKerningGroup = y;
unicode = 0079;
},
{
glyphname = yacute;
lastChange = "2014-09-05 18:36:08 +0000";
layers = (
{
background = {
paths = (
{
closed = 1;
nodes = (
"408 511 LINE",
"263 134 LINE",
"259 134 LINE",
"112 511 LINE",
"12 511 LINE",
"211 5 LINE",
"187 -72 OFFCURVE",
"153 -109 OFFCURVE",
"97 -109 CURVE SMOOTH",
"84 -109 OFFCURVE",
"68 -104 OFFCURVE",
"47 -95 CURVE",
"47 -172 LINE",
"68 -181 OFFCURVE",
"91 -186 OFFCURVE",
"117 -186 CURVE SMOOTH",
"193 -186 OFFCURVE",
"240 -151 OFFCURVE",
"309 20 CURVE",
"500 511 LINE"
);
},
{
closed = 1;
nodes = (
"316 720 LINE",
"222 575 LINE",
"291 575 LINE",
"407 717 LINE",
"406 720 LINE"
);
}
);
};
layerId = UUID0;
name = Regular;
paths = (
{
closed = 1;
nodes = (
"408 511 LINE",
"263 134 LINE",
"259 134 LINE",
"112 511 LINE",
"12 511 LINE",
"211 5 LINE",
"187 -72 OFFCURVE",
"153 -109 OFFCURVE",
"97 -109 CURVE SMOOTH",
"84 -109 OFFCURVE",
"68 -104 OFFCURVE",
"47 -95 CURVE",
"47 -172 LINE",
"68 -181 OFFCURVE",
"91 -186 OFFCURVE",
"117 -186 CURVE SMOOTH",
"193 -186 OFFCURVE",
"240 -151 OFFCURVE",
"309 20 CURVE",
"500 511 LINE"
);
},
{
closed = 1;
nodes = (
"316 720 LINE",
"222 575 LINE",
"291 575 LINE",
"407 717 LINE",
"406 720 LINE"
);
}
);
width = 512;
}
);
leftKerningGroup = y;
rightKerningGroup = y;
unicode = 00FD;
},
{
glyphname = ydieresis;
lastChange = "2014-09-05 18:36:08 +0000";
layers = (
{
background = {
paths = (
{
closed = 1;
nodes = (
"408 511 LINE",
"263 134 LINE",
"259 134 LINE",
"112 511 LINE",
"12 511 LINE",
"211 5 LINE",
"187 -72 OFFCURVE",
"153 -109 OFFCURVE",
"97 -109 CURVE SMOOTH",
"84 -109 OFFCURVE",
"68 -104 OFFCURVE",
"47 -95 CURVE",
"47 -172 LINE",
"68 -181 OFFCURVE",
"91 -186 OFFCURVE",
"117 -186 CURVE SMOOTH",
"193 -186 OFFCURVE",
"240 -151 OFFCURVE",
"309 20 CURVE",
"500 511 LINE"
);
},
{
closed = 1;
nodes = (
"120 720 LINE",
"120 622 LINE",
"210 622 LINE",
"210 720 LINE"
);
},
{
closed = 1;
nodes = (
"308 720 LINE",
"308 622 LINE",
"399 622 LINE",
"399 720 LINE"
);
}
);
};
layerId = UUID0;
name = Regular;
paths = (
{
closed = 1;
nodes = (
"408 511 LINE",
"263 134 LINE",
"259 134 LINE",
"112 511 LINE",
"12 511 LINE",
"211 5 LINE",
"187 -72 OFFCURVE",
"153 -109 OFFCURVE",
"97 -109 CURVE SMOOTH",
"84 -109 OFFCURVE",
"68 -104 OFFCURVE",
"47 -95 CURVE",
"47 -172 LINE",
"68 -181 OFFCURVE",
"91 -186 OFFCURVE",
"117 -186 CURVE SMOOTH",
"193 -186 OFFCURVE",
"240 -151 OFFCURVE",
"309 20 CURVE",
"500 511 LINE"
);
},
{
closed = 1;
nodes = (
"120 720 LINE",
"120 622 LINE",
"210 622 LINE",
"210 720 LINE"
);
},
{
closed = 1;
nodes = (
"308 720 LINE",
"308 622 LINE",
"399 622 LINE",
"399 720 LINE"
);
}
);
width = 512;
}
);
leftKerningGroup = y;
rightKerningGroup = y;
unicode = 00FF;
},
{
glyphname = z;
lastChange = "2014-09-05 18:36:08 +0000";
layers = (
{
anchors = (
{
name = top;
position = "{232, 511}";
}
);
background = {
anchors = (
{
name = top;
position = "{232, 511}";
}
);
paths = (
{
closed = 1;
nodes = (
"51 511 LINE",
"51 436 LINE",
"285 436 LINE",
"36 38 LINE",
"36 0 LINE",
"423 0 LINE",
"423 75 LINE",
"165 75 LINE",
"415 474 LINE",
"415 511 LINE"
);
}
);
};
layerId = UUID0;
name = Regular;
paths = (
{
closed = 1;
nodes = (
"51 511 LINE",
"51 436 LINE",
"285 436 LINE",
"36 38 LINE",
"36 0 LINE",
"423 0 LINE",
"423 75 LINE",
"165 75 LINE",
"415 474 LINE",
"415 511 LINE"
);
}
);
width = 463;
}
);
leftKerningGroup = z;
rightKerningGroup = z;
unicode = 007A;
},
{
glyphname = zcaron;
lastChange = "2014-09-05 18:36:08 +0000";
layers = (
{
background = {
paths = (
{
closed = 1;
nodes = (
"51 511 LINE",
"51 436 LINE",
"285 436 LINE",
"36 38 LINE",
"36 0 LINE",
"423 0 LINE",
"423 75 LINE",
"165 75 LINE",
"415 474 LINE",
"415 511 LINE"
);
},
{
closed = 1;
nodes = (
"326 720 LINE",
"232 631 LINE",
"137 720 LINE",
"57 720 LINE",
"193 575 LINE",
"271 575 LINE",
"406 720 LINE"
);
}
);
};
layerId = UUID0;
name = Regular;
paths = (
{
closed = 1;
nodes = (
"51 511 LINE",
"51 436 LINE",
"285 436 LINE",
"36 38 LINE",
"36 0 LINE",
"423 0 LINE",
"423 75 LINE",
"165 75 LINE",
"415 474 LINE",
"415 511 LINE"
);
},
{
closed = 1;
nodes = (
"326 720 LINE",
"232 631 LINE",
"137 720 LINE",
"57 720 LINE",
"193 575 LINE",
"271 575 LINE",
"406 720 LINE"
);
}
);
width = 463;
}
);
leftKerningGroup = z;
rightKerningGroup = z;
unicode = 017E;
},
{
glyphname = fi;
lastChange = "2014-09-05 18:36:08 +0000";
layers = (
{
background = {
paths = (
{
closed = 1;
nodes = (
"143 728 OFFCURVE",
"103 679 OFFCURVE",
"103 580 CURVE SMOOTH",
"103 511 LINE",
"47 511 LINE",
"47 436 LINE",
"103 436 LINE",
"103 0 LINE",
"197 0 LINE",
"197 436 LINE",
"316 436 LINE",
"316 511 LINE",
"197 511 LINE",
"197 590 LINE SMOOTH",
"197 634 OFFCURVE",
"210 653 OFFCURVE",
"265 653 CURVE SMOOTH",
"278 653 OFFCURVE",
"295 649 OFFCURVE",
"316 640 CURVE",
"316 709 LINE",
"291 722 OFFCURVE",
"259 728 OFFCURVE",
"222 728 CURVE SMOOTH"
);
},
{
closed = 1;
nodes = (
"426 511 LINE",
"426 0 LINE",
"520 0 LINE",
"520 511 LINE"
);
},
{
closed = 1;
nodes = (
"424 720 LINE",
"424 633 LINE",
"522 633 LINE",
"522 720 LINE"
);
}
);
};
layerId = UUID0;
name = Regular;
paths = (
{
closed = 1;
nodes = (
"143 728 OFFCURVE",
"103 679 OFFCURVE",
"103 580 CURVE SMOOTH",
"103 511 LINE",
"47 511 LINE",
"47 436 LINE",
"103 436 LINE",
"103 0 LINE",
"197 0 LINE",
"197 436 LINE",
"316 436 LINE",
"316 511 LINE",
"197 511 LINE",
"197 590 LINE SMOOTH",
"197 634 OFFCURVE",
"210 653 OFFCURVE",
"265 653 CURVE SMOOTH",
"278 653 OFFCURVE",
"295 649 OFFCURVE",
"316 640 CURVE",
"316 709 LINE",
"291 722 OFFCURVE",
"259 728 OFFCURVE",
"222 728 CURVE SMOOTH"
);
},
{
closed = 1;
nodes = (
"426 511 LINE",
"426 0 LINE",
"520 0 LINE",
"520 511 LINE"
);
},
{
closed = 1;
nodes = (
"424 720 LINE",
"424 633 LINE",
"522 633 LINE",
"522 720 LINE"
);
}
);
width = 601;
}
);
leftKerningGroup = f;
rightKerningGroup = i;
unicode = FB01;
},
{
glyphname = fl;
lastChange = "2014-09-05 18:36:08 +0000";
layers = (
{
background = {
paths = (
{
closed = 1;
nodes = (
"143 728 OFFCURVE",
"103 679 OFFCURVE",
"103 580 CURVE SMOOTH",
"103 511 LINE",
"47 511 LINE",
"47 436 LINE",
"103 436 LINE",
"103 0 LINE",
"197 0 LINE",
"197 436 LINE",
"316 436 LINE",
"316 511 LINE",
"197 511 LINE",
"197 590 LINE SMOOTH",
"197 634 OFFCURVE",
"210 653 OFFCURVE",
"265 653 CURVE SMOOTH",
"278 653 OFFCURVE",
"295 649 OFFCURVE",
"316 640 CURVE",
"316 709 LINE",
"291 722 OFFCURVE",
"259 728 OFFCURVE",
"222 728 CURVE SMOOTH"
);
},
{
closed = 1;
nodes = (
"426 720 LINE",
"426 0 LINE",
"520 0 LINE",
"520 720 LINE"
);
}
);
};
layerId = UUID0;
name = Regular;
paths = (
{
closed = 1;
nodes = (
"143 728 OFFCURVE",
"103 679 OFFCURVE",
"103 580 CURVE SMOOTH",
"103 511 LINE",
"47 511 LINE",
"47 436 LINE",
"103 436 LINE",
"103 0 LINE",
"197 0 LINE",
"197 436 LINE",
"316 436 LINE",
"316 511 LINE",
"197 511 LINE",
"197 590 LINE SMOOTH",
"197 634 OFFCURVE",
"210 653 OFFCURVE",
"265 653 CURVE SMOOTH",
"278 653 OFFCURVE",
"295 649 OFFCURVE",
"316 640 CURVE",
"316 709 LINE",
"291 722 OFFCURVE",
"259 728 OFFCURVE",
"222 728 CURVE SMOOTH"
);
},
{
closed = 1;
nodes = (
"426 720 LINE",
"426 0 LINE",
"520 0 LINE",
"520 720 LINE"
);
}
);
width = 607;
}
);
leftKerningGroup = f;
unicode = FB02;
},
{
glyphname = ordfeminine;
lastChange = "2014-09-05 18:36:08 +0000";
layers = (
{
background = {
paths = (
{
closed = 1;
nodes = (
"193 696 LINE SMOOTH",
"118 696 OFFCURVE",
"65 661 OFFCURVE",
"65 608 CURVE SMOOTH",
"65 604 OFFCURVE",
"66 599 OFFCURVE",
"67 594 CURVE",
"122 594 LINE",
"122 602 LINE SMOOTH",
"122 633 OFFCURVE",
"150 650 OFFCURVE",
"192 650 CURVE SMOOTH",
"239 650 OFFCURVE",
"263 631 OFFCURVE",
"263 594 CURVE SMOOTH",
"263 566 LINE",
"109 566 OFFCURVE",
"55 541 OFFCURVE",
"55 462 CURVE SMOOTH",
"55 403 OFFCURVE",
"89 373 OFFCURVE",
"157 373 CURVE SMOOTH",
"204 373 OFFCURVE",
"240 392 OFFCURVE",
"265 429 CURVE",
"268 392 OFFCURVE",
"286 373 OFFCURVE",
"319 373 CURVE SMOOTH",
"334 373 OFFCURVE",
"349 377 OFFCURVE",
"365 385 CURVE",
"365 427 LINE",
"352 422 OFFCURVE",
"343 419 OFFCURVE",
"338 419 CURVE SMOOTH",
"329 419 OFFCURVE",
"320 425 OFFCURVE",
"320 440 CURVE SMOOTH",
"320 601 LINE SMOOTH",
"320 664 OFFCURVE",
"279 696 OFFCURVE",
"198 696 CURVE SMOOTH"
);
},
{
closed = 1;
nodes = (
"263 509 LINE SMOOTH",
"263 452 OFFCURVE",
"220 419 OFFCURVE",
"177 419 CURVE SMOOTH",
"133 419 OFFCURVE",
"112 430 OFFCURVE",
"112 465 CURVE SMOOTH",
"112 512 OFFCURVE",
"168 522 OFFCURVE",
"263 522 CURVE"
);
}
);
};
layerId = UUID0;
name = Regular;
paths = (
{
closed = 1;
nodes = (
"193 696 LINE SMOOTH",
"118 696 OFFCURVE",
"65 661 OFFCURVE",
"65 608 CURVE SMOOTH",
"65 604 OFFCURVE",
"66 599 OFFCURVE",
"67 594 CURVE",
"122 594 LINE",
"122 602 LINE SMOOTH",
"122 633 OFFCURVE",
"150 650 OFFCURVE",
"192 650 CURVE SMOOTH",
"239 650 OFFCURVE",
"263 631 OFFCURVE",
"263 594 CURVE SMOOTH",
"263 566 LINE",
"109 566 OFFCURVE",
"55 541 OFFCURVE",
"55 462 CURVE SMOOTH",
"55 403 OFFCURVE",
"89 373 OFFCURVE",
"157 373 CURVE SMOOTH",
"204 373 OFFCURVE",
"240 392 OFFCURVE",
"265 429 CURVE",
"268 392 OFFCURVE",
"286 373 OFFCURVE",
"319 373 CURVE SMOOTH",
"334 373 OFFCURVE",
"349 377 OFFCURVE",
"365 385 CURVE",
"365 427 LINE",
"352 422 OFFCURVE",
"343 419 OFFCURVE",
"338 419 CURVE SMOOTH",
"329 419 OFFCURVE",
"320 425 OFFCURVE",
"320 440 CURVE SMOOTH",
"320 601 LINE SMOOTH",
"320 664 OFFCURVE",
"279 696 OFFCURVE",
"198 696 CURVE SMOOTH"
);
},
{
closed = 1;
nodes = (
"263 509 LINE SMOOTH",
"263 452 OFFCURVE",
"220 419 OFFCURVE",
"177 419 CURVE SMOOTH",
"133 419 OFFCURVE",
"112 430 OFFCURVE",
"112 465 CURVE SMOOTH",
"112 512 OFFCURVE",
"168 522 OFFCURVE",
"263 522 CURVE"
);
}
);
width = 415;
}
);
unicode = 00AA;
},
{
glyphname = ordmasculine;
lastChange = "2014-09-05 18:36:08 +0000";
layers = (
{
background = {
paths = (
{
closed = 1;
nodes = (
"107 696 OFFCURVE",
"53 640 OFFCURVE",
"53 546 CURVE SMOOTH",
"53 523 LINE SMOOTH",
"53 427 OFFCURVE",
"110 373 OFFCURVE",
"196 373 CURVE SMOOTH",
"282 373 OFFCURVE",
"339 427 OFFCURVE",
"339 523 CURVE SMOOTH",
"339 546 LINE SMOOTH",
"339 640 OFFCURVE",
"285 696 OFFCURVE",
"196 696 CURVE SMOOTH"
);
},
{
closed = 1;
nodes = (
"243 650 OFFCURVE",
"282 619 OFFCURVE",
"282 540 CURVE SMOOTH",
"282 529 LINE SMOOTH",
"282 450 OFFCURVE",
"243 419 OFFCURVE",
"196 419 CURVE SMOOTH",
"149 419 OFFCURVE",
"110 450 OFFCURVE",
"110 529 CURVE SMOOTH",
"110 540 LINE SMOOTH",
"110 619 OFFCURVE",
"149 650 OFFCURVE",
"196 650 CURVE SMOOTH"
);
}
);
};
layerId = UUID0;
name = Regular;
paths = (
{
closed = 1;
nodes = (
"107 696 OFFCURVE",
"53 640 OFFCURVE",
"53 546 CURVE SMOOTH",
"53 523 LINE SMOOTH",
"53 427 OFFCURVE",
"110 373 OFFCURVE",
"196 373 CURVE SMOOTH",
"282 373 OFFCURVE",
"339 427 OFFCURVE",
"339 523 CURVE SMOOTH",
"339 546 LINE SMOOTH",
"339 640 OFFCURVE",
"285 696 OFFCURVE",
"196 696 CURVE SMOOTH"
);
},
{
closed = 1;
nodes = (
"243 650 OFFCURVE",
"282 619 OFFCURVE",
"282 540 CURVE SMOOTH",
"282 529 LINE SMOOTH",
"282 450 OFFCURVE",
"243 419 OFFCURVE",
"196 419 CURVE SMOOTH",
"149 419 OFFCURVE",
"110 450 OFFCURVE",
"110 529 CURVE SMOOTH",
"110 540 LINE SMOOTH",
"110 619 OFFCURVE",
"149 650 OFFCURVE",
"196 650 CURVE SMOOTH"
);
}
);
width = 392;
}
);
unicode = 00BA;
},
{
color = 2;
glyphname = Omega;
lastChange = "2014-09-05 18:36:08 +0000";
layers = (
{
anchors = (
{
name = topleft;
position = "{20, 686}";
}
);
background = {
anchors = (
{
name = topleft;
position = "{20, 686}";
}
);
paths = (
{
closed = 1;
nodes = (
"342 695 LINE SMOOTH",
"169 695 OFFCURVE",
"67 579 OFFCURVE",
"67 370 CURVE SMOOTH",
"67 345 LINE SMOOTH",
"67 224 OFFCURVE",
"100 135 OFFCURVE",
"165 80 CURVE",
"132 84 OFFCURVE",
"107 86 OFFCURVE",
"80 90 CURVE",
"45 90 LINE",
"45 0 LINE",
"309 0 LINE",
"309 49 LINE",
"216 69 OFFCURVE",
"171 137 OFFCURVE",
"171 297 CURVE SMOOTH",
"171 375 LINE SMOOTH",
"171 540 OFFCURVE",
"233 608 OFFCURVE",
"349 608 CURVE SMOOTH",
"470 608 OFFCURVE",
"531 542 OFFCURVE",
"531 375 CURVE SMOOTH",
"531 297 LINE SMOOTH",
"531 134 OFFCURVE",
"484 66 OFFCURVE",
"391 49 CURVE",
"391 0 LINE",
"655 0 LINE",
"655 90 LINE",
"620 90 LINE",
"592 86 OFFCURVE",
"564 83 OFFCURVE",
"536 80 CURVE",
"602 139 OFFCURVE",
"635 224 OFFCURVE",
"635 337 CURVE SMOOTH",
"635 370 LINE SMOOTH",
"635 588 OFFCURVE",
"527 695 OFFCURVE",
"359 695 CURVE SMOOTH"
);
}
);
};
layerId = UUID0;
name = Regular;
paths = (
{
closed = 1;
nodes = (
"342 695 LINE SMOOTH",
"169 695 OFFCURVE",
"67 579 OFFCURVE",
"67 370 CURVE SMOOTH",
"67 345 LINE SMOOTH",
"67 224 OFFCURVE",
"100 135 OFFCURVE",
"165 80 CURVE",
"132 84 OFFCURVE",
"107 86 OFFCURVE",
"80 90 CURVE",
"45 90 LINE",
"45 0 LINE",
"309 0 LINE",
"309 49 LINE",
"216 69 OFFCURVE",
"171 137 OFFCURVE",
"171 297 CURVE SMOOTH",
"171 375 LINE SMOOTH",
"171 540 OFFCURVE",
"233 608 OFFCURVE",
"349 608 CURVE SMOOTH",
"470 608 OFFCURVE",
"531 542 OFFCURVE",
"531 375 CURVE SMOOTH",
"531 297 LINE SMOOTH",
"531 134 OFFCURVE",
"484 66 OFFCURVE",
"391 49 CURVE",
"391 0 LINE",
"655 0 LINE",
"655 90 LINE",
"620 90 LINE",
"592 86 OFFCURVE",
"564 83 OFFCURVE",
"536 80 CURVE",
"602 139 OFFCURVE",
"635 224 OFFCURVE",
"635 337 CURVE SMOOTH",
"635 370 LINE SMOOTH",
"635 588 OFFCURVE",
"527 695 OFFCURVE",
"359 695 CURVE SMOOTH"
);
}
);
width = 699;
}
);
unicode = 03A9;
},
{
color = 2;
glyphname = mu;
lastChange = "2014-09-05 18:36:08 +0000";
layers = (
{
background = {
paths = (
{
closed = 1;
nodes = (
"420 511 LINE",
"420 207 LINE SMOOTH",
"420 127 OFFCURVE",
"355 65 OFFCURVE",
"284 65 CURVE SMOOTH",
"220 65 OFFCURVE",
"176 97 OFFCURVE",
"176 184 CURVE SMOOTH",
"176 511 LINE",
"82 511 LINE",
"82 -161 LINE",
"176 -161 LINE",
"176 -32 LINE",
"170 15 LINE",
"197 -2 OFFCURVE",
"229 -10 OFFCURVE",
"264 -10 CURVE SMOOTH",
"332 -10 OFFCURVE",
"392 25 OFFCURVE",
"425 74 CURVE",
"427 27 OFFCURVE",
"446 -10 OFFCURVE",
"524 -10 CURVE SMOOTH",
"546 -10 OFFCURVE",
"567 -3 OFFCURVE",
"587 10 CURVE",
"587 79 LINE",
"572 70 OFFCURVE",
"557 65 OFFCURVE",
"542 65 CURVE SMOOTH",
"527 65 OFFCURVE",
"514 75 OFFCURVE",
"514 100 CURVE SMOOTH",
"514 511 LINE"
);
}
);
};
layerId = UUID0;
name = Regular;
paths = (
{
closed = 1;
nodes = (
"420 511 LINE",
"420 207 LINE SMOOTH",
"420 127 OFFCURVE",
"355 65 OFFCURVE",
"284 65 CURVE SMOOTH",
"220 65 OFFCURVE",
"176 97 OFFCURVE",
"176 184 CURVE SMOOTH",
"176 511 LINE",
"82 511 LINE",
"82 -161 LINE",
"176 -161 LINE",
"176 -32 LINE",
"170 15 LINE",
"197 -2 OFFCURVE",
"229 -10 OFFCURVE",
"264 -10 CURVE SMOOTH",
"332 -10 OFFCURVE",
"392 25 OFFCURVE",
"425 74 CURVE",
"427 27 OFFCURVE",
"446 -10 OFFCURVE",
"524 -10 CURVE SMOOTH",
"546 -10 OFFCURVE",
"567 -3 OFFCURVE",
"587 10 CURVE",
"587 79 LINE",
"572 70 OFFCURVE",
"557 65 OFFCURVE",
"542 65 CURVE SMOOTH",
"527 65 OFFCURVE",
"514 75 OFFCURVE",
"514 100 CURVE SMOOTH",
"514 511 LINE"
);
}
);
width = 612;
}
);
unicode = 03BC;
},
{
glyphname = pi;
lastChange = "2014-09-05 18:36:08 +0000";
layers = (
{
background = {
paths = (
{
closed = 1;
nodes = (
"181 511 LINE SMOOTH",
"101 511 OFFCURVE",
"47 501 OFFCURVE",
"20 482 CURVE",
"33 425 LINE",
"57 433 OFFCURVE",
"97 437 OFFCURVE",
"152 437 CURVE",
"146 254 OFFCURVE",
"115 94 OFFCURVE",
"81 0 CURVE",
"171 0 LINE",
"180 21 OFFCURVE",
"188 50 OFFCURVE",
"196 87 CURVE SMOOTH",
"222 201 OFFCURVE",
"238 318 OFFCURVE",
"243 437 CURVE",
"417 437 LINE",
"417 143 LINE SMOOTH",
"417 65 OFFCURVE",
"423 17 OFFCURVE",
"434 0 CURVE",
"523 0 LINE",
"513 31 OFFCURVE",
"508 82 OFFCURVE",
"508 152 CURVE SMOOTH",
"508 437 LINE",
"595 437 LINE",
"604 511 LINE"
);
}
);
};
layerId = UUID0;
name = Regular;
paths = (
{
closed = 1;
nodes = (
"181 511 LINE SMOOTH",
"101 511 OFFCURVE",
"47 501 OFFCURVE",
"20 482 CURVE",
"33 425 LINE",
"57 433 OFFCURVE",
"97 437 OFFCURVE",
"152 437 CURVE",
"146 254 OFFCURVE",
"115 94 OFFCURVE",
"81 0 CURVE",
"171 0 LINE",
"180 21 OFFCURVE",
"188 50 OFFCURVE",
"196 87 CURVE SMOOTH",
"222 201 OFFCURVE",
"238 318 OFFCURVE",
"243 437 CURVE",
"417 437 LINE",
"417 143 LINE SMOOTH",
"417 65 OFFCURVE",
"423 17 OFFCURVE",
"434 0 CURVE",
"523 0 LINE",
"513 31 OFFCURVE",
"508 82 OFFCURVE",
"508 152 CURVE SMOOTH",
"508 437 LINE",
"595 437 LINE",
"604 511 LINE"
);
}
);
width = 628;
}
);
unicode = 03C0;
},
